<?xml version="1.0" encoding="utf-8"?>
<!-- Generator: Adobe Illustrator 25.2.2, SVG Export Plug-In . SVG Version: 6.00 Build 0)  -->
<svg version="1.1" xmlns="http://www.w3.org/2000/svg" xmlns:xlink="http://www.w3.org/1999/xlink" x="0px" y="0px"
	 viewBox="0 0 1000 1000" style="enable-background:new 0 0 1000 1000;" xml:space="preserve">
<style type="text/css">
	.st0{fill:#EEFCF3;}
	.st1{fill:#198842;}
	.st2{fill:#1A8842;}
	.st3{fill:#1B8842;}
</style>
<g id="Layer_2">
	<rect class="st0" width="1000" height="1000"/>
	<path class="st1" d="M588.29,670.09c-0.1,1.11-0.32,2.08-0.27,3.04c0.89,15.78-7.84,25.99-20.35,33.33
		c-20.68,12.12-43.66,17.25-67.04,21.4c-26.45,4.69-53.12,6.17-79.84,6.48c-16.49,0.19-33.05-1.09-49.49-2.62
		c-14.94-1.39-29.87-3.5-44.63-6.21c-21.35-3.91-42.04-10.11-60.02-22.88c-9.53-6.77-14.81-15.82-14.76-28.12
		c0.24-54.88,0.5-109.76-0.12-164.63c-0.2-18.24,9.15-29.03,23.71-36.6c24.26-12.61,50.56-18.62,77.57-21.28
		c20.34-2,40.78-3.55,61.2-4.16c16.44-0.49,32.93,0.67,49.39,1.22c3.89,0.13,7.76,0.77,12.35,1.25c0-2.28,0-4.18,0-6.09
		c0-53.38,0.2-106.77-0.16-160.15c-0.08-11.49,5.36-18.58,14.46-23.74c15.67-8.88,32.98-12.65,50.6-14.84
		c17.17-2.14,34.4-4.41,51.67-5.1c17.05-0.68,34.23-0.1,51.26,1.1c17.42,1.23,34.85,3.2,52.05,6.15
		c13.36,2.29,26.55,6.05,38.43,13.15c9.19,5.49,13.81,13.05,13.79,24.17c-0.19,113.91-0.12,227.83-0.11,341.75
		c0,9.41-3.83,16.02-12.05,21.34c-12.68,8.21-26.66,12.36-41.11,14.5c-21.77,3.23-43.69,5.61-65.63,7.32
		c-12.87,1.01-25.89,0.02-38.84-0.06C589.75,669.81,589.12,669.98,588.29,670.09z M492.2,363.46c0,30.21,0,59.76,0,88.68
		c14.13,2.86,27.94,5.65,41.75,8.44c14.8-50.58,61.02-70.59,102.89-57.03c39.39,12.76,61.53,51.36,53.04,92.38
		c-4.35,21.02-16.14,37.87-34.18,49.6c-20.75,13.48-43.4,16.75-67.53,9.48c0,6.54,0,12.66,0,18.9c1.06,0.23,2.02,0.6,2.98,0.63
		c32.6,0.99,65.11,0.29,97.27-5.89c12.66-2.43,25.14-5.54,36.73-11.41c3.69-1.87,6.95-3.73,6.93-9.02
		c-0.15-60.21-0.09-120.42-0.11-180.64c0-1.37-0.22-2.75-0.35-4.25c-2.51,1.26-4.47,2.42-6.56,3.26
		c-23.14,9.23-47.49,12.84-72.09,14.54c-17.87,1.24-35.86,1.6-53.77,1.27c-16.36-0.3-32.8-1.25-49.01-3.38
		C530.48,376.42,510.74,373.13,492.2,363.46z M531.83,593.69c-74.61,17.34-149.06,17.13-223.54,0.09c0,37.05,0,74.23,0,112.05
		c74.73,17.23,149.13,17.75,223.54-0.35C531.83,667.61,531.83,630.56,531.83,593.69z M431.28,462.41
		c-10.45-0.35-17.34-0.23-21.47-0.12c-5.94,0.17-13.54,0.55-28.5,2.06c-17.78,1.8-26.7,2.54-39.03,4.84
		c-13.83,2.58-27.69,5.64-41.02,10.06c-9.42,3.12-18.32,8.31-26.82,13.58c-7.09,4.4-8.58,10.9-4.59,15.8
		c2.64,3.24,5.89,6.27,9.47,8.4c11.67,6.96,24.43,11.15,37.58,14.65c26.82,7.12,54.17,10.34,81.73,10.9
		c23.01,0.47,46.08-0.55,69.07-1.85c23.63-1.33,46.84-5.75,69.35-13.22c11.28-3.74,22.41-7.97,31.18-16.5
		c5.2-5.07,5.45-11.61-0.34-15.86c-13.36-9.83-21.75-13.28-21.75-13.28c-38.55-11.84-65.71-15.48-65.71-15.48
		C477.19,465.95,456.68,463.25,431.28,462.41z M548,699.4c4.31-2.22,7.86-3.84,11.2-5.8c7.77-4.58,13.17-9.86,13.05-20.45
		c-0.56-46.4-0.24-92.8-0.24-139.2c0-1.72,0-3.45,0-5.31c-1.25,0.25-2.02,0.19-2.51,0.53c-14.84,10.54-32.03,15.45-49.39,19.08
		c-17.73,3.71-35.82,5.84-53.8,8.25c-9.3,1.25-18.7,2-28.07,2.26c-9.39,0.27-18.81-0.35-28.21-0.58c-8.08-0.2-16.2,0.1-24.22-0.73
		c-17.47-1.81-34.9-4.04-52.3-6.39c-16.25-2.19-31.91-6.79-46.98-13.18c-6.24-2.65-12.19-5.97-18.52-9.1
		c0,50.09-0.01,99.82,0.04,149.54c0,1.45,0.25,3.08,0.94,4.31c4.99,8.92,14,12.14,23.03,16.57c0-2.22,0-3.54,0-4.85
		c0-35.76-0.01-71.52,0.03-107.27c0-2.12,0.24-4.31,0.82-6.34c1.34-4.69,5.57-7.04,10.04-5.47c15.08,5.32,30.59,8.78,46.45,10.53
		c15.93,1.75,31.87,3.81,47.86,4.54c34.24,1.57,68.43,0.55,102.24-5.85c11.63-2.2,23.22-4.78,34.64-7.9
		c10.12-2.76,13.85-0.53,13.9,9.85c0.05,9.98,0.01,19.96,0.01,29.94C548,643.62,548,670.89,548,699.4z M492,299.69
		c0,13.95,0.11,27.41-0.07,40.86c-0.05,3.84,1.24,6.53,4.68,7.9c8.48,3.35,16.85,7.17,25.61,9.58c9.31,2.57,18.95,4.24,28.55,5.39
		c13.86,1.66,27.79,3.13,41.73,3.54c27.62,0.82,55.22,0.43,82.67-3.79c16.15-2.48,32-5.8,47.16-11.93
		c8.35-3.37,9.67-5.48,9.67-14.27c0-11.14,0.01-22.27-0.02-33.41c0-1.35-0.23-2.71-0.29-3.44c-6.38,2.31-12.17,5.15-18.3,6.49
		c-15.22,3.32-30.49,6.68-45.91,8.67c-16.72,2.16-33.64,3.87-50.47,3.79c-20.29-0.1-40.58-2.03-60.84-3.63
		C534.24,313.73,512.82,309.5,492,299.69z M588.22,590.28c0,21.35,0,42.39,0,63.71c1.65,0.17,3.12,0.43,4.59,0.46
		c27.49,0.56,54.93,0.36,82.23-3.84c15.93-2.45,31.59-5.55,46.53-11.79c9.31-3.88,10.43-5.26,10.43-15.11
		c0-15.95,0.01-31.9-0.01-47.85c0-1.57-0.17-3.14-0.23-4.13C685.48,590.36,637.15,590.83,588.22,590.28z M613.27,304
		c14.45-0.83,27.7-1.16,40.84-2.47c13.2-1.31,26.49-2.76,39.39-5.68c11.45-2.59,22.65-6.73,33.53-11.21
		c6.86-2.83,6.43-6.57,0.09-10.35c-13.32-7.93-28.36-10.88-43.18-13.46c-15.76-2.74-31.89-3.5-47.9-4.56
		c-26.79-1.78-53.57-1.2-80.21,2.41c-19.62,2.65-39.29,5.34-57.18,14.65c-2.53,1.32-4.42,3.86-6.61,5.84
		c1.81,1.96,3.59,3.96,5.45,5.87c0.52,0.53,1.25,0.88,1.94,1.21c19.38,9.25,40.3,12.51,61.28,14.72
		C578.55,302.84,596.54,303.1,613.27,304z M549.06,465.87c4.52,2.22,8.76,4.4,13.11,6.32c0.81,0.36,2.3-0.1,3.16-0.67
		c7.54-4.99,15.67-7.03,24.8-7.83c13.72-1.2,26.42,0.58,37.48,8.57c15.31,11.06,31.98,7.86,45.56-3.43c0.84-0.7,1.7-2.47,1.38-3.3
		c-2.64-7-4.7-14.42-8.55-20.72c-8.43-13.82-20.87-23.07-36.65-27.25c-22.65-5.99-43.14-1.33-60.78,14.01
		C558.33,440.48,552.19,452.16,549.06,465.87z M675.55,486.84c-0.89,0.11-1.44,0.03-1.81,0.25c-17.86,10.63-35.79,10.65-52.92-1.02
		c-10.71-7.3-22.18-7.76-34.16-6.62c-2.96,0.28-5.81,1.67-9.86,2.89c10.86,9.02,11.58,20.22,11.23,31.83
		c-0.21,6.98-0.2,13.97,0.09,20.94c0.06,1.51,1.41,3.76,2.73,4.29c10.19,4.15,20.92,4.51,31.57,2.75
		c19.08-3.14,33.84-13.28,44.21-29.45C671.6,504.96,674.62,496.33,675.55,486.84z"/>
	<path class="st2" d="M390.94,674.8c-7.74,10.6-17.19,18.18-30.48,19.13c-3.45,0.25-7.78-0.44-10.37-2.43
		c-3.67-2.82-1.68-7.18-0.27-11.03c2.02-5.49,4.4-11.01,5.24-16.72c0.5-3.37-1.65-7.14-2.66-10.71c-1.17-4.13-2.51-8.21-3.59-12.36
		c-1.54-5.88,2.54-9.42,8.6-9.31c11.72,0.22,20.88,5.18,28.72,13.29c1.68,1.74,3.03,3.8,4.26,5.35c7.75-4.7,15-10.35,23.18-13.81
		c20.89-8.84,40.63-5.79,58.66,8.09c4.89,3.77,9.98,7.28,14.99,10.89c5.03,3.62,5.66,10.61,0.73,14.25
		c-8.79,6.47-17.77,12.71-26.95,18.63c-9.27,5.98-19.8,6.76-30.5,5.98c-11.9-0.87-22.08-5.82-31.18-13.32
		C396.8,678.63,393.97,676.91,390.94,674.8z M401.35,662.71c24.45,22.8,47.47,19.99,69.09,0
		C449.16,642.8,425.56,639.96,401.35,662.71z M367.45,650.88c4.89,8.1,4.82,15.71,0.17,23.41c4.26-0.29,11.86-7.73,12.07-11.24
		C379.92,659.36,372.66,651.64,367.45,650.88z"/>
	<path class="st3" d="M368.04,482.39c1.3,0.38,3.16,1.01,5.24,2.08c1.56,0.8,13.42,6.94,14.36,16.91
		c0.88,9.34-5.32,15.23-12.92,19.46c-7.95,4.42-16.78,6.01-25.7,5.91c-10.16-0.12-20.12-1.33-29.25-6.93
		c-7.06-4.33-12.13-9.85-11.53-18.08c0.68-9.39,10.65-14.99,13.56-16.67c1.54-0.89,6.61-3.65,16.86-4.86
		C345.07,479.46,355.36,479.07,368.04,482.39z M349.06,512.04c0,0,8.84-0.28,18.58-4.77c1.53-0.71,3.76-1.85,3.86-3.53
		c0.08-1.34-0.98-2.75-3.22-3.89c-4.07-2.07-8.58-3.78-13.07-4.42c-6.79-0.97-17.68-1.71-25.81,2.93c-1.19,0.68-4.49,2.61-4.28,4.74
		c0.09,0.95,0.87,1.8,1.7,2.71c0,0,1.27,1.39,2.84,2.29C337.18,512.42,349.06,512.04,349.06,512.04z"/>
</g>
<g id="Layer_1">
</g>
</svg>
