<?xml version="1.0" encoding="utf-8"?>
<!-- Generator: Adobe Illustrator 25.2.2, SVG Export Plug-In . SVG Version: 6.00 Build 0)  -->
<svg version="1.1" xmlns="http://www.w3.org/2000/svg" xmlns:xlink="http://www.w3.org/1999/xlink" x="0px" y="0px"
	 viewBox="0 0 1000 1000" style="enable-background:new 0 0 1000 1000;" xml:space="preserve">
<style type="text/css">
	.st0{fill:#EEFCF3;}
	.st1{display:none;}
	.st2{display:inline;fill:#198842;}
	.st3{display:inline;fill:#1A8842;}
	.st4{display:inline;fill:#1B8842;}
	.st5{display:inline;}
	.st6{fill:#1A8842;}
	.st7{fill:#F8FAF9;}
	.st8{fill:#F9F9F9;}
	.st9{fill:#F8F9FB;}
	.st10{fill:#F9FAF9;}
	.st11{fill:#1C8745;}
	.st12{fill:#1B8944;}
	.st13{fill:#1A8742;}
	.st14{fill:#1A8843;}
	.st15{fill:#A4828E;}
	.st16{fill:#F8FAF8;}
	.st17{fill:#EDF3F0;}
	.st18{fill:#198842;}
	.st19{fill:#1A8942;}
	.st20{fill:#1D8B45;}
	.st21{fill:#1E8844;}
	.st22{fill:#1C8944;}
	.st23{fill:#1C8843;}
	.st24{fill:#1C8842;}
	.st25{fill:#1A8743;}
	.st26{fill:#1B8843;}
	.st27{fill:#1B8943;}
	.st28{fill:#1B8743;}
	.st29{fill:#DECAA5;}
</style>
<g id="backgrounds">
	<rect class="st0" width="1000" height="1000"/>
</g>
<g id="Layer_2" class="st1">
	<path class="st2" d="M588.29,670.09c-0.1,1.11-0.32,2.08-0.27,3.04c0.89,15.78-7.84,25.99-20.35,33.33
		c-20.68,12.12-43.66,17.25-67.04,21.4c-26.45,4.69-53.12,6.17-79.84,6.48c-16.49,0.19-33.05-1.09-49.49-2.62
		c-14.94-1.39-29.87-3.5-44.63-6.21c-21.35-3.91-42.04-10.11-60.02-22.88c-9.53-6.77-14.81-15.82-14.76-28.12
		c0.24-54.88,0.5-109.76-0.12-164.63c-0.2-18.24,9.15-29.03,23.71-36.6c24.26-12.61,50.56-18.62,77.57-21.28
		c20.34-2,40.78-3.55,61.2-4.16c16.44-0.49,32.93,0.67,49.39,1.22c3.89,0.13,7.76,0.77,12.35,1.25c0-2.28,0-4.18,0-6.09
		c0-53.38,0.2-106.77-0.16-160.15c-0.08-11.49,5.36-18.58,14.46-23.74c15.67-8.88,32.98-12.65,50.6-14.84
		c17.17-2.14,34.4-4.41,51.67-5.1c17.05-0.68,34.23-0.1,51.26,1.1c17.42,1.23,34.85,3.2,52.05,6.15
		c13.36,2.29,26.55,6.05,38.43,13.15c9.19,5.49,13.81,13.05,13.79,24.17c-0.19,113.91-0.12,227.83-0.11,341.75
		c0,9.41-3.83,16.02-12.05,21.34c-12.68,8.21-26.66,12.36-41.11,14.5c-21.77,3.23-43.69,5.61-65.63,7.32
		c-12.87,1.01-25.89,0.02-38.84-0.06C589.75,669.81,589.12,669.98,588.29,670.09z M492.2,363.46c0,30.21,0,59.76,0,88.68
		c14.13,2.86,27.94,5.65,41.75,8.44c14.8-50.58,61.02-70.59,102.89-57.03c39.39,12.76,61.53,51.36,53.04,92.38
		c-4.35,21.02-16.14,37.87-34.18,49.6c-20.75,13.48-43.4,16.75-67.53,9.48c0,6.54,0,12.66,0,18.9c1.06,0.23,2.02,0.6,2.98,0.63
		c32.6,0.99,65.11,0.29,97.27-5.89c12.66-2.43,25.14-5.54,36.73-11.41c3.69-1.87,6.95-3.73,6.93-9.02
		c-0.15-60.21-0.09-120.42-0.11-180.64c0-1.37-0.22-2.75-0.35-4.25c-2.51,1.26-4.47,2.42-6.56,3.26
		c-23.14,9.23-47.49,12.84-72.09,14.54c-17.87,1.24-35.86,1.6-53.77,1.27c-16.36-0.3-32.8-1.25-49.01-3.38
		C530.48,376.42,510.74,373.13,492.2,363.46z M531.83,593.69c-74.61,17.34-149.06,17.13-223.54,0.09c0,37.05,0,74.23,0,112.05
		c74.73,17.23,149.13,17.75,223.54-0.35C531.83,667.61,531.83,630.56,531.83,593.69z M431.28,462.41
		c-10.45-0.35-17.34-0.23-21.47-0.12c-5.94,0.17-13.54,0.55-28.5,2.06c-17.78,1.8-26.7,2.54-39.03,4.84
		c-13.83,2.58-27.69,5.64-41.02,10.06c-9.42,3.12-18.32,8.31-26.82,13.58c-7.09,4.4-8.58,10.9-4.59,15.8
		c2.64,3.24,5.89,6.27,9.47,8.4c11.67,6.96,24.43,11.15,37.58,14.65c26.82,7.12,54.17,10.34,81.73,10.9
		c23.01,0.47,46.08-0.55,69.07-1.85c23.63-1.33,46.84-5.75,69.35-13.22c11.28-3.74,22.41-7.97,31.18-16.5
		c5.2-5.07,5.45-11.61-0.34-15.86c-13.36-9.83-21.75-13.28-21.75-13.28c-38.55-11.84-65.71-15.48-65.71-15.48
		C477.19,465.95,456.68,463.25,431.28,462.41z M548,699.4c4.31-2.22,7.86-3.84,11.2-5.8c7.77-4.58,13.17-9.86,13.05-20.45
		c-0.56-46.4-0.24-92.8-0.24-139.2c0-1.72,0-3.45,0-5.31c-1.25,0.25-2.02,0.19-2.51,0.53c-14.84,10.54-32.03,15.45-49.39,19.08
		c-17.73,3.71-35.82,5.84-53.8,8.25c-9.3,1.25-18.7,2-28.07,2.26c-9.39,0.27-18.81-0.35-28.21-0.58c-8.08-0.2-16.2,0.1-24.22-0.73
		c-17.47-1.81-34.9-4.04-52.3-6.39c-16.25-2.19-31.91-6.79-46.98-13.18c-6.24-2.65-12.19-5.97-18.52-9.1
		c0,50.09-0.01,99.82,0.04,149.54c0,1.45,0.25,3.08,0.94,4.31c4.99,8.92,14,12.14,23.03,16.57c0-2.22,0-3.54,0-4.85
		c0-35.76-0.01-71.52,0.03-107.27c0-2.12,0.24-4.31,0.82-6.34c1.34-4.69,5.57-7.04,10.04-5.47c15.08,5.32,30.59,8.78,46.45,10.53
		c15.93,1.75,31.87,3.81,47.86,4.54c34.24,1.57,68.43,0.55,102.24-5.85c11.63-2.2,23.22-4.78,34.64-7.9
		c10.12-2.76,13.85-0.53,13.9,9.85c0.05,9.98,0.01,19.96,0.01,29.94C548,643.62,548,670.89,548,699.4z M492,299.69
		c0,13.95,0.11,27.41-0.07,40.86c-0.05,3.84,1.24,6.53,4.68,7.9c8.48,3.35,16.85,7.17,25.61,9.58c9.31,2.57,18.95,4.24,28.55,5.39
		c13.86,1.66,27.79,3.13,41.73,3.54c27.62,0.82,55.22,0.43,82.67-3.79c16.15-2.48,32-5.8,47.16-11.93
		c8.35-3.37,9.67-5.48,9.67-14.27c0-11.14,0.01-22.27-0.02-33.41c0-1.35-0.23-2.71-0.29-3.44c-6.38,2.31-12.17,5.15-18.3,6.49
		c-15.22,3.32-30.49,6.68-45.91,8.67c-16.72,2.16-33.64,3.87-50.47,3.79c-20.29-0.1-40.58-2.03-60.84-3.63
		C534.24,313.73,512.82,309.5,492,299.69z M588.22,590.28c0,21.35,0,42.39,0,63.71c1.65,0.17,3.12,0.43,4.59,0.46
		c27.49,0.56,54.93,0.36,82.23-3.84c15.93-2.45,31.59-5.55,46.53-11.79c9.31-3.88,10.43-5.26,10.43-15.11
		c0-15.95,0.01-31.9-0.01-47.85c0-1.57-0.17-3.14-0.23-4.13C685.48,590.36,637.15,590.83,588.22,590.28z M613.27,304
		c14.45-0.83,27.7-1.16,40.84-2.47c13.2-1.31,26.49-2.76,39.39-5.68c11.45-2.59,22.65-6.73,33.53-11.21
		c6.86-2.83,6.43-6.57,0.09-10.35c-13.32-7.93-28.36-10.88-43.18-13.46c-15.76-2.74-31.89-3.5-47.9-4.56
		c-26.79-1.78-53.57-1.2-80.21,2.41c-19.62,2.65-39.29,5.34-57.18,14.65c-2.53,1.32-4.42,3.86-6.61,5.84
		c1.81,1.96,3.59,3.96,5.45,5.87c0.52,0.53,1.25,0.88,1.94,1.21c19.38,9.25,40.3,12.51,61.28,14.72
		C578.55,302.84,596.54,303.1,613.27,304z M549.06,465.87c4.52,2.22,8.76,4.4,13.11,6.32c0.81,0.36,2.3-0.1,3.16-0.67
		c7.54-4.99,15.67-7.03,24.8-7.83c13.72-1.2,26.42,0.58,37.48,8.57c15.31,11.06,31.98,7.86,45.56-3.43c0.84-0.7,1.7-2.47,1.38-3.3
		c-2.64-7-4.7-14.42-8.55-20.72c-8.43-13.82-20.87-23.07-36.65-27.25c-22.65-5.99-43.14-1.33-60.78,14.01
		C558.33,440.48,552.19,452.16,549.06,465.87z M675.55,486.84c-0.89,0.11-1.44,0.03-1.81,0.25c-17.86,10.63-35.79,10.65-52.92-1.02
		c-10.71-7.3-22.18-7.76-34.16-6.62c-2.96,0.28-5.81,1.67-9.86,2.89c10.86,9.02,11.58,20.22,11.23,31.83
		c-0.21,6.98-0.2,13.97,0.09,20.94c0.06,1.51,1.41,3.76,2.73,4.29c10.19,4.15,20.92,4.51,31.57,2.75
		c19.08-3.14,33.84-13.28,44.21-29.45C671.6,504.96,674.62,496.33,675.55,486.84z"/>
	<path class="st3" d="M390.94,674.8c-7.74,10.6-17.19,18.18-30.48,19.13c-3.45,0.25-7.78-0.44-10.37-2.43
		c-3.67-2.82-1.68-7.18-0.27-11.03c2.02-5.49,4.4-11.01,5.24-16.72c0.5-3.37-1.65-7.14-2.66-10.71c-1.17-4.13-2.51-8.21-3.59-12.36
		c-1.54-5.88,2.54-9.42,8.6-9.31c11.72,0.22,20.88,5.18,28.72,13.29c1.68,1.74,3.03,3.8,4.26,5.35c7.75-4.7,15-10.35,23.18-13.81
		c20.89-8.84,40.63-5.79,58.66,8.09c4.89,3.77,9.98,7.28,14.99,10.89c5.03,3.62,5.66,10.61,0.73,14.25
		c-8.79,6.47-17.77,12.71-26.95,18.63c-9.27,5.98-19.8,6.76-30.5,5.98c-11.9-0.87-22.08-5.82-31.18-13.32
		C396.8,678.63,393.97,676.91,390.94,674.8z M401.35,662.71c24.45,22.8,47.47,19.99,69.09,0
		C449.16,642.8,425.56,639.96,401.35,662.71z M367.45,650.88c4.89,8.1,4.82,15.71,0.17,23.41c4.26-0.29,11.86-7.73,12.07-11.24
		C379.92,659.36,372.66,651.64,367.45,650.88z"/>
	<path class="st4" d="M368.04,482.39c1.3,0.38,3.16,1.01,5.24,2.08c1.56,0.8,13.42,6.94,14.36,16.91
		c0.88,9.34-5.32,15.23-12.92,19.46c-7.95,4.42-16.78,6.01-25.7,5.91c-10.16-0.12-20.12-1.33-29.25-6.93
		c-7.06-4.33-12.13-9.85-11.53-18.08c0.68-9.39,10.65-14.99,13.56-16.67c1.54-0.89,6.61-3.65,16.86-4.86
		C345.07,479.46,355.36,479.07,368.04,482.39z M349.06,512.04c0,0,8.84-0.28,18.58-4.77c1.53-0.71,3.76-1.85,3.86-3.53
		c0.08-1.34-0.98-2.75-3.22-3.89c-4.07-2.07-8.58-3.78-13.07-4.42c-6.79-0.97-17.68-1.71-25.81,2.93c-1.19,0.68-4.49,2.61-4.28,4.74
		c0.09,0.95,0.87,1.8,1.7,2.71c0,0,1.27,1.39,2.84,2.29C337.18,512.42,349.06,512.04,349.06,512.04z"/>
</g>
<g id="Layer_3" class="st1">
	<g class="st5">
		<path class="st6" d="M612.62,226.88c6.45,4.2,12.91,8.38,19.34,12.6c3.56,2.34,6.8,1.8,10.08-0.67c3.02-2.27,6.21-4.34,9.37-6.42
			c7.37-4.87,15.27-2.06,16.98,6.65c3.67,18.68,7.05,37.42,10.09,56.21c3.18,19.69,5.95,39.45,8.63,59.22
			c1.43,10.57,2.23,21.23,3.41,31.83c1.42,12.76,3.31,25.48,4.34,38.27c1.56,19.48,2.67,39,3.74,58.51
			c0.84,15.28,1.76,30.58,1.86,45.87c0.12,18.57,0.22,37.21-1.16,55.7c-1.62,21.7-3.91,43.45-7.68,64.87
			c-2.95,16.8-7.87,33.36-13.26,49.58c-4.35,13.09-13.05,23.63-24.99,31.06c-4.09,2.54-8.15,5.65-12.66,6.89
			c-7.52,2.07-14.15-1.25-20.33-5.59c-11.92-8.36-10.87-11.37-25.46-0.66c-12.92,9.49-20.47,9.75-33.94-0.44
			c-2.23-1.69-4.78-2.95-7.03-4.62c-3.58-2.66-6.71-2.18-10.32,0.25c-5.46,3.68-11.08,7.21-16.96,10.16
			c-6.45,3.24-12.81,1.75-18.7-2.08c-4.52-2.94-9.03-5.89-13.52-8.86c-2.84-1.88-5.45-1.54-8.24,0.31
			c-4.5,2.99-9.22,5.66-13.73,8.64c-8.14,5.38-16.06,4.27-23.82-0.69c-3.89-2.49-7.55-5.33-11.4-7.88c-3.65-2.41-7-2.19-10.71,0.57
			c-4.99,3.73-10.17,7.47-15.8,10.02c-8.12,3.68-15.79,0.71-22.81-3.85c-2.88-1.87-5.63-3.98-8.26-6.2
			c-3.64-3.07-7.19-2.78-10.88-0.23c-3.47,2.4-6.95,4.8-10.46,7.13c-12.41,8.23-21.78,5.05-32.31-4.25
			c-13.83-12.21-21.34-27.67-24.19-45.74c-2.56-16.21-6.19-32.28-8.11-48.55c-2.3-19.53-3.94-39.2-4.68-58.85
			c-1.12-29.38-2.14-58.83-1.48-88.21c0.71-31.43,3.01-62.84,5.38-94.21c1.72-22.79,4.23-45.54,7.2-68.2
			c3.05-23.28,7.11-46.42,10.68-69.63c0.81-5.31,1.4-10.65,2.1-15.97c1.03-7.83,9.18-11.87,16.01-7.74c3.46,2.1,6.55,4.8,9.91,7.09
			c3.12,2.12,6.5,3.17,10.03,0.96c6.74-4.23,13.42-8.55,20.13-12.84c0.57-0.36,1.99-1.14,3.96-1.15c2.01-0.01,3.46,0.79,4.03,1.15
			c8.05,4.78,14.39,8.67,19.1,11.53c4.09,2.48,7.95,3.65,12.51,0.49c6.22-4.31,12.85-8.04,19.3-12.02c0.62-0.41,2.14-1.3,4.28-1.36
			c2.39-0.06,4.11,0.96,4.71,1.36c7.72,4.63,13.49,8.18,17.78,11.29c4.91,3.55,9,3.13,13.8-0.15c5.9-4.03,12.21-7.45,18.34-11.14
			c0.71-0.41,2.48-1.32,4.87-1.22c1.96,0.08,3.41,0.8,4.12,1.22c9.88,6.37,17.28,10.95,20.12,12.72c1.28,0.8,2.52,1.22,3.74,1.28
			c2.6,0.14,4.62-1.24,5.4-1.76c3.41-2.28,10.75-6.53,20.66-12.24c0.55-0.32,1.72-0.9,3.31-0.94c1.8-0.05,3.13,0.62,3.68,0.94
			c8.95,5.25,15.78,9.25,19.79,11.87c0.98,0.64,3.22,2.12,6.13,1.98c1.53-0.07,3.09-0.62,4.75-1.74
			c6.29-4.23,12.82-8.09,19.26-12.11c0.69-0.45,2.4-1.44,4.79-1.49C610.06,225.33,611.94,226.44,612.62,226.88z M666.97,687.25
			c-2.35,0-3.83,0-5.32,0c-91.01,0-182.02,0-273.03,0.01c-1.5,0-3.19,0.55-4.44,0.02c-2.15-0.91-5.03-2.08-5.75-3.88
			c-0.81-2.04-0.18-5.18,0.88-7.32c1.96-3.97,6.09-3.22,9.68-3.22c92.17-0.01,184.35-0.01,276.52-0.01c1.33,0,2.78,0.33,3.96-0.1
			c1.13-0.41,2.59-1.45,2.84-2.47c1.86-7.67,3.79-15.36,5.04-23.14c1.73-10.8,3.04-21.68,4.26-32.56
			c1.36-12.16,3.14-24.34,3.47-36.54c0.61-22.77,0.45-45.56,0.31-68.34c-0.08-13.45-0.4-26.91-1.22-40.33
			c-0.88-14.28-2.4-28.53-3.8-42.78c-1.5-15.35-3-30.7-4.83-46.01c-1.75-14.56-3.94-29.06-5.93-43.59
			c-2.04-14.94-4.07-29.87-6.13-45.04c-8.15,0-15.8,0.13-23.44-0.05c-4.36-0.1-7.9-3.73-7.75-7.38c0.16-4.04,3.77-6.96,8.36-6.93
			c6.56,0.05,13.11,0.01,20.09,0.01c-1.88-10.33-3.61-19.88-5.44-29.97c-2.81,1.71-5.18,3.07-7.47,4.56
			c-7.58,4.94-15.46,4.94-22.99-0.11c-4.1-2.75-8.15-5.6-12.24-8.37c-3.3-2.23-6.49-2.72-9.99-0.08c-3.95,2.97-8.19,5.56-12.29,8.33
			c-7.23,4.87-17.12,4.96-24.21,0.13c-3.8-2.59-7.57-5.23-11.3-7.92c-4.14-2.98-7.9-2.91-12.01,0.43
			c-3.65,2.96-7.85,5.26-11.83,7.81c-7.67,4.9-15.33,4.3-22.82-0.31c-3.49-2.15-6.8-4.6-10.12-7.02c-5.89-4.29-9.4-4.22-15.07,0.15
			c-3.22,2.48-6.51,4.9-9.97,7.02c-6.53,4.02-13.51,5.1-20.47,1.35c-4.59-2.48-8.95-5.47-13.17-8.55
			c-5.37-3.92-8.11-4.13-13.36-0.37c-3.27,2.34-6.48,4.78-9.89,6.88c-8.01,4.94-16.31,5.81-24.59,0.72
			c-4.21-2.58-8.2-5.52-12.21-8.41c-3.12-2.25-6.16-2.92-9.5-0.46c-2.58,1.9-5.35,3.56-7.93,5.46c-8.3,6.09-17.02,9.64-27.06,4.3
			c-2.79-1.49-5.29-3.54-8.31-5.6c-1.66,10.32-3.2,19.9-4.84,30.04c2.68,0,4.64,0,6.6,0c92.01,0,184.02,0,276.03,0.01
			c1.99,0,4.23-0.46,5.92,0.28c2.31,1,5.2,2.56,5.99,4.6c0.73,1.89-0.23,5.67-1.8,6.91c-2.17,1.71-5.61,2.51-8.51,2.51
			c-85.69,0.15-171.37,0.15-257.06,0.18c-9.62,0-19.25,0-29.22,0c-0.31,1.71-0.71,3.39-0.92,5.09c-2.2,17.68-4.76,35.32-6.48,53.05
			c-2.94,30.29-5.72,60.6-7.88,90.94c-1.61,22.63-2.43,45.33-3.05,68.01c-0.32,11.75,0.4,23.53,0.93,35.29
			c0.84,18.69,1.75,37.38,2.96,56.05c0.66,10.2,1.76,20.39,3.06,30.53c1.78,13.91,3.94,27.77,5.97,41.79c1.63,0,2.44,0,3.26,0
			c11.98,0,23.96-0.06,35.94,0.03c5.32,0.04,8.86,3.46,8.73,8.03c-0.1,3.61-3.98,6.36-8.92,6.35c-9.98-0.01-19.97-0.02-29.95,0
			c-1.57,0-3.14,0.2-4.73,0.3c-0.08,1.08-0.24,1.59-0.13,2.03c3.2,12.67,10.51,22.76,20.33,31.01c3.6,3.03,8.04,3.46,12.26,0.12
			c3.51-2.77,7.16-5.4,10.95-7.77c7.76-4.84,15.65-5.51,23.57-0.17c4.16,2.81,8.48,5.38,12.61,8.22c3.53,2.43,6.81,2.76,10.37,0.02
			c3.36-2.59,6.88-4.97,10.43-7.3c6.16-4.04,12.76-6.78,19.94-3.15c5.43,2.74,10.62,6.03,15.6,9.52c5.16,3.62,8.86,3.8,13.76,0.03
			c3.23-2.49,6.51-4.99,10.01-7.06c4.51-2.68,9.18-4.23,14.85-3.54c8.07,0.98,13.42,6.26,19.48,10.47c5.11,3.54,8.26,3.79,13.4,0.33
			c4.18-2.81,8.14-6.19,12.69-8.13c4.02-1.72,8.76-2.6,13.14-2.44c6.57,0.24,11.9,4.1,16.7,8.39c6.4,5.72,10.84,6.36,17.05,2.02
			c2.29-1.6,4.26-3.65,6.58-5.19c7.53-4.99,15.25-8.89,24.22-3.09c4.53,2.93,9.25,5.57,13.73,8.58c3.69,2.48,7.16,3.78,11.14,0.62
			c3.2-2.54,6.87-4.56,9.84-7.32C658.61,706.68,664.11,698.28,666.97,687.25z"/>
		<path class="st7" d="M545.73,226.88c-6.91,4.05-13.95,7.89-20.66,12.24c-3.22,2.09-6.02,2.43-9.14,0.48
			c-6.73-4.2-13.41-8.48-20.12-12.72C512.45,226.88,529.09,226.88,545.73,226.88z"/>
		<path class="st8" d="M427.92,226.88c-6.45,3.98-13.08,7.71-19.3,12.02c-4.57,3.16-8.42,2-12.51-0.49
			c-6.36-3.86-12.73-7.69-19.1-11.53C393.97,226.88,410.95,226.88,427.92,226.88z"/>
		<path class="st9" d="M486.82,226.88c-6.13,3.69-12.44,7.11-18.34,11.14c-4.8,3.28-8.89,3.69-13.8,0.15
			c-5.68-4.11-11.83-7.55-17.78-11.29C453.54,226.88,470.18,226.88,486.82,226.88z"/>
		<path class="st10" d="M602.64,226.88c-6.43,4.02-12.97,7.88-19.26,12.11c-3.87,2.6-7.16,2.12-10.88-0.24
			c-6.49-4.12-13.18-7.93-19.79-11.87C569.36,226.88,586,226.88,602.64,226.88z"/>
		<path class="st6" d="M668.61,445.21c7.49,1.82,9.16,5.79,5.52,12.41c-4.3,7.81-8.54,15.67-12.43,23.69
			c-0.76,1.56-0.37,4.32,0.54,5.94c3.98,7.07,8.41,13.88,12.57,20.85c3.18,5.35,0.37,11.12-5.91,11.49
			c-7.94,0.46-15.92,0.31-23.89,0.38c-4.8,0.04-9.6,0.01-15.21,0.01c0,5.23-0.27,10.15,0.06,15.02c0.58,8.75-3.95,12.57-10.68,14.72
			c-1.63-0.13-3.28-0.38-4.92-0.38c-80.31-0.02-160.61-0.02-240.92,0c-1.65,0-3.29,0.24-4.94,0.37
			c-8.02-2.23-11.03-6.23-11.35-15.17c-0.08-2.33-0.01-4.66-0.01-6.98c0-2.3,0-4.61,0-7.58c-3.63,0-7.05,0.02-10.47,0
			c-9.14-0.06-18.3,0.12-27.43-0.28c-6.68-0.29-9.13-4.97-6.11-10.93c3.92-7.72,7.85-15.44,12.05-23.01
			c1.74-3.15,2.22-5.72,0.05-8.92c-4.03-5.94-8-11.97-11.33-18.31c-1.39-2.65-2-6.4-1.34-9.27c0.83-3.58,4.63-4.29,8.1-4.32
			c5.99-0.04,11.98-0.02,17.96-0.03c5.98,0,11.96,0,18.05,0c0.46-6.75,0.64-13.31,1.41-19.81c0.69-5.81,6-9.85,11.76-9.72
			c5.15,0.12,10.3,0.14,15.46,0.17c4.41,0.03,8.17,2.88,8.34,6.4c0.19,3.89-3.38,7.49-7.97,7.69c-4.28,0.19-8.57,0.04-13.11,0.04
			c0,35.26,0,70.09,0,105.22c80.83,0,161.57,0,242.67,0c0-34.93,0-69.74,0-104.95c-1.7-0.08-3.31-0.23-4.91-0.23
			c-64.03-0.01-128.07-0.05-192.1,0.09c-3.99,0.01-7.21-1.13-8.55-4.49c-0.8-2.02-0.16-5.38,1.14-7.23c1.15-1.63,4.09-2,6.24-2.93
			c1.64,0.14,3.29,0.39,4.93,0.39c63.7,0.02,127.4,0.02,191.1,0.01c1.66,0,3.32-0.14,4.97-0.22c9.16,2.2,11.69,5.33,11.67,14.27
			c-0.01,4.93,0.11,9.87,0.18,14.8c0.68,0.36,1.35,1.04,2.03,1.04C644.08,445.41,656.34,445.3,668.61,445.21z M357.14,504.39
			c0.29-0.71,0.84-1.41,0.84-2.12c0.05-13.25,0.07-26.49-0.01-39.74c-0.01-0.92-0.78-1.84-1.2-2.76c-7.96,0-15.92,0-24.89,0
			c2.42,4.17,4.35,8.02,6.77,11.55c4.04,5.89,6.52,11.23,0.96,18.03c-3.59,4.38-5.49,10.15-8.69,16.34
			C340.47,505.21,348.81,504.8,357.14,504.39z M629.79,459.89c0,14.31-0.04,28.38,0.09,42.44c0.01,0.96,1.26,2.72,1.97,2.74
			c7.68,0.2,15.36,0.12,24.16,0.12c-2.23-3.49-3.62-6.03-5.36-8.31c-6.09-7.99-8.05-15.79-0.9-24.51c2.76-3.37,3.99-8,6.12-12.49
			C647,459.89,638.77,459.89,629.79,459.89z"/>
		<path class="st6" d="M568.31,451.66c0.45-1.48,2.59-2.11,4.32-2.46c10.36-2.11,21.38,0.21,21.39,0.21
			c7.45,0.84,11.37,4.13,13.7,10.83c2.08,5.99-0.48,15.55-4.76,19.02c-1.36,1.1-2.72,2.2-4.32,3.5c2.94,5.55,5.53,11.23,8.84,16.45
			c3,4.73-0.83,6.14-3.32,8.02c-2.82,2.12-5.5,1.82-7.26-1.79c-2.59-5.33-5.42-10.54-7.96-15.89c-1.79-3.78-3.93-6.56-9.26-4.55
			c0,5.23-0.06,10.84,0.02,16.46c0.07,5.36-3.11,7.74-8.26,5.84c-0.46-0.17-0.81-0.47-0.83-0.49c0,0-1.22-0.88-1.96-2.5
			c-0.72-1.58-0.92-22.72-0.39-51.64C568.22,452.45,568.18,452.07,568.31,451.66z M580.01,475.08c5.37-0.27,11.57,2.26,14.99-3.26
			c1.5-2.42,1.21-8.86-0.33-9.69c-4.1-2.22-9.3-2.4-14.66-3.51C580.01,464.93,580.01,469.68,580.01,475.08z"/>
		<path class="st11" d="M485.43,478.39c0,3.99-0.43,8.04,0.16,11.94c0.35,2.31,1.88,5.6,3.68,6.26c2.42,0.88,6.25,0.54,8.28-0.93
			c1.77-1.29,2.03-4.83,2.57-7.46c0.07-0.33-2.16-1.54-3.38-1.65c-2.82-0.25-4.77-1.03-4.99-4.27c-0.24-3.39,1.7-4.89,4.59-5.37
			c1.95-0.32,3.98-0.16,5.97-0.16c10.16-0.03,10.46-0.33,10.32,10.7c-0.09,7.24-1.3,14.36-8.74,18.35
			c-7.83,4.21-25.36,3.68-29.07-7.53c-0.56-1.69-1.2-3.47-1.2-5.21c-0.03-10.53-0.44-21.11,0.39-31.59
			c0.6-7.6,8.32-12.75,16.05-12.17c3.54,0.27,7.12,0.38,10.61,0.96c6.82,1.13,12.52,8.7,11.85,15.29c-0.33,3.3-1.71,5.2-5.37,5.02
			c-3.17-0.16-6.21,0.28-6.89-4.32c-0.85-5.72-3.39-7.32-9.24-6.55c-4.84,0.64-5.64,4.16-5.57,8.24c0.06,3.49,0.01,6.98,0.01,10.47
			C485.46,478.39,485.44,478.39,485.43,478.39z"/>
		<path class="st12" d="M452.8,472.39c0-5.99,0.2-11.99-0.06-17.96c-0.22-4.91,3.12-5.44,6.44-5.47c3.11-0.03,5.79,1.12,5.76,5.19
			c-0.09,12.14,0.43,24.31-0.18,36.42c-0.66,13.08-8.09,17.85-23.11,17.48c-11.31-0.28-17.53-8.27-17.05-19.77
			c0.46-11.13,0.35-22.3-0.02-33.43c-0.13-3.8,0.71-5.74,4.51-5.93c5.16-0.26,7.54,1.48,7.64,5.94c0.15,6.98,0.13,13.97,0.01,20.96
			c-0.08,4.77-0.56,9.53-0.68,14.29c-0.1,3.83,3.66,7.16,7.89,7.27c3.28,0.09,5.68-0.66,7.09-2.29c1.26-1.46,1.39-3.23,1.47-4.27
			c0.48-6.39,0.39-12.95,0.3-16.53C452.81,473.65,452.81,473.02,452.8,472.39z"/>
		<path class="st13" d="M553.68,507.57c-1.18-0.59-1.84-1.94-3.11-4.62c-2.14-4.5-1.55-5.51-2.99-6.59
			c-1.26-0.94-3.23-0.95-7.24-0.95c-1,0-2.01,0.13-2.99-0.02c-5.07-0.79-7.84,0.62-8.31,6.43c-0.44,5.35-2.8,6.66-7.18,5.62
			c-4.7-1.12-6.17-3.38-4.67-8.4c3.28-11.03,6.85-21.98,10.26-32.98c1.17-3.76,2.33-7.53,3.27-11.35c1.06-4.29,3.54-6.41,8.03-6.37
			c4.42,0.03,8.05,1.16,9.48,5.84c3.25,10.56,6.45,21.14,9.65,31.72c1.31,4.34,2.6,8.69,3.88,13.04c0.68,2.31,0.78,4.24-0.25,5.97
			C559.98,507.44,556.12,508.79,553.68,507.57z M540.25,465.07c-0.42-0.11-0.84-0.23-1.26-0.34c-1.88,7.09-3.75,14.18-5.63,21.28
			c4.21,0,8.12,0,12.49,0C543.91,478.78,542.08,471.93,540.25,465.07z"/>
		<path class="st14" d="M381.88,503.59c-0.18-0.16-0.58-0.52-1-1.09c-1.89-2.58-2.47-7.1-0.06-9.4c3.08-2.93,5.55-1.02,7.72,1.11
			c3.95,3.88,8.72,3.67,13.37,2.57c4.15-0.98,5.17-5.59,1.85-8.52c-2.51-2.21-5.99-3.28-8.76-5.26
			c-4.46-3.18-10.01-5.85-12.73-10.21c-6.2-9.93,0.09-21.89,11.67-23.67c6.95-1.07,13.51-1.22,19.78,2.44
			c3.32,1.94,3.09,4.77,1.7,7.5c-1.44,2.82-3.78,2.87-6.78,1.81c-3.32-1.18-6.99-2.04-10.46-1.9c-1.9,0.07-5.02,2.31-5.23,3.89
			c-0.25,1.9,1.5,4.94,3.28,6.04c4,2.48,8.91,3.52,12.8,6.11c7.79,5.18,10.77,13.97,7.73,22.25c-0.92,2.51-2.17,4.55-3.85,6.18
			c-4.99,4.83-11.73,5.08-14.94,5.17c-1.56,0.04-2.84-0.06-3.66-0.15C391.15,507.89,385.27,506.56,381.88,503.59z"/>
		<path class="st15" d="M668.61,445.21c-12.26,0.09-24.53,0.2-36.79,0.23c-0.68,0-1.35-0.68-2.03-1.04
			c11.36,0.04,22.73,0.05,34.09,0.15C665.45,444.55,667.03,444.97,668.61,445.21z"/>
		<path class="st16" d="M580.01,475.08c0-5.4,0-10.15,0-16.46c1.42-0.47,6.88-2.11,11.6,0.7c0.69,0.41,2.02,1.22,3.06,2.81
			c1.97,2.99,1.92,7.12,0.33,9.69C591.59,477.34,585.38,474.81,580.01,475.08z"/>
		<path class="st17" d="M540.25,465.07c1.83,6.86,3.66,13.72,5.59,20.94c-4.37,0-8.28,0-12.49,0c1.88-7.1,3.75-14.19,5.63-21.28
			C539.4,464.84,539.83,464.95,540.25,465.07z"/>
		<path class="st6" d="M583.7,459.28"/>
	</g>
</g>
<g id="Layer_5" class="st1">
	<g class="st5">
		<path class="st6" d="M754.13,519.61c-0.04,0.92-0.14,3.51-0.73,6.88c0,0-0.19,0.66-0.25,1.33c-2.53,27.97-10.47,54.48-22.32,79.76
			c-14.42,30.76-34.15,57.94-59.3,80.76c-21.15,19.2-44.66,35.01-71.18,46.41c-29,12.46-58.98,19.3-90.47,20.77
			c-43.65,2.03-84.84-7.14-123.88-26.18c-24.72-12.06-46.74-28.12-66.33-47.51c-20.96-20.75-38.02-44.37-50.54-70.96
			c-11.73-24.91-19.64-51.05-22.85-78.65c-2.8-24.12-2.36-47.95,1.17-71.93c3.93-26.67,12.78-51.67,24.43-75.72
			c4.57-9.45,10.24-18.54,16.56-26.92c10.03-13.3,20.49-26.37,31.77-38.61c13.11-14.22,28.46-26.15,45.29-35.63
			c14.64-8.25,29.9-15.59,45.44-21.99c17.66-7.27,31.01-9.76,34.28-10.48c7.35-1.61,13-2.45,20.53-3.56
			c11.87-1.76,20.65-3.02,32.13-3.16c8.8-0.1,15.42,0.5,19.39,0.88c10.14,0.96,23.92,3.04,40.02,7.87c1.24,0.26,3.49,0.94,5.41,2.87
			c1.28,1.28,1.89,2.6,2.29,3.47c2.63,5.71,0.95,11.24-3.25,15.78c-9.82,10.61-14.04,23.1-11.22,37.22
			c2.9,14.54,10.73,25.88,25.06,31.51c8.12,3.19,11.98,10.17,9.82,18.83c-3.14,12.57-0.91,24.36,6.28,34.93
			c12.14,17.87,35.34,23.29,55.02,13.12c7.08-3.66,13.25-3.32,19.45,2.5c7.77,7.29,17.08,10.98,27.45,11.25
			c10.08,0.27,19.47-2.84,27.51-9.16c6.17-4.84,18.57-2.45,20.85,6.43c3.2,12.45,6.38,24.9,9.17,37.44
			c0.22,0.98,0.61,2.94,1.12,5.66c0.11,0.6,1.81,9.73,2.61,16.82C756.54,496.53,754.68,505.98,754.13,519.61z M654.93,425.42
			c-12.77,6.16-26.49,8.56-40.87,5.33c-30.16-6.76-51.43-36.55-45.09-67.47c0.51-2.48-0.23-4.58-2.85-5.82
			c-10.16-4.78-17.92-12.3-23.69-21.78c-8.17-13.43-11.05-28.1-7.13-43.34c2.27-8.82,6.51-17.13,9.81-25.54
			c-86.99-19.48-207.56,16.76-262.64,134.21c-40.51,86.39-29.79,210.98,72.97,290.06c79.26,60.99,197.13,69.34,289.25-1.71
			c89.68-69.16,108.34-180.62,82.53-257.85C701.86,445.67,677.82,443.82,654.93,425.42z"/>
		<path class="st6" d="M567.8,304.76c-0.15-14.13,11.35-26.01,25.67-25.48c13.14,0.49,24.07,10.22,24.74,24.65
			c0.67,14.56-11.07,26.22-25.54,26.09C578.48,329.88,567.51,318.29,567.8,304.76z M584.31,304.69c-0.03,4.31,4.44,9.27,8.35,9.26
			c3.91-0.01,9.06-4.99,9.2-8.9c0.16-4.56-4.05-8.95-8.67-9.03C588.24,295.93,584.35,299.73,584.31,304.69z"/>
		<path class="st6" d="M719.94,382.15c1.14,14.93-13.36,24.58-24.18,24.55c-14.74-0.05-25.56-10.35-25.78-25.65
			c-0.19-13.22,10.89-24.96,25.45-25.14C707.49,355.77,722.32,368.29,719.94,382.15z M694.67,389.88c5.63,0.12,9-2.97,9.15-8.41
			c0.13-4.61-3.88-8.53-8.82-8.62c-4.13-0.08-8.68,3.67-8.9,7.34C685.79,385.5,689.56,389.77,694.67,389.88z"/>
		<path class="st18" d="M627.8,347.62c14.81,0.6,24.97,12.17,24.41,26.76c-0.51,13.32-11.11,24.15-26.53,23.62
			c-12.5-0.43-24.6-10.93-23.88-26.14C602.45,358.1,613.8,347.3,627.8,347.62z M635.75,373.14c0.12-4.43-3.89-8.96-8.13-9.2
			c-4.51-0.25-9.09,4.16-9.35,9.01c-0.23,4.23,4.2,8.65,8.69,8.67C631.69,381.65,635.62,377.85,635.75,373.14z"/>
		<path class="st14" d="M532.85,500.96c1.34-3.67,1.68-7.4,3.7-9.62c6.83-7.52,13.81-15.04,21.6-21.53
			c5.96-4.96,15.89-2.99,21.42,2.58c5.38,5.42,10.84,10.77,16.35,16.06c7.08,6.78,7.37,16.98,0.38,24.08
			c-6.01,6.1-11.92,12.33-18.39,17.91c-6.63,5.71-14.48,5.82-20.98,0.27c-6.66-5.68-13.05-11.78-18.83-18.33
			C535.46,509.36,534.55,504.82,532.85,500.96z M567.6,483.23c-0.87,0.34-1.63,0.41-2.05,0.83c-4.89,4.86-9.82,9.68-14.47,14.76
			c-0.62,0.68-0.28,3.2,0.51,4.07c4.19,4.61,8.59,9.04,13.12,13.32c0.71,0.67,2.99,0.8,3.65,0.2c4.93-4.53,9.74-9.2,14.31-14.09
			c0.76-0.81,0.81-3.45,0.08-4.29c-3.79-4.37-7.91-8.47-11.99-12.59C569.86,484.54,568.65,483.95,567.6,483.23z"/>
		<path class="st6" d="M438.85,433.04c-3.6-1.72-7.81-2.74-10.67-5.29c-6.52-5.82-12.39-12.37-18.49-18.65
			c-5.3-5.47-5.08-18.35,1.62-23.41c5.08-3.84,9.02-9.19,13.5-13.84c9.54-9.91,19.24-9.42,29.23-0.45
			c5.39,4.84,10.45,10.09,15.35,15.44c6.25,6.82,5.33,17.5-1.51,24.03c-5.28,5.04-10.48,10.18-15.42,15.55
			c-3.62,3.94-7.67,6.14-13.09,5.47C439.2,432.28,439.03,432.66,438.85,433.04z M439.82,379.65c-5.6,5.78-10.02,10.72-14.87,15.2
			c-3.15,2.91-2.55,5.21,0.01,7.78c3.58,3.6,7.09,7.28,10.85,10.69c1.03,0.93,3.62,1.84,4.18,1.33
			c5.85-5.36,11.44-11.02,16.75-16.24C451.03,392.09,445.79,386.27,439.82,379.65z"/>
		<path class="st18" d="M440.13,680c-0.41-5.08,1.23-9.36,4.86-12.98c5.65-5.63,11.07-11.48,16.85-16.97
			c6.49-6.17,18.2-5.21,24.35,1.39c4.99,5.35,10.2,10.5,15.54,15.5c7.13,6.67,7.91,17.19,1.18,24.55
			c-5.26,5.76-10.8,11.29-16.5,16.63c-7.59,7.11-18.83,6.75-26.18-0.6c-5.26-5.26-10.74-10.35-15.51-16.02
			c-2.58-3.06-3.89-7.18-5.77-10.83C439.34,680.44,439.73,680.22,440.13,680z M491.09,678.32c-4.36-4.12-9.72-8.88-14.7-14.01
			c-2.42-2.49-4.16-1.92-6.19,0.04c-4.11,3.96-8.35,7.81-12.18,12.03c-0.95,1.05-1.34,4.07-0.58,4.96
			c4.83,5.56,10.06,10.77,15.94,16.91C479.37,691.5,484.7,685.5,491.09,678.32z"/>
		<path class="st19" d="M413.74,595.12c-3.88-1.89-8.1-2.9-10.82-5.49c-7.27-6.9-14.39-14.08-20.6-21.91
			c-4.41-5.57-2.21-15.32,2.99-20.24c4.81-4.55,9.86-8.94,14.16-13.94c6.99-8.12,20.26-10.11,28.59-0.07
			c4.51,5.43,10.08,9.97,15.06,15.01c6.02,6.09,6.41,17.68-0.31,24.36c-5.53,5.51-10.69,11.45-16.66,16.43
			C422.96,591.95,418.4,593,413.74,595.12z M413.68,577.88c5.74-5.36,11.12-10.22,16.23-15.36c0.7-0.7,0.59-3.35-0.16-4.16
			c-4.32-4.7-8.88-9.17-13.51-13.56c-0.78-0.74-2.92-1.36-3.4-0.92c-5.73,5.3-11.26,10.8-16.42,15.85
			C402.57,566.21,407.93,571.84,413.68,577.88z"/>
		<path class="st19" d="M566.49,637.2c2.09-4.55,3.13-9.18,5.88-12.31c5.55-6.32,11.72-12.18,18.2-17.56
			c8.12-6.75,17.29-5.42,24.45,2.39c4.82,5.25,10.15,10.04,15.06,15.22c7.71,8.13,6.6,16.64,0.57,23.7
			c-5.6,6.56-12.15,12.34-18.57,18.14c-6.54,5.9-16.92,5.03-22.98-1.24c-5.4-5.58-11.43-10.59-16.48-16.46
			C569.86,645.88,568.59,641.42,566.49,637.2z M601.48,655.47c5.69-6.61,10.88-12.65,16.72-19.45c-4.81-4.93-10.75-11.01-16.6-17
			c-5.71,5.63-10.44,10.49-15.41,15.08c-2.28,2.1-2.24,3.48-0.06,5.6C590.98,644.44,595.61,649.41,601.48,655.47z"/>
		<path class="st20" d="M644.55,551.18c0.03-4.16,3.44-7.73,7.42-7.77c4.88-0.05,9.2,4.15,9.04,8.8c-0.12,3.61-4.87,8.09-8.61,8.12
			C648.43,560.36,644.51,555.8,644.55,551.18z"/>
		<path class="st21" d="M380.11,364.23c-4.13,0.07-8.5-3.99-8.61-7.99c-0.11-4.22,4.19-8.73,8.28-8.68c4.72,0.06,8.4,3.89,8.39,8.73
			C388.17,360.14,384.08,364.17,380.11,364.23z"/>
		<path class="st12" d="M337.43,491.85c-4.53-0.05-8.3-3.72-8.35-8.12c-0.05-4.64,3.69-8.28,8.5-8.28c4.25-0.01,8.12,3.9,8.14,8.2
			C345.74,488.05,341.84,491.9,337.43,491.85z"/>
		<path class="st22" d="M363.44,611.81c4.86,0.36,7.83,3.69,7.46,8.38c-0.42,5.29-3.67,8.04-9.08,7.69
			c-4.2-0.27-7.64-4.47-7.27-8.89C354.88,614.83,359.03,611.48,363.44,611.81z"/>
		<path class="st22" d="M550.07,671.18c4.66-0.44,8.45,4.59,8.55,8.25c0.13,4.49-3.64,8.14-8.15,8.21
			c-4.37,0.07-8.33-3.76-8.35-8.07C542.11,674.83,545.44,671.31,550.07,671.18z"/>
		<path class="st23" d="M516.23,594.52c0.1,3.66-4.14,7.94-7.95,8.02c-5.03,0.1-8.9-3.53-8.97-8.43c-0.06-3.89,3.85-7.77,7.94-7.88
			C511.87,586.12,516.1,590.02,516.23,594.52z"/>
		<path class="st24" d="M524.45,372.95c-0.07,3.89-4.71,8.52-8.42,8.41c-4.33-0.13-8.13-4.16-7.95-8.45
			c0.2-4.78,4.14-8.66,8.61-8.49C520.91,364.6,524.53,368.57,524.45,372.95z"/>
		<path class="st25" d="M457.08,491.72c-0.07-4.24,3.51-7.93,7.72-7.96c4.13-0.03,8.53,3.96,8.66,7.85
			c0.15,4.53-3.44,8.46-7.73,8.47C460.11,500.1,457.17,497.25,457.08,491.72z"/>
	</g>
</g>
<g id="Layer_6">
	<g>
		<path class="st6" d="M755.33,440.64c-1.32,3.79-2.48,7.65-4.01,11.36c-4.35,10.54-13.53,16.24-22.51,22.17
			c-18.34,12.12-36.6,24.37-54.95,36.48c-15.2,10.03-30.53,19.85-45.72,29.9c-12.2,8.07-24.24,16.36-36.39,24.5
			c-12.59,8.44-25.19,16.88-37.86,25.22c-9.86,6.48-19.85,12.76-29.7,19.25c-0.85,0.56-1.71,2.28-1.47,3.17
			c5.09,18.61-14.75,39.39-35.27,34.4c-0.47-0.12-0.99-0.07-2.13-0.13c-1.16,3.15-2.45,6.51-3.61,9.9
			c-1.56,4.56-3.29,9.09-4.45,13.75c-2.87,11.54-11.39,17.45-21.5,21.56c-16.09,6.54-32.33,4.78-48.32-0.37
			c-28.84-9.29-52.61-26.5-72-49.25c-16.02-18.79-28.25-40.02-31.97-65.06c-2.71-18.28-0.85-35.57,12.7-49.72
			c1.82-1.9,4.37-3.41,6.87-4.3c9.48-3.37,19.07-6.41,28.78-9.62c-1.46-7.82-1.91-15.62,2.31-22.13c3.18-4.92,7.71-9.44,12.6-12.66
			c5.16-3.4,11.43-4.9,18-2.93c1.16,0.35,3.48-0.71,4.23-1.82c8.9-13.15,17.64-26.41,26.35-39.68c5.14-7.83,10.07-15.8,15.3-23.57
			c2.7-4.01,6.18-7.5,11.59-6.74c3.85,0.55,7.6,2.75,7.85,6.77c0.22,3.5-1.21,7.28-2.61,10.64c-1.25,2.99-5.29,5.98-4.8,8.26
			c0.66,3.06,4.41,5.53,6.99,8.1c38.86,38.82,77.75,77.61,116.62,116.42c0.7,0.7,1.22,1.58,2.04,2.66
			c43.64-28.9,86.84-57.52,129.91-86.04c-56.95-56.84-113.48-113.26-170.43-170.11c-6.56,9.85-13.25,19.99-20.05,30.05
			c-5.12,7.59-10.2,15.22-15.66,22.57c-3.02,4.06-8.99,4.55-12.8,1.74c-3.72-2.74-5.04-8.83-2.41-12.81
			c16.47-24.85,32.99-49.67,49.61-74.42c3.11-4.63,6.45-9.16,10.17-13.31c5.72-6.38,13.87-8.36,21.67-10.82c4,0,8,0,12,0
			c0.33,0.31,0.63,0.86,0.98,0.9c12.52,1.34,23.6,6.7,33.99,13.2c10.2,6.38,19.93,13.58,29.49,20.91
			c8.11,6.22,15.98,12.83,23.4,19.85c10.17,9.62,19.85,19.76,29.67,29.74c7.39,7.5,15.16,14.7,21.88,22.77
			c9.31,11.18,18.28,22.72,26.46,34.74c5.59,8.22,9.8,17.43,14.17,26.41c2.17,4.46,3.34,9.41,4.96,14.14
			C755.33,431.32,755.33,435.98,755.33,440.64z M387.24,553.47c-1.33-1.32-2.65-2.64-3.98-3.97l-0.02-0.02
			c-5.77-5.93-11.47-11.93-17.4-17.69c-0.82-0.79-2.8-0.39-4.24-0.55c-6.28,1.95-12.56,3.89-18.29,5.67
			c39.52,39.48,78.83,78.76,118.07,117.97c2.18-6.42,4.51-13.3,6.79-20.02c-20.8-20.9-41.41-41.62-62.03-62.34
			c-4.63-4.68-9.25-9.36-13.88-14.03l-0.02-0.02c-1.66-1.66-3.32-3.31-4.98-4.97L387.24,553.47z M715.15,459.89
			c2.99-2.13,5.71-4.28,8.63-6.11c10.35-6.5,13.2-14.24,10.89-25.91c-2.55-12.82-8.81-23.78-16.36-33.92
			c-9.21-12.37-18.97-24.41-29.28-35.88c-11.64-12.95-23.69-25.63-36.44-37.48c-13.78-12.81-28.26-24.93-43.04-36.59
			c-10.81-8.52-22.61-15.86-36.37-18.94c-8.1-1.81-16.5-2.84-23.03,3.92c-3.79,3.93-6.89,8.56-9.96,13.1
			c-0.54,0.8,0.18,3.14,1.06,4.08c4.43,4.73,9.1,9.24,13.7,13.83C608.17,353.12,661.4,406.24,715.15,459.89z M430.2,447.4
			c-7.69,11.53-15.15,23.04-22.99,34.28c-2.42,3.48-2.58,5.51,0.64,8.7c33.69,33.38,67.2,66.94,100.77,100.44
			c1.27,1.27,2.67,2.41,3.91,3.52c13.28-8.87,26.25-17.52,38.8-25.91C510.61,527.75,470.52,487.69,430.2,447.4z M449.11,673.41
			C407.67,632.14,366.35,591,324.8,549.64c-2.85,6.89-3.23,14.39-2.35,21.98c2.44,20.93,12.17,38.81,24.95,54.88
			c9.13,11.48,19.83,21.64,32.26,29.93c13.98,9.33,28.5,17.14,45.39,19.29C433.25,676.76,441.59,677.1,449.11,673.41z
			 M491.24,628.12c7.21,0,10.75-2.32,12.32-7.6c1.45-4.87-1.17-8.35-4.46-11.59c-13.81-13.62-27.59-27.27-41.3-40.99
			c-23.29-23.3-46.5-46.68-69.78-69.98c-4.08-4.08-11.4-3.96-15.12,0.04c-3.28,3.52-3.05,11.08,0.45,14.52
			c4.25,4.19,8.55,8.34,12.76,12.57c33.49,33.61,66.95,67.25,100.52,100.77C488.07,627.32,490.52,627.78,491.24,628.12z"/>
		<path class="st26" d="M347.78,745.45c0.59,4.76-4.43,9.03-9.4,9.49c-4.94,0.47-10.1-4.81-10.07-9.69
			c0.04-5.12,4.9-10.24,9.65-10.17C343.3,735.16,347.8,739.92,347.78,745.45z"/>
		<path class="st27" d="M324.08,684.22c-5.46,0.05-9.76-4.05-9.87-9.44c-0.12-5.54,4.01-9.55,9.93-9.64
			c5.48-0.08,9.64,3.95,9.77,9.48C334.02,679.2,328.92,684.18,324.08,684.22z"/>
		<path class="st26" d="M356.84,717.43c0.04-6.17,4.21-10.48,10.01-10.36c4.49,0.09,9.56,5.27,9.49,9.69
			c-0.09,5.32-4.57,9.67-9.94,9.66C360.81,726.42,356.8,722.64,356.84,717.43z"/>
		<path class="st14" d="M298.38,710.01c-0.11,5.29-4.67,9.63-10.01,9.51c-4.93-0.11-9.62-5.05-9.56-10.05
			c0.06-4.96,5.19-9.83,10.11-9.49C294.28,700.34,298.35,705.67,298.38,710.01z"/>
		<path class="st14" d="M264.24,746.47c-0.11,5.29-4.67,9.63-10.01,9.51c-4.93-0.11-9.62-5.05-9.56-10.05
			c0.06-4.96,5.19-9.83,10.11-9.49C260.15,736.8,264.21,742.12,264.24,746.47z"/>
		<path class="st28" d="M463.34,371.76c4.61,0.08,9.68,4.04,9.67,7.57c-0.02,6.69-4.57,11.37-10.95,11.24
			c-4.21-0.08-8.68-5.2-8.58-9.83C453.6,374.96,457.23,371.66,463.34,371.76z"/>
		<path class="st29" d="M406.15,572.52c-4.63-4.68-9.25-9.36-13.88-14.03C396.9,563.17,401.52,567.84,406.15,572.52z"/>
		<path class="st29" d="M392.24,558.46c-1.66-1.66-3.32-3.31-4.98-4.97C388.93,555.15,390.59,556.81,392.24,558.46z"/>
		<path class="st29" d="M387.24,553.47c-1.33-1.32-2.65-2.64-3.98-3.97C384.59,550.83,385.92,552.15,387.24,553.47z"/>
	</g>
</g>
<g id="Layer_1">
</g>
</svg>
