<?xml version="1.0" encoding="utf-8"?>
<!-- Generator: Adobe Illustrator 25.2.2, SVG Export Plug-In . SVG Version: 6.00 Build 0)  -->
<svg version="1.1" id="Layer_1" xmlns="http://www.w3.org/2000/svg" xmlns:xlink="http://www.w3.org/1999/xlink" x="0px" y="0px"
	 viewBox="0 0 1000 1000" style="enable-background:new 0 0 1000 1000;" xml:space="preserve">
<style type="text/css">
	.st0{fill:#188841;}
	.st1{fill:#FFFFFF;}
	.st2{fill:#125430;}
	.st3{fill:none;stroke:#125430;stroke-width:3;stroke-miterlimit:10;}
</style>
<circle class="st0" cx="696.33" cy="472.2" r="219"/>
<g>
	<path class="st1" d="M753.29,474.56c0-17.17,13.92-31.09,31.09-31.09v-58.59c-142.58,0-285.17,0-427.75,0
		c-2.5,59.81-5.01,119.63-7.51,179.44c145.09,0,290.18,0,435.26,0v-58.67C767.21,505.65,753.29,491.73,753.29,474.56z"/>
</g>
<g>
	<path class="st2" d="M501.61,231.21c23.24,17.43,35.88,26.31,35.88,38.62c0,8.89-4.44,17.43-19.14,35.54L388.15,462.92
		c-17.09,20.51-17.09,20.51-17.09,40.67v133.28c0,56.73,0,56.73-58.78,56.73c-57.41,0-57.41,0-57.41-56.73V503.59
		c0-19.82,0-19.82-18.45-42.03L108.25,306.74c-15.04-18.11-19.14-24.61-19.14-33.49c0-14.7,10.25-22.56,32.47-40.33
		c27.34-21.87,34.17-24.61,44.09-24.61c12.3,0,19.48,7.86,31.44,22.56l115.85,144.56l115.51-144.22
		c12.99-16.4,19.14-22.56,31.44-22.56C469.83,208.66,475.98,211.73,501.61,231.21z"/>
</g>
<path class="st3" d="M784.38,564.32H303.73V384.88h480.65c0,19.21,0,38.42,0,57.63c-16.76,0.51-30.24,13.85-31,29.83
	c-0.82,17.05,13.07,32.29,31,32.88C784.38,524.92,784.38,544.62,784.38,564.32z"/>
<g>
	<path class="st2" d="M535.66,493.72c-1.81,18.7-17.16,33.06-40.59,33.06c-17.98,0-30.69-6.49-35.8-9.89
		c-3.46-2.16-4.62-4.33-4.62-8.5v-81.35c0-13.13,0-13.13,13.53-13.13c13.69,0,13.69,0,13.69,13.13v15.84
		c4.45-1.85,11.55-3.09,16.99-3.09c22.11,0,34.81,12.98,36.79,31.83C536.15,477.5,536.15,488.01,535.66,493.72z M508.6,476.42
		c-0.5-7.73-4.62-12.36-13.03-12.36c-5.77,0-11.38,1.85-13.69,3.24v30.59c2.31,1.7,7.92,3.86,12.54,3.86
		c8.58,0,13.69-4.64,14.19-12.67C508.77,485.53,508.77,479.2,508.6,476.42z"/>
	<path class="st2" d="M631.93,472.01c0.66,6.26,0.66,16.3,0,22.56c-1.81,18.7-18.48,32.21-41.08,32.21
		c-22.6,0-39.26-13.52-41.08-32.21c-0.66-6.26-0.66-16.3,0-22.56c1.81-18.7,18.48-32.22,41.08-32.22
		C613.45,439.8,630.12,453.32,631.93,472.01z M576.66,476.65c-0.41,4.48-0.41,8.81,0,13.29c0.66,7.42,5.36,12.44,14.19,12.44
		c8.83,0,13.53-5.02,14.19-12.44c0.41-4.48,0.41-8.81,0-13.29c-0.66-7.42-5.36-12.44-14.19-12.44
		C582.02,464.21,577.32,469.23,576.66,476.65z"/>
	<path class="st2" d="M717.06,447.37c5.77,4.64,7.59,6.64,7.59,8.5c0,1.7-0.5,2.63-3.96,6.33l-19.63,21.17l20.13,21.48
		c2.64,2.94,3.96,4.48,3.96,6.03c0,2.01-0.66,3.09-7.26,8.65c-6.76,5.72-8.25,6.64-10.56,6.64c-2.14,0-3.46-1.08-6.76-4.48
		l-17.65-19l-17.49,19c-2.31,2.63-4.29,4.48-6.27,4.48c-2.97,0-4.62-1.39-9.9-5.87c-7.42-6.33-8.25-7.42-8.25-9.27
		c0-2.01,1.65-3.55,3.96-6.18l19.8-21.48L645.3,462.2c-2.15-2.32-4.12-4.02-4.12-6.03c0-2.63,1.16-3.24,7.59-8.81
		c6.76-5.72,8.08-6.49,10.39-6.49c1.98,0,3.13,0.93,6.43,4.48l17.32,18.7l17.32-18.7c1.98-2.16,3.79-4.48,6.43-4.48
		C709.48,440.88,711.29,442.73,717.06,447.37z"/>
</g>
<rect x="680.77" y="510.09" class="st0" width="5.03" height="13.91"/>
<rect x="680.77" y="530.96" class="st0" width="5.03" height="13.91"/>
<rect x="680.77" y="551.84" class="st0" width="5.03" height="8.86"/>
<rect x="680.77" y="397.46" class="st0" width="5.03" height="13.91"/>
<rect x="680.77" y="388.5" class="st0" width="5.03" height="2"/>
<rect x="680.77" y="418.34" class="st0" width="5.03" height="13.91"/>
<rect x="680.77" y="439.21" class="st0" width="5.03" height="13.91"/>
</svg>
