<svg id="Layer_1" data-name="Layer 1" xmlns="http://www.w3.org/2000/svg" viewBox="0 0 409.6 409.6"><defs><style>.cls-1{fill:#fff;}</style></defs><path d="M972.16,744.6H948.21a24,24,0,0,0-3.09-.66c-28.53-1.94-55.65-9.29-80.56-23.24-67.18-37.63-103.73-95.13-108.47-172a187.31,187.31,0,0,1,23.74-104.45c37.53-67,95-103.46,171.77-108.2,36.87-2.27,72,5.85,104.46,23.68q86.49,47.58,105.32,144.86c1.49,7.79,2.17,15.74,3.22,23.61v24a27.52,27.52,0,0,0-.68,3.44c-2,28.52-9.53,55.54-23.33,80.53-31.8,57.58-80.09,92.84-144.79,105.27C988,742.87,980,743.54,972.16,744.6ZM1139,540.11c0-98.66-80-178.72-178.7-178.85s-179.05,80.15-179,178.93S861.34,718.9,960,719,1139.08,638.89,1139,540.11Z" transform="translate(-755 -335)"/><path class="cls-1" d="M1164.6,528.17c-1-7.87-1.73-15.82-3.22-23.61q-18.64-97.11-105.32-144.86c-32.42-17.83-67.59-25.95-104.46-23.68-76.73,4.74-134.24,41.16-171.77,108.2a187.31,187.31,0,0,0-23.74,104.45c4.74,76.9,41.29,134.4,108.47,172,24.91,13.95,52,21.3,80.56,23.24a24,24,0,0,1,3.09.66H755V335h409.6Z" transform="translate(-755 -335)"/><path class="cls-1" d="M972.16,744.6c7.88-1.06,15.84-1.73,23.64-3.23,64.7-12.43,113-47.69,144.79-105.27,13.8-25,21.34-52,23.33-80.53a27.52,27.52,0,0,1,.68-3.44V744.6Z" transform="translate(-755 -335)"/><path class="cls-1" d="M1139,540.11c0,98.78-80.28,179.07-179,178.93s-178.66-80.19-178.7-178.85,80.29-179.07,179-178.93S1139,441.45,1139,540.11Zm-268.1-25.49a25.53,25.53,0,1,0,25.33,25.92A25.73,25.73,0,0,0,870.94,514.62ZM985.7,540a25.52,25.52,0,1,0-25.57,25.67A25.71,25.71,0,0,0,985.7,540Zm89.44,0a25.53,25.53,0,1,0-25.54,25.71A25.73,25.73,0,0,0,1075.14,540Z" transform="translate(-755 -335)"/><path d="M870.94,514.62a25.53,25.53,0,1,1-25.71,25.14A25.72,25.72,0,0,1,870.94,514.62Z" transform="translate(-755 -335)"/><path d="M985.7,540a25.52,25.52,0,1,1-25.46-25.38A25.72,25.72,0,0,1,985.7,540Z" transform="translate(-755 -335)"/><path d="M1075.14,540a25.53,25.53,0,1,1-25.51-25.34A25.72,25.72,0,0,1,1075.14,540Z" transform="translate(-755 -335)"/></svg>