<svg id="Layer_1" data-name="Layer 1" xmlns="http://www.w3.org/2000/svg" viewBox="0 0 384 384"><defs><style>.cls-1{fill:#fff;}</style></defs><path class="cls-1" d="M768,686.25v-22.5H914.15c1.59-28,9.36-53.89,21.06-78.74a10.38,10.38,0,0,0,.78-4.33q.06-43.68,0-87.36c0-1.08-.14-2.16-.24-3.51H931.1L768,489.75V348h44.25v43.94h166.5V348H1152V606c-.26-1.07-.61-2.12-.77-3.2-2.68-17.72-14.24-29.28-31.9-31.1-17.45-1.79-33.49,3.59-49.08,10.35a4.18,4.18,0,0,0,0,1.06c.34.81.71,1.6,1.08,2.38,10.4,22.06,17.74,45,20.13,69.39,2.71,27.56-5.51,51.47-24.44,71.7-1.68,1.8-3.35,3.61-5,5.42h-51.75a8.61,8.61,0,0,1,1.71-.63c34.69-5.13,59.68-33.41,58-68.4a164.09,164.09,0,0,0-33.8-92.9,59,59,0,0,0-14-12.84c-12.27-8.25-25.06-8.14-37.68-.35a60,60,0,0,0-18,17.79c-17,25-26.51,52.71-30,82.57a66.76,66.76,0,0,0,41.27,69.58c5.84,2.33,12.15,3.49,18.24,5.18q-112.32,0-224.63,0a16.23,16.23,0,0,1-3.37-.72c1.62,0,3.24-.13,4.86-.13h171c-13.65-12.85-22.49-27.47-27-44.86Zm.53-219.12c1.05.12,1.42.2,1.79.2q83.58,0,167.17.06a3.7,3.7,0,0,0,3.92-2.52c7.41-15.82,14.94-31.57,22.42-47.36a30.07,30.07,0,0,0,1-2.89h-2.31q-78,0-155.92-.06c-2.35,0-3.55.95-4.75,2.75-9.69,14.55-19.47,29-29.21,43.55C771.35,462.8,770.08,464.76,768.53,467.13Zm190.18,82.93c16.66-16.78,35.71-24.34,58.74-18.93V490H958.71Zm54.47-82.92c-8.37-16.22-16.53-32.05-25-48.44l-23,48.44Z" transform="translate(-768 -348)"/><path d="M768,489.75l163.1.06h4.67c.1,1.35.24,2.43.24,3.51q0,43.68,0,87.36a10.38,10.38,0,0,1-.78,4.33c-11.7,24.85-19.47,50.74-21.06,78.74H768Z" transform="translate(-768 -348)"/><path d="M996,732c-6.09-1.69-12.4-2.85-18.24-5.18a66.76,66.76,0,0,1-41.27-69.58c3.51-29.86,13-57.6,30-82.57a60,60,0,0,1,18-17.79c12.62-7.79,25.41-7.9,37.68.35a59,59,0,0,1,14,12.84A164.09,164.09,0,0,1,1070,663c1.65,35-23.34,63.27-58,68.4a8.61,8.61,0,0,0-1.71.63Z" transform="translate(-768 -348)"/><path d="M1062,732c1.68-1.81,3.35-3.62,5-5.42,18.93-20.23,27.15-44.14,24.44-71.7-2.39-24.37-9.73-47.33-20.13-69.39-.37-.78-.74-1.57-1.08-2.38a4.18,4.18,0,0,1,0-1.06c15.59-6.76,31.63-12.14,49.08-10.35,17.66,1.82,29.22,13.38,31.9,31.1.16,1.08.51,2.13.77,3.2v15a8.53,8.53,0,0,0-.63,1.7c-4.1,29.8-15.58,56.66-32.79,81.12a65,65,0,0,1-36,25.47c-3.8,1.1-7.71,1.82-11.57,2.71Z" transform="translate(-768 -348)"/><path d="M978.75,348v43.94H812.25V348Z" transform="translate(-768 -348)"/><path d="M768,686.25H916.91c4.5,17.39,13.34,32,27,44.86h-171c-1.62,0-3.24.08-4.86.13Z" transform="translate(-768 -348)"/><path class="cls-1" d="M1071,732c3.86-.89,7.77-1.61,11.57-2.71a65,65,0,0,0,36-25.47c17.21-24.46,28.69-51.32,32.79-81.12a8.53,8.53,0,0,1,.63-1.7V732Z" transform="translate(-768 -348)"/><path d="M768.53,467.13c1.55-2.37,2.82-4.33,4.12-6.27,9.74-14.51,19.52-29,29.21-43.55,1.2-1.8,2.4-2.76,4.75-2.75q78,.1,155.92.06h2.31a30.07,30.07,0,0,1-1,2.89c-7.48,15.79-15,31.54-22.42,47.36a3.7,3.7,0,0,1-3.92,2.52q-83.6-.09-167.17-.06C770,467.33,769.58,467.25,768.53,467.13Z" transform="translate(-768 -348)"/><path d="M958.71,550.06V490h58.74v41.13C994.42,525.72,975.37,533.28,958.71,550.06Z" transform="translate(-768 -348)"/><path d="M1013.18,467.14h-48l23-48.44C996.65,435.09,1004.81,450.92,1013.18,467.14Z" transform="translate(-768 -348)"/></svg>