<?xml version="1.0" encoding="utf-8"?>
<!-- Generator: Adobe Illustrator 25.2.2, SVG Export Plug-In . SVG Version: 6.00 Build 0)  -->
<svg version="1.1" xmlns="http://www.w3.org/2000/svg" xmlns:xlink="http://www.w3.org/1999/xlink" x="0px" y="0px"
	 viewBox="0 0 1000 1000" style="enable-background:new 0 0 1000 1000;" xml:space="preserve">
<style type="text/css">
	.st0{fill:#EEFCF3;}
	.st1{fill:#198842;}
	.st2{fill:#1A8842;}
	.st3{fill:#1C8943;}
	.st4{fill:#1B8943;}
	.st5{fill:#1C8942;}
</style>
<g id="Layer_2">
	<rect class="st0" width="1000" height="1000"/>
</g>
<g id="Layer_1">
	<path class="st1" d="M279.71,771.5c-3.11-0.31-10.09-1.07-16.84-5.75c-20.65-14.31-27.72-57.83-10.05-74.41
		c10.93-10.26,15.47-23.65,14.42-38.78c-1.87-26.87-4.82-53.73-5.21-80.62c-0.46-31.21,0.8-62.49,2.38-93.68
		c1.01-19.84,3.97-39.59,6.06-59.36c-3.85-1.72-7.4-3.16-10.81-4.85c-24.69-12.27-28.81-47-6.99-65.22
		c8.66-7.23,18.79-10.29,29.78-9.25c10.31,0.97,16.76-2.11,22.88-11.28c18.72-28.03,44.06-49.46,72.75-66.87
		c7.89-4.79,16.38-8.6,24.74-12.58c4.82-2.3,9.38-0.43,11.38,4.09c1.55,3.51-1.27,8.34-5.59,10.36
		c-15.23,7.12-30.23,14.74-43.27,25.52c-9.95,8.22-20,16.39-29.12,25.48c-7.34,7.31-13.35,15.95-20.5,24.68
		c123.03,0,245.28,0,369.03,0c-8.86-10.12-16.68-19.9-25.38-28.83c-14.47-14.86-30.81-27.58-49.05-37.46
		c-21.51-11.65-44.17-20.06-68.42-24.74c-19.22-3.71-38.43-4.69-57.7-3.57c-12.98,0.76-25.84,3.98-38.71,6.33
		c-5.34,0.98-10.23-1.27-11.22-5.77c-0.9-4.09,2.69-8.53,7.83-9.44c6.1-1.08,10.86-5.09,36.71-6.41
		c12.37-0.63,19.23-0.64,24.35-0.51c8.4,0.22,15.97,0.96,16.75,1.05c0.08,0.01,0.7,0.08,1.55,0.16c0.92,0.09,1.59,0.14,1.62,0.14
		c31.81,2.44,63.46,14.7,63.46,14.7c19.28,7.35,37.52,16.83,53.73,29.63c12.2,9.64,24.18,19.71,35.21,30.65
		c8.04,7.97,14.42,17.63,21.45,26.61c3.64,4.66,6.78,9.75,14.18,8.02c2.68-0.63,5.64-0.13,8.47-0.1
		c18.29,0.2,31.78,7.97,38.97,25.18c5.31,12.72,3.84,24.92-3.73,36.41c-5.89,8.93-14.11,14.5-25.32,16.77
		c1.81,16.36,4.2,32.34,5.2,48.4c1.83,29.37,3.54,58.79,3.95,88.21c0.28,20.01-1.65,40.05-2.8,60.07
		c-0.69,11.99-1.51,23.98-2.78,35.92c-1.75,16.44,3.38,30.44,14.72,42.02c11.71,11.97,16.23,25.97,12.71,42.13
		c-1.81,8.29-5.2,15.32-10.15,21.02c-1.61,1.85-8.45,9.42-19.8,13.12c0,0-4.01,1.31-8.32,1.82c-17.17,2.05-251.85,1.42-292.26,1.3
		c-1.34-1.81-3.04-3.45-3.96-5.45c-2.05-4.45,1.71-9.82,7.14-10.45c1.4-0.16,2.83-0.02,4.25-0.02c91.88,0,183.75-0.09,275.63,0.13
		c10.26,0.02,18.7-3.43,25.7-10.19c8.5-8.21,10.01-25.52,3.23-35.81c-4.21-6.39-9.77-11.88-14.17-18.17
		c-9.78-13.99-11.62-29.84-9.96-46.37c1.07-10.63,2.7-21.24,3-31.89c0.95-33.05,2.42-66.13,1.69-99.16
		c-0.53-24.27-4.22-48.46-6.45-72.7c-0.58-6.29-1.24-12.59-1.34-18.89c-0.06-3.69-1.57-4.69-4.81-4.35
		c-0.53,0.05-1.06,0.01-1.59,0.01c-138.79,0-277.57,0.04-416.36-0.15c-5.45-0.01-7.06,2.36-7.45,6.71
		c-1.38,15.36-2.47,30.76-3.96,46.11c-3.67,37.93-4.34,75.93-3.02,113.98c0.44,12.56,0.74,25.13,1.69,37.65
		c0.91,12.06,3.74,24.07,3.59,36.08c-0.19,14.83-5.32,28.61-15.8,39.67c-7.11,7.5-12.81,15.29-13.04,26.31
		c-0.33,15.35,12.3,31.02,29.37,31.01c31.33-0.02,62.67,0.01,94,0.02c4.96,0,9.92,0.13,14.87-0.04c4.89-0.16,9.22,0.89,11.04,5.86
		c1.79,4.87-1.72,7.6-5.16,10.11C374.96,773.1,320.79,775.54,279.71,771.5z M499.45,403.16c74.52,0,149.04,0.04,223.56-0.04
		c13.34-0.01,23.95-12.87,23.15-24.84c-0.97-14.48-11.66-23.51-27.86-23.52c-146.38-0.02-292.77-0.07-439.15,0.07
		c-14.61,0.01-25.86,9.97-25.16,25.35c0.6,13.05,9.45,22.66,21.38,22.73C350.06,403.37,424.76,403.15,499.45,403.16z"/>
	<path class="st2" d="M606.82,586.93c-1.14,59.91-46.41,104.7-102.15,106.88c-63.79,2.5-111.44-47.37-111.19-106.52
		c0.25-58.53,45.36-105.06,104.38-106.29C557.42,479.76,605.1,526.24,606.82,586.93z M499.96,678.32
		c51.12,0.15,91.83-40.98,91.04-91.81c-0.78-50.13-39.19-90.21-91.99-89.9c-50.07,0.29-90.15,39.38-90.05,91.44
		C409.06,637.97,449.11,678.35,499.96,678.32z"/>
	<path class="st3" d="M611.89,301.7c10.92-0.21,23.58,8.46,27.68,18.96c1.88,4.81-0.88,7.72-4.57,9.65
		c-3.57,1.87-6.88,0.8-8.83-2.92c-3.19-6.09-7.99-9.58-14.97-9.88c-6.62-0.29-9.62-2.75-9.68-7.84
		C601.47,304.91,605.48,301.82,611.89,301.7z"/>
	<path class="st4" d="M389.93,302.09c8.62-0.58,13.54,4.32,10.18,10.66c-1.19,2.24-4.69,4.51-7.17,4.56
		c-7.61,0.13-13.02,3.25-16.57,9.7c-2.52,4.57-6.32,4.74-10.14,2.76c-3.65-1.9-4.78-5.35-2.98-9.39
		C368.39,308.76,377.39,302.83,389.93,302.09z"/>
	<path class="st5" d="M542.93,263.08c11.45-0.32,24.45,8.27,28.6,18.54c1.33,3.28-0.49,8.36-3.81,9.78c-3.8,1.63-7.81,1.15-9.72-2.6
		c-3.73-7.31-9.55-9.89-17.34-10.03c-4.44-0.08-7.04-3.11-7.14-7.53c-0.09-3.82,1.2-6.97,5.86-7.29
		C540.73,263.85,542.07,263.29,542.93,263.08z"/>
	<path class="st4" d="M462.9,259.69c4.07-1.11,7.6,1.2,9.25,5.07c0.86,2.02-0.18,5.49-1.52,7.57c-0.96,1.49-3.79,2.3-5.86,2.48
		c-6.57,0.56-12.11,2.04-15.61,8.63c-1.29,2.43-4.99,4.51-7.83,4.88c-1.92,0.25-4.6-2.46-6.3-4.41c-0.86-0.99-0.8-3.39-0.29-4.85
		C438.63,267.68,449.98,259.79,462.9,259.69z"/>
	<path class="st2" d="M491.71,328.32c-5.73,0.01-8.77-2.43-9.01-7.24c-0.23-4.43,3.18-8.02,8.35-8.11
		c7.26-0.13,11.01-4.93,14.17-10.3c2.66-4.53,5.65-6.2,10.08-4.59c3.55,1.29,5.31,5.46,3.96,9.96
		C516.15,318.41,503.49,328.42,491.71,328.32z"/>
	<path class="st2" d="M500.11,587.59c-18.24,0.42-33.54-19.19-24.55-38.35c4.65-9.91,9.79-19.63,15.33-29.08
		c3.83-6.53,14.23-6.84,17.94-0.4c6.12,10.63,12.23,21.43,16.67,32.81C532.3,570.07,517.52,587.28,500.11,587.59z M500.71,535.03
		c-0.56,0.07-1.12,0.14-1.68,0.2c-3.15,6.58-6.31,13.16-9.45,19.75c-2.2,4.62-1.27,10.71,2.12,13.94
		c3.63,3.46,10.51,4.12,14.72,1.41c4.21-2.71,6.58-8.29,4.56-13.34C507.96,549.51,504.17,542.34,500.71,535.03z"/>
	<path class="st2" d="M564.26,596.86c-2.02,10.16-2.99,20.69-6.33,30.4c-3.74,10.87-15.92,15.05-28.44,12.87
		c-9.49-1.65-18.18-12.45-19.06-22.23c-1.09-12.05,5.17-19.91,14.31-26.12c6.81-4.63,13.76-9.08,20.92-13.12
		c7.87-4.45,16.58,0.78,17.14,9.98c0.16,2.64,0.02,5.3,0.02,7.96C563.31,596.68,563.79,596.77,564.26,596.86z M547.98,597.17
		c-0.78-0.36-1.56-0.72-2.34-1.07c-5.48,3.95-10.96,7.9-16.44,11.86c-3.89,2.81-4.07,6.53-2.75,10.73c1.27,4.03,4.37,6.61,8.09,6.25
		c3.49-0.35,9.04-2.13,9.73-4.45C546.49,613,546.88,604.98,547.98,597.17z"/>
	<path class="st2" d="M437.28,599.51c0-3.35,0.06-6.71-0.01-10.06c-0.22-9.81,7.69-15.63,17.45-10.36
		c8.14,4.39,16.07,9.36,23.47,14.91c8.85,6.64,14.28,17.12,9.73,29.9c-3.44,9.68-12.82,17.15-24.02,17.1
		c-9.3-0.04-21.32-6.45-23.49-17.06c-1.64-8.03-2.75-16.17-4.09-24.26C436.64,599.62,436.96,599.57,437.28,599.51z M453.89,595.83
		c-0.6,0.42-1.2,0.84-1.8,1.25c0.67,6.65,1.23,13.31,2.05,19.93c0.61,4.99,3.82,8.29,8.64,7.89c3.44-0.28,7.58-2.05,9.8-4.58
		c2.98-3.39,2.38-8.3-1.2-11.35C465.84,604.26,459.75,600.18,453.89,595.83z"/>
</g>
</svg>
