<svg id="Layer_1" data-name="Layer 1" xmlns="http://www.w3.org/2000/svg" viewBox="0 0 750.76 745"><defs><style>.cls-1{fill:#125430;}</style></defs><path class="cls-1" d="M564.94,127.6c-172.33,0-312,139.71-312,312A310.58,310.58,0,0,0,291,589.15L150.8,729.37A83.9,83.9,0,0,0,269.46,848l138.6-138.6a310.59,310.59,0,0,0,156.88,42.25c172.35,0,312-139.7,312-312S737.29,127.6,564.94,127.6Zm0,545.33c-128.84,0-233.28-104.45-233.28-233.29S436.1,206.33,564.94,206.33,798.25,310.8,798.25,439.64,693.8,672.93,564.94,672.93Z" transform="translate(-126.22 -127.6)"/></svg>