<?xml version="1.0" encoding="utf-8"?>
<!-- Generator: Adobe Illustrator 25.2.2, SVG Export Plug-In . SVG Version: 6.00 Build 0)  -->
<svg version="1.1" id="Layer_1" xmlns="http://www.w3.org/2000/svg" xmlns:xlink="http://www.w3.org/1999/xlink" x="0px" y="0px"
	 viewBox="0 0 512 512" style="enable-background:new 0 0 512 512;" xml:space="preserve">
<style type="text/css">
	.st0{fill:#125430;}
</style>
<circle class="st0" cx="374.7" cy="421.3" r="53.3"/>
<circle class="st0" cx="190.5" cy="421.5" r="53.3"/>
<path class="st0" d="M484.9,136.6c-0.1,0.6-0.3,1.6-0.5,2.9c-2.6,14.1-4.6,24.4-4.8,25.7c-8.8,44-17.7,87.9-26.3,131.9
	c-3.2,16.4-9.8,30.5-23.9,40.4c-9.4,6.7-19.6,11-31.1,11c-71.9,0.2-143.7,0.2-215.6,0c-6.8-0.1-13.6-1.3-20-3.6
	c-17.3-6.1-29.5-18-34.4-36c-2.3-8.4-3.1-17.1-4.5-25.7c-2.1-13.3-4.3-26.5-6.3-39.8c-2.2-15.3-4.2-30.5-6.4-45.8
	c-3.1-21.1-6.5-42.1-9.6-63.2c-2.5-16.7-5-33.5-7.3-50.2c-0.6-4.3-2.7-6.1-7.2-6c-12.4,0.2-24.8,0.4-37.2-0.1c-0.3,0-0.7,0-1,0
	c-7.7-0.3-11.2-2.8-13.1-4c-2.2-1.4-7.5-4.6-9.5-11.1c-0.2-0.7-0.4-1.4-0.5-2l-0.1-0.3c-0.1-1-0.2-2-0.2-3v-0.1c0-0.2,0-0.5,0-0.8
	c0.1-2.1,0.6-3.7,0.8-4.4c1.8-6.2,6.3-9.6,8-10.8c3.9-2.8,8.1-4.1,12.3-4.6c2.1-0.2,4.1-0.2,6.2-0.2c13.2,0.6,26.3,0.1,39.4,0.6
	c11.8,0.4,21.7,5.9,29.9,14c8.3,8.2,11.6,18.9,13.1,30.3c1.4,9.9,2.9,19.8,4.4,29.7h4c53.4,0,106.7,0,160.1,0c0,0,7.6-0.9,160.1,0.1
	c1.1,0,4,0,7.4,1.2c2.3,0.8,3.8,1.7,4.4,2c5.8,3.6,8.1,9.3,8.5,10.2C485.8,130.1,485.3,134.6,484.9,136.6z"/>
</svg>
