<svg id="Layer_1" data-name="Layer 1" xmlns="http://www.w3.org/2000/svg" viewBox="0 0 384 384"><defs><style>.cls-1{fill:#fff;}</style></defs><path d="M1033.5,348h6.75a18.54,18.54,0,0,1,3.74,2.32c8.24,8.34,16.39,16.76,24,24.57l-31.57,31.73c-2-2.19-4.23-4.75-6.63-7.1-4.92-4.83-11.92-4.95-16.41-.4s-4.38,11.29.38,16.12q15.54,15.75,31.29,31.28c4.79,4.71,11.7,4.65,16.12.16s4.27-11.33-.37-16.15c-2.4-2.5-5-4.85-7.22-7l31.76-31.78c7.9,7.83,16.26,15.72,24.07,24.12,1.84,2,2.46,5.69,2.52,8.62.08,3.82-1,7.66-1.5,11.49q-7,48.57-13.86,97.16a18,18,0,0,1-5.26,10.82q-67.41,67.27-134.75,134.62a52.37,52.37,0,0,1-9.28,7.53c-16.8,10.35-37.13,7.39-52-7.45-35.91-35.85-71.67-71.85-107.72-107.56C778.37,562,770,552.63,768,539.25v-10.5a5.51,5.51,0,0,0,.62-1.3,40.34,40.34,0,0,1,11.67-22.56q68.46-68.5,137.05-136.9a14.86,14.86,0,0,1,7.76-4c28.39-4.24,56.83-8.17,85.24-12.26C1018.08,350.61,1025.78,349.25,1033.5,348ZM910.08,614.36c5.3,0,9-3,11-9q12.87-38.49,25.68-77,13.2-39.56,26.43-79.11c1.3-3.87,1.59-7.59-.71-11.13-2.44-3.78-6-5.7-10.48-5.21-5.44.6-8.52,4-10.21,9.12Q932,501.87,912,561.64c-4.14,12.42-8.35,24.82-12.41,37.26C896.94,607,902,614.4,910.08,614.36Zm-37.37-57a33.73,33.73,0,1,0-33.52-34A33.78,33.78,0,0,0,872.71,557.33Zm93.76-33.52a33.7,33.7,0,1,0,33.33-33.94A33.58,33.58,0,0,0,966.47,523.81Z" transform="translate(-768 -348)"/><path class="cls-1" d="M768,539.25c2,13.38,10.37,22.72,19.58,31.84,36,35.71,71.81,71.71,107.72,107.56,14.85,14.84,35.18,17.8,52,7.45a52.37,52.37,0,0,0,9.28-7.53Q1024,611.31,1091.31,544a18,18,0,0,0,5.26-10.82q6.81-48.6,13.86-97.16c.55-3.83,1.58-7.67,1.5-11.49-.06-2.93-.68-6.63-2.52-8.62-7.81-8.4-16.17-16.29-24.07-24.12l-31.76,31.78c2.24,2.16,4.82,4.51,7.22,7,4.64,4.82,4.75,11.71.37,16.15s-11.33,4.55-16.12-.16q-15.77-15.52-31.29-31.28c-4.76-4.83-4.8-11.65-.38-16.12s11.49-4.43,16.41.4c2.4,2.35,4.59,4.91,6.63,7.1L1068,374.89c-7.61-7.81-15.76-16.23-24-24.57a18.54,18.54,0,0,0-3.74-2.32H1098c-1.36.82-3,1.4-4,2.49-8.21,8.16-16.33,16.41-24.3,24.47l15.61,15.61c7.89-7.84,16.23-15.72,24.07-24.06,5.1-5.43,3.29-13.51-3.23-17.16-.72-.41-1.4-.9-2.1-1.35h48V491.25c-7.24-10-14.49-20-22.35-30.88-3.68,25.77-7.27,50.21-10.61,74.69-1.21,8.93-4,16.91-10.52,23.41q-68.93,68.88-137.86,137.75c-14.4,14.32-32.08,20.13-52.33,17.92-2.15-.24-4.29-.56-7.14-.93,4.84,7,10.44,12,17.62,15,3.76,1.58,7.79,2.53,11.69,3.76H768Z" transform="translate(-768 -348)"/><path d="M940.5,732c-3.9-1.23-7.93-2.18-11.69-3.76-7.18-3-12.78-8-17.62-15,2.85.37,5,.69,7.14.93,20.25,2.21,37.93-3.6,52.33-17.92q69.09-68.72,137.86-137.75c6.51-6.5,9.31-14.48,10.52-23.41,3.34-24.48,6.93-48.92,10.61-74.69,7.86,10.87,15.11,20.87,22.35,30.88V696a9.7,9.7,0,0,0-.66,1.69c-2.76,14.54-11,24.86-24.39,30.89-3.47,1.55-7.29,2.3-11,3.42Z" transform="translate(-768 -348)"/><path class="cls-1" d="M1033.5,348c-7.72,1.25-15.42,2.61-23.16,3.73-28.41,4.09-56.85,8-85.24,12.26a14.86,14.86,0,0,0-7.76,4q-68.64,68.33-137.05,136.9a40.34,40.34,0,0,0-11.67,22.56,5.51,5.51,0,0,1-.62,1.3V348Z" transform="translate(-768 -348)"/><path d="M1104,348c.7.45,1.38.94,2.1,1.35,6.52,3.65,8.33,11.73,3.23,17.16-7.84,8.34-16.18,16.22-24.07,24.06L1069.65,375c8-8.06,16.09-16.31,24.3-24.47,1.1-1.09,2.69-1.67,4-2.49Z" transform="translate(-768 -348)"/><path class="cls-1" d="M1116,732c3.66-1.12,7.48-1.87,11-3.42,13.43-6,21.63-16.35,24.39-30.89A9.7,9.7,0,0,1,1152,696v36Z" transform="translate(-768 -348)"/><path class="cls-1" d="M910.08,614.36c-8,0-13.14-7.34-10.5-15.46,4.06-12.44,8.27-24.84,12.41-37.26q19.92-59.78,39.81-119.58c1.69-5.11,4.77-8.52,10.21-9.12,4.47-.49,8,1.43,10.48,5.21,2.3,3.54,2,7.26.71,11.13q-13.28,39.54-26.43,79.11-12.84,38.5-25.68,77C919.09,611.37,915.38,614.33,910.08,614.36Z" transform="translate(-768 -348)"/><path class="cls-1" d="M872.71,557.33a33.73,33.73,0,0,1,.33-67.46,33.73,33.73,0,1,1-.33,67.46Zm-.12-22.51A11.28,11.28,0,0,0,884.14,524,11.52,11.52,0,0,0,873,512.37a11.35,11.35,0,0,0-11.28,11.08A11.13,11.13,0,0,0,872.59,534.82Z" transform="translate(-768 -348)"/><path class="cls-1" d="M966.47,523.81a33.7,33.7,0,1,1,34,33.51A33.82,33.82,0,0,1,966.47,523.81Zm33.41,11a11.19,11.19,0,0,0,11.47-10.9,11.19,11.19,0,1,0-22.38-.55A11.15,11.15,0,0,0,999.88,534.82Z" transform="translate(-768 -348)"/><path d="M872.59,534.82a11.13,11.13,0,0,1-10.9-11.37A11.35,11.35,0,0,1,873,512.37,11.52,11.52,0,0,1,884.14,524,11.28,11.28,0,0,1,872.59,534.82Z" transform="translate(-768 -348)"/><path d="M999.88,534.82A11.15,11.15,0,0,1,989,523.37a11.19,11.19,0,1,1,22.38.55A11.19,11.19,0,0,1,999.88,534.82Z" transform="translate(-768 -348)"/></svg>