<svg id="Layer_1" data-name="Layer 1" xmlns="http://www.w3.org/2000/svg" viewBox="0 0 409.6 409.6"><defs><style>.cls-1{fill:#fefefe;}.cls-2{fill:#fea01b;}.cls-3{fill:#fecb74;}.cls-4{fill:#feb01b;}.cls-5{fill:#fec532;}.cls-6{fill:#fece90;}.cls-7{fill:#fec851;}.cls-8{fill:#feab15;}.cls-9{fill:#fecd82;}.cls-10{fill:#feab23;}.cls-11{fill:#feb228;}.cls-12{fill:#fea31d;}.cls-13{fill:#fec74a;}.cls-14{fill:#fecc78;}.cls-15{fill:#fe9b17;}.cls-16{fill:#fec741;}.cls-17{fill:#feb82d;}.cls-18{fill:#feb738;}.cls-19{fill:#fea925;}.cls-20{fill:#feaf2c;}.cls-21{fill:#fec52d;}.cls-22{fill:#fec637;}.cls-23{fill:#fe9710;}.cls-24{fill:#fe9e12;}.cls-25{fill:#feb942;}.cls-26{fill:#fea310;}.cls-27{fill:#feca6b;}.cls-28{fill:#fec963;}.cls-29{fill:#fec63d;}.cls-30{fill:#fea719;}</style></defs><path class="cls-1" d="M704.6,462.67V704.6H295V295H704.6V454.69l-1.34-1.95c-2-7.73-8-10.48-15-11.57-8.11-1.25-16.26-2.26-24.38-3.44q-37.51-5.48-75-11c-6.65-1-13.27-2.18-19.91-3.28l-14.25-28.73q-8-16.34-16.1-32.66l-9.48-19.22-8.77-17.76-7.14-13.4q-4.5-3-9-6.1l-4-.22c-7.65-.33-12.35,3.81-15.55,10.24-8.15,16.42-16.35,32.82-24.46,49.26-3.05,6.18-5.9,12.47-8.84,18.7q-9.12,18.39-18.22,36.79c-.55,1.19-1.1,2.38-1.66,3.57l-31.87,4.64-22.35,3.23-29.57,4.43-16.75,2.44-14.53,2-9.44,2L302.16,445l-3.54,4.33c-5.45,8.83-2.43,16.35,3.65,22.24,8,7.77,16,15.61,24,23.36,6.49,6.26,13.05,12.44,19.58,18.66l32.72,32,9.77,9.71-2.91,17.53q-1.31,8-2.6,16-1.57,9.18-3.16,18.36-1.86,10.38-3.73,20.76l-2.88,17.5-2.76,15.24-2.08,12.69c-1.89,8.36.22,14.47,6.5,18.79,6.44,4.6,13,3.67,19.47.21,12.9-6.87,25.77-13.8,38.68-20.67,5.93-3.16,11.9-6.24,17.85-9.36,1.79-.84,3.63-1.61,5.38-2.53q22.06-11.57,44.12-23.19,11.61,6.14,23.22,12.25,30.3,15.86,60.6,31.67c8.18,4.35,16.27,8.85,24.56,13,5.71,2.84,11.51,2.65,16.92-1.11s8.08-9.24,7.13-15.74c-1.52-10.44-3.59-20.79-5.44-31.18-.17-1.57-.26-3.15-.53-4.7-1.45-8.28-2.95-16.55-4.43-24.82l-4.86-28.74q-2.31-12.78-4.61-25.56l-.75-6.36c9.79-9.5,19.62-19,29.36-28.5,4.89-4.79,9.61-9.76,14.41-14.65l16.75-16,17.86-17.46,10.23-10.38Z" transform="translate(-295 -295)"/><path class="cls-2" d="M704.6,462.67l-4,5.66c-1.34-.15-2.76-.67-4-.41-15.75,3.23-31.48,6.6-47.23,9.9-24.64,5.18-49.28,10.4-73.95,15.46-4,.82-8.19.87-12.29,1.27,1.81-.71,3.59-1.52,5.44-2.1,6.21-2,12.45-3.85,18.67-5.76,1.42-.28,2.87-.46,4.25-.86,18.52-5.35,37-10.68,55.54-16.13,8.08-2.39,16.08-5.06,24.12-7.6,1.67-.35,3.38-.58,5-1.07,9-2.73,18.05-5.52,27.08-8.29l1.34,1.95Z" transform="translate(-295 -295)"/><path class="cls-3" d="M703.26,452.74c-9,2.77-18,5.56-27.08,8.29-1.63.49-3.34.72-5,1.07a20.6,20.6,0,0,0-4.43-1c-16.89-.07-33.79,0-50.69,0-22.35,0-44.7.06-67-.11-2.17,0-4.33-1.51-6.5-2.31,0-.26,0-.51,0-.77q4-5.17,8-10.37l10.38-13.58,8-10.49c6.64,1.1,13.26,2.3,19.91,3.28q37.5,5.55,75,11c8.12,1.18,16.27,2.19,24.38,3.44C695.31,442.26,701.24,445,703.26,452.74Z" transform="translate(-295 -295)"/><path class="cls-4" d="M584,680.55q-30.3-15.82-60.6-31.67-11.62-6.09-23.22-12.25l0-7.88q0-17.18,0-34.34,0-7.18.07-14.37a23.18,23.18,0,0,1,3.49,2.4c2.63,2.58,5.11,5.31,7.65,8,3.2,4.81,6.24,9.74,9.63,14.41,14.37,19.73,29.55,38.77,47.23,55.7A129.67,129.67,0,0,1,579,672.21C581.07,674.69,582.4,677.75,584,680.55Z" transform="translate(-295 -295)"/><path class="cls-5" d="M500.19,628.75l0,7.88q-22.07,11.61-44.12,23.19c-1.75.92-3.59,1.69-5.38,2.53-.32-3-2.62-2.45-4.52-2.45-14.41,0-28.82,0-43.23,0a33.25,33.25,0,0,1-5-.77l21.56-31.14a32.39,32.39,0,0,0,5,.77Q462.38,628.79,500.19,628.75Z" transform="translate(-295 -295)"/><path class="cls-6" d="M451.33,383.56c2.94-6.23,5.79-12.52,8.84-18.7,8.11-16.44,16.31-32.84,24.46-49.26,3.2-6.43,7.9-10.57,15.55-10.24l-.09,78.25Z" transform="translate(-295 -295)"/><path class="cls-7" d="M612,555.32l.75,6.36-77.55,0a7,7,0,0,1-1.17-1.06c-8-11.33-16-22.65-23.87-34-2.92-4.2-5.61-8.56-8.41-12.85a42.49,42.49,0,0,1,4.21.88c3.14,1,6.24,2.09,9.36,3.14l22.37,8.76,23.16,8.77a7.4,7.4,0,0,0,1.3.81Z" transform="translate(-295 -295)"/><path class="cls-8" d="M584,680.55c-1.64-2.8-3-5.86-5-8.34a129.67,129.67,0,0,0-10.8-11.68c-17.68-16.93-32.86-36-47.23-55.7-3.39-4.67-6.43-9.6-9.63-14.41a12.19,12.19,0,0,1,3.17,1.25c9.91,7.64,19.7,15.42,29.63,23,3.28,2.5,6.87,4.59,10.31,6.87,2.89,2.49,6,4.78,8.61,7.51,3.38,3.51,6.18,7.59,9.62,11,7.76,7.78,15.69,15.38,23.68,22.93,5.18,4.89,10.53,9.61,15.94,14.25.86.74,2.42.65,3.66.94l9.52,14.2c-5.41,3.76-11.21,4-16.92,1.11C600.31,689.4,592.22,684.9,584,680.55Z" transform="translate(-295 -295)"/><path class="cls-9" d="M451.33,383.56l48.76.05c.08,3.74.15,7.47.22,11.21l-.21,25.53h-67Q442.22,402,451.33,383.56Z" transform="translate(-295 -295)"/><path class="cls-10" d="M537.72,526.56l-22.37-8.76a17.14,17.14,0,0,1,3.48-1.63c16.23-3.57,32.5-7,48.71-10.61,33.33-7.49,66.62-15.17,100-22.64,7.57-1.69,15.27-2.82,22.91-4.21l-17.86,17.46c-6.36,1.12-12.77,2-19.07,3.4q-52.43,11.49-104.79,23.23C544.94,523.64,541.37,525.29,537.72,526.56Z" transform="translate(-295 -295)"/><path class="cls-11" d="M379.67,607.19q1.57-9.18,3.16-18.36c1.17-.5,2.55-.74,3.47-1.53q12.75-11,25.37-22.14c4.57-4,9.25-7.9,13.6-12.13,5.24-5.1,10.18-10.51,15.25-15.79l-.77-1.22-6.62,1.7c-.39-1.35-.44-3-1.23-4-2.35-3.15-5.28-5.88-7.44-9.14-4.18-6.28-7.83-12.92-12-19.22-2.81-4.25-6.27-8.08-9.14-12.29-2.27-3.32-4.1-6.95-6.13-10.43l26.35,7.2c.45,1.35.58,2.94,1.4,4,7.33,9.61,14.8,19.1,22.18,28.66,4.07,5.29,8.43,9.42,15.54,4.85a28.12,28.12,0,0,1-2.59,3.73c-2,2-4.12,3.91-6.19,5.85-9.75,8.88-19.72,17.54-29.19,26.7-14.49,14-28.62,28.38-42.94,42.57A7.09,7.09,0,0,1,379.67,607.19Z" transform="translate(-295 -295)"/><path class="cls-12" d="M690.41,478.71c-7.64,1.39-15.34,2.52-22.91,4.21-33.34,7.47-66.63,15.15-100,22.64-16.21,3.65-32.48,7-48.71,10.61a17.14,17.14,0,0,0-3.48,1.63c-3.12-1-6.22-2.16-9.36-3.14a42.49,42.49,0,0,0-4.21-.88h0L501,513v0c.27-.48.53-1,.79-1.45l27.84-7.7,33.54-9.29c4.1-.4,8.27-.45,12.29-1.27,24.67-5.06,49.31-10.28,73.95-15.46,15.75-3.3,31.48-6.67,47.23-9.9,1.26-.26,2.68.26,4,.41Z" transform="translate(-295 -295)"/><path class="cls-13" d="M535.23,561.72l77.55,0q2.31,12.78,4.61,25.56l-65.24-.82q-2.46-3.18-4.9-6.38Q541.24,570.88,535.23,561.72Z" transform="translate(-295 -295)"/><path class="cls-14" d="M433.11,420.35h67q0,15.16,0,30.33l-47.83,0-7.13-8a18.21,18.21,0,0,0-1.28-2.39q-6.18-8.21-12.42-16.38C432,422.73,432.56,421.54,433.11,420.35Z" transform="translate(-295 -295)"/><path class="cls-15" d="M423.55,489.83l-26.35-7.2-24.75-7.19-18.37-5.58-13.52-4.34c.77,2.14,1.12,3.42,1.68,4.6,7,14.53,13.86,29.11,21,43.55,4.53,9.13,9.55,18,14.21,27.08.74,1.44.75,3.24,1.09,4.88l-32.72-32c-.36-1.63-.43-3.4-1.14-4.86-7.25-15-14.64-29.87-21.88-44.85-.69-1.41-.68-3.17-1.1-5.34-6-2.12-12.58-4.42-19.14-6.85a25.88,25.88,0,0,1-4-2.35l3.54-4.33c.91.83,1.68,2,2.75,2.41,6.1,2.26,12.24,4.39,18.4,6.45,12.2,4.08,24.44,8,36.63,12.13q32.78,11.06,65.49,22.32c2.46.85,4.61,2.57,6.9,3.89Z" transform="translate(-295 -295)"/><path class="cls-16" d="M552.15,586.42l65.24.82L622.25,616H572.88Z" transform="translate(-295 -295)"/><path class="cls-17" d="M612,555.32l-49.85-19.18a7.4,7.4,0,0,1-1.3-.81c11.43-3.19,22.82-6.57,34.32-9.53,12.78-3.29,25.63-6.31,38.5-9.25,7.32-1.67,14.73-2.93,22.1-4.38-4.8,4.89-9.52,9.86-14.41,14.65C631.65,536.37,621.82,545.82,612,555.32Z" transform="translate(-295 -295)"/><path class="cls-11" d="M655.8,512.17c-7.37,1.45-14.78,2.71-22.1,4.38-12.87,2.94-25.72,6-38.5,9.25-11.5,3-22.89,6.34-34.32,9.53l-23.16-8.77c3.65-1.27,7.22-2.92,11-3.76q52.37-11.74,104.79-23.23c6.3-1.38,12.71-2.28,19.07-3.4Z" transform="translate(-295 -295)"/><path class="cls-18" d="M347.66,436.22l29.57-4.43c2,1.06,3.92,2.47,6.06,3.13q26.49,8.2,53.07,16.15c6.57,1.95,13.26,3.49,19.89,5.22,4.21,5.37,8.46,10.7,12.6,16.12a40.24,40.24,0,0,1,2.67,4.6c-24.13-7.53-48.28-15-72.39-22.61-16-5.06-32-10.3-48-15.57C349.86,438.4,348.83,437.11,347.66,436.22Z" transform="translate(-295 -295)"/><path class="cls-19" d="M504.19,305.58q4.49,3.06,9,6.1c-.6.94-1.71,1.87-1.72,2.81-.09,12.77-.44,25.55.09,38.29.56,13.71,1.91,27.39,3.05,41.08q.87,10.44,2.25,20.83c1.25,9.55,2.89,19,4.06,28.6,1.5,12.3,2.71,24.64,4.05,37l-2.43,3.95L517.85,489c-.56-1-1.52-1.88-1.62-2.88-.9-9.06-1.61-18.14-2.46-27.2-1.28-13.62-1.2-27.29-4.52-40.81-2.27-9.24-2.06-19.12-2.65-28.73-.94-15.44-1.86-30.89-2.33-46.35C503.89,330.58,504.19,318.08,504.19,305.58Z" transform="translate(-295 -295)"/><path class="cls-20" d="M525,480.25c-1.34-12.32-2.55-24.66-4.05-37-1.17-9.56-2.81-19.05-4.06-28.6q-1.36-10.38-2.25-20.83c-1.14-13.69-2.49-27.37-3.05-41.08-.53-12.74-.18-25.52-.09-38.29,0-.94,1.12-1.87,1.72-2.81l7.14,13.4a25.19,25.19,0,0,0-.91,5c.18,11.94.35,23.88.81,35.81.23,6.07.84,12.13,1.66,18.15,1.68,12.41,3.69,24.78,5.42,37.19,2.22,15.93,4.3,31.89,6.44,47.83Z" transform="translate(-295 -295)"/><path class="cls-21" d="M398,659.08a33.25,33.25,0,0,0,5,.77c14.41.06,28.82,0,43.23,0,1.9,0,4.2-.55,4.52,2.45-6,3.12-11.92,6.2-17.85,9.36-12.91,6.87-25.78,13.8-38.68,20.67-6.5,3.46-13,4.39-19.47-.21,4.4-6.46,8.73-12.95,13.2-19.35C391.17,668.17,394.61,663.65,398,659.08Z" transform="translate(-295 -295)"/><path class="cls-2" d="M378.57,545.63c-.34-1.64-.35-3.44-1.09-4.88-4.66-9.06-9.68-18-14.21-27.08-7.17-14.44-14-29-21-43.55-.56-1.18-.91-2.46-1.68-4.6l13.52,4.34a22.37,22.37,0,0,0,1.19,3.24c4.66,8.55,9.24,17.08,14.73,25.23,9,13.32,16.56,27.57,24.6,41.51,1.95,3.39,3.34,7.09,5,10.65l-11.25,4.85Z" transform="translate(-295 -295)"/><path class="cls-22" d="M572.88,616h49.37c1.48,8.27,3,16.54,4.43,24.82.27,1.55.36,3.13.53,4.7H593.62c-.73-.93-1.48-1.84-2.18-2.8l-13-18Z" transform="translate(-295 -295)"/><path class="cls-18" d="M533.74,469.06c-2.14-15.94-4.22-31.9-6.44-47.83-1.73-12.41-3.74-24.78-5.42-37.19-.82-6-1.43-12.08-1.66-18.15-.46-11.93-.63-23.87-.81-35.81a25.19,25.19,0,0,1,.91-5q4.38,8.88,8.77,17.76c-.27,5.61-1.13,11.26-.68,16.81.84,10.37,2.33,20.69,3.75,31q2.8,20.37,5.93,40.71c1.36,8.86,2.95,17.68,4.43,26.52,0,.26,0,.51,0,.77Z" transform="translate(-295 -295)"/><path class="cls-20" d="M347.66,436.22c1.17.89,2.2,2.18,3.51,2.61,16,5.27,31.94,10.51,48,15.57,24.11,7.61,48.26,15.08,72.39,22.61l3.89,3.25,5.63,8a24.31,24.31,0,0,1-4.3-.55Q453.85,480.4,431,473c-16.49-5.35-32.95-10.81-49.43-16.17-15.36-5-30.75-9.87-46.08-14.95-1.69-.57-3.05-2.12-4.57-3.22Z" transform="translate(-295 -295)"/><path class="cls-19" d="M330.91,438.66c1.52,1.1,2.88,2.65,4.57,3.22,15.33,5.08,30.72,10,46.08,14.95C398,462.19,414.5,467.65,431,473q22.85,7.42,45.75,14.67a24.31,24.31,0,0,0,4.3.55l7.26,9.55c-2.92-.74-5.88-1.33-8.75-2.25q-28-9-56-18.09-28.55-9.3-57-18.74-23-7.62-46.05-15.36c-1.49-.51-2.72-1.79-4.08-2.71Z" transform="translate(-295 -295)"/><path class="cls-23" d="M398,659.08c-3.36,4.57-6.8,9.09-10.05,13.74-4.47,6.4-8.8,12.89-13.2,19.35-6.28-4.32-8.39-10.43-6.5-18.79a13.91,13.91,0,0,0,3.3-1.86c2.68-2.74,5.24-5.6,7.76-8.5q10.39-12,20.71-24,11.61-13.53,23.2-27.08c5.09-5.9,10.06-11.92,15.4-17.59,2.33-2.48,5.45-4.22,8.2-6.3l-3.25,5.58-24,34.31Z" transform="translate(-295 -295)"/><path class="cls-12" d="M504.19,305.58c0,12.5-.3,25,.08,37.49.47,15.46,1.39,30.91,2.33,46.35.59,9.61.38,19.49,2.65,28.73,3.32,13.52,3.24,27.19,4.52,40.81.85,9.06,1.56,18.14,2.46,27.2.1,1,1.06,1.92,1.62,2.88l-8,10.45c-.55-8.17-1.08-16.35-1.64-24.52s-1-16.62-1.73-24.92c-.93-11-2.06-22.07-3-33.11-.61-6.84-1.07-13.7-1.7-20.53,0-.57-.91-1.07-1.4-1.59-.07-3.74-.14-7.47-.22-11.21l.09-78.25Z" transform="translate(-295 -295)"/><path class="cls-12" d="M316.38,440.62c1.36.92,2.59,2.2,4.08,2.71q23,7.79,46.05,15.36,28.5,9.4,57,18.74,28,9.12,56,18.09c2.87.92,5.83,1.51,8.75,2.25l6.36,8a29.74,29.74,0,0,1-4.25-.76c-18.37-6-36.74-12-55.07-18.08-22.09-7.37-44.13-14.94-66.23-22.3-19.1-6.36-38.27-12.52-57.37-18.9-1.75-.58-3.21-2.05-4.8-3.1Z" transform="translate(-295 -295)"/><path class="cls-23" d="M298.62,449.34a25.88,25.88,0,0,0,4,2.35c6.56,2.43,13.18,4.73,19.14,6.85.42,2.17.41,3.93,1.1,5.34,7.24,15,14.63,29.88,21.88,44.85.71,1.46.78,3.23,1.14,4.86-6.53-6.21-13.09-12.39-19.58-18.65-8-7.75-16-15.59-24-23.36C296.19,465.69,293.17,458.17,298.62,449.34Zm18.51,9.83a.88.88,0,0,0,.34.1s.07-.18.11-.28a1.18,1.18,0,0,0-.34-.1S317.17,459.07,317.13,459.17Zm-2.74-1a.93.93,0,0,0-.34-.1s-.07.18-.11.28a1.18,1.18,0,0,0,.34.1S314.35,458.29,314.39,458.19Zm-2.31-.64-.53-.17.08.3Zm-3.73-.77a1.46,1.46,0,0,0,.34.1s.07-.18.1-.28a1,1,0,0,0-.34-.11S308.38,456.68,308.35,456.78Z" transform="translate(-295 -295)"/><path class="cls-24" d="M446.79,588.05c-2.75,2.08-5.87,3.82-8.2,6.3-5.34,5.67-10.31,11.69-15.4,17.59Q411.57,625.46,400,639q-10.33,12-20.71,24c-2.52,2.9-5.08,5.76-7.76,8.5a13.91,13.91,0,0,1-3.3,1.86q1-6.35,2.08-12.69a28.12,28.12,0,0,0,4-3c7.26-7.72,14.44-15.52,21.62-23.31,3-3.21,6-6.4,8.8-9.72q13.28-15.51,26.43-31.13c3.44-4.11,6.63-8.45,9.94-12.69,1.08-1,2.25-1.83,3.24-2.87,9.26-9.75,18.46-19.55,27.77-29.25.76-.79,2.2-1,3.33-1.4q-3.21,4.78-6.41,9.56Z" transform="translate(-295 -295)"/><path class="cls-21" d="M593.62,645.51h33.59c1.85,10.39,3.92,20.74,5.44,31.18,1,6.5-1.65,11.89-7.13,15.74L616,678.22Z" transform="translate(-295 -295)"/><path class="cls-25" d="M542.52,457.89c-1.48-8.84-3.07-17.66-4.43-26.52Q535,411,532.16,390.66c-1.42-10.32-2.91-20.64-3.75-31-.45-5.55.41-11.2.68-16.81l9.48,19.22c-.28,1.63-1,3.31-.77,4.89.73,6.26,1.71,12.5,2.61,18.75,1.76,12.22,3.39,24.47,5.35,36.67,1.35,8.42,3.16,16.77,4.76,25.15Q546.53,452.71,542.52,457.89Z" transform="translate(-295 -295)"/><path class="cls-4" d="M379.67,607.19a7.09,7.09,0,0,0,2.09-1c14.32-14.19,28.45-28.56,42.94-42.57,9.47-9.16,19.44-17.82,29.19-26.7a8.82,8.82,0,0,1-1,2.88c-6,7.17-12.17,14.18-18.06,21.42-4.5,5.52-10.45,10.19-11.3,18a15.37,15.37,0,0,1-1.8,3c-9.09,9.42-18.25,18.78-27.34,28.2-3.21,3.34-6.15,7-9.48,10.16-2.79,2.68-6,4.94-9,7.39Q377.8,617.57,379.67,607.19Z" transform="translate(-295 -295)"/><path class="cls-2" d="M306.94,442.63c1.59,1.05,3.05,2.52,4.8,3.1,19.1,6.38,38.27,12.54,57.37,18.9,22.1,7.36,44.14,14.93,66.23,22.3C453.67,493,472,499,490.41,505a29.74,29.74,0,0,0,4.25.76l4,5.57a16.33,16.33,0,0,1-2.33-.32q-21.61-6.18-43.22-12.4l-20.77-6.41c-2.29-1.32-4.44-3-6.9-3.89Q392.73,477,359.94,466c-12.19-4.11-24.43-8.05-36.63-12.13-6.16-2.06-12.3-4.19-18.4-6.45-1.07-.4-1.84-1.58-2.75-2.41Z" transform="translate(-295 -295)"/><path class="cls-13" d="M550.52,447.52c-1.6-8.38-3.41-16.73-4.76-25.15-2-12.2-3.59-24.45-5.35-36.67-.9-6.25-1.88-12.49-2.61-18.75-.18-1.58.49-3.26.77-4.89q8.05,16.32,16.1,32.66c-.31,1.46-1,3-.85,4.39.92,6.75,1.89,13.5,3.22,20.18,1,4.94,2.55,9.77,3.86,14.65Z" transform="translate(-295 -295)"/><path class="cls-26" d="M441.12,580.84c-3.31,4.24-6.5,8.58-9.94,12.69q-13.12,15.66-26.43,31.13c-2.84,3.32-5.84,6.51-8.8,9.72-7.18,7.79-14.36,15.59-21.62,23.31a28.12,28.12,0,0,1-4,3l2.76-15.24A19.86,19.86,0,0,0,376.9,643c5-5.07,9.92-10.18,14.67-15.44,5.13-5.68,10-11.57,15.06-17.32,3.73-4.25,7.55-8.41,11.33-12.61L428.34,588a38,38,0,0,0,4.57-2C435.7,584.42,438.39,582.59,441.12,580.84Z" transform="translate(-295 -295)"/><path class="cls-25" d="M456.25,456.29c-6.63-1.73-13.32-3.27-19.89-5.22q-26.58-7.9-53.07-16.15c-2.14-.66-4.05-2.07-6.06-3.13l22.35-3.23c1.49.91,2.87,2.19,4.49,2.69,8.06,2.47,16.17,4.79,24.3,7.06,5.56,1.55,11.18,2.92,16.78,4.37l7.13,8C453.6,452.57,454.93,454.43,456.25,456.29Z" transform="translate(-295 -295)"/><path class="cls-17" d="M433.13,537.72l6.62-1.7.77,1.22c-5.07,5.28-10,10.69-15.25,15.79-4.35,4.23-9,8.12-13.6,12.13Q399,576.28,386.3,587.3c-.92.79-2.3,1-3.47,1.53q1.31-8,2.6-16A7.69,7.69,0,0,0,388,572c8.87-7.44,17.75-14.89,26.47-22.52,1.55-1.36,2.36-3.56,3.52-5.38Z" transform="translate(-295 -295)"/><path class="cls-8" d="M418,597.61c-3.78,4.2-7.6,8.36-11.33,12.61-5.05,5.75-9.93,11.64-15.06,17.32-4.75,5.26-9.7,10.37-14.67,15.44a19.86,19.86,0,0,1-3.84,2.47l2.88-17.5c3-2.45,6.2-4.71,9-7.39,3.33-3.21,6.27-6.82,9.48-10.16,9.09-9.42,18.25-18.78,27.34-28.2a15.37,15.37,0,0,0,1.8-3l4.79-2.39c-.49.89-.91,1.83-1.47,2.67C423.07,585.14,418.73,590.49,418,597.61Z" transform="translate(-295 -295)"/><path class="cls-7" d="M445.15,442.68c-5.6-1.45-11.22-2.82-16.78-4.37-8.13-2.27-16.24-4.59-24.3-7.06-1.62-.5-3-1.78-4.49-2.69l31.87-4.64q6.23,8.18,12.42,16.37A18.21,18.21,0,0,1,445.15,442.68Z" transform="translate(-295 -295)"/><path class="cls-5" d="M418,544.12c-1.16,1.82-2,4-3.52,5.38-8.72,7.63-17.6,15.08-26.47,22.52a7.69,7.69,0,0,1-2.54.85l2.91-17.53,11.25-4.85,15.17-5.58Z" transform="translate(-295 -295)"/><path class="cls-7" d="M560.9,433.94c-1.31-4.88-2.87-9.71-3.86-14.65-1.33-6.68-2.3-13.43-3.22-20.18-.19-1.4.54-2.93.85-4.39l14.25,28.73Z" transform="translate(-295 -295)"/><path class="cls-27" d="M533.74,469.06l8.76-10.4c2.17.8,4.33,2.29,6.5,2.31,22.35.17,44.7.11,67,.11,16.9,0,33.8,0,50.69,0a20.6,20.6,0,0,1,4.43,1c-8,2.54-16,5.21-24.12,7.6-18.49,5.45-37,10.78-55.54,16.13-1.38.4-2.83.58-4.25.86a25.29,25.29,0,0,0-4.49-.83c-18.45-.05-36.89,0-55.33-.1-1.64,0-3.27-1-4.91-1.56l2.43-3.95Z" transform="translate(-295 -295)"/><path class="cls-28" d="M522.53,484.2c1.64.54,3.27,1.55,4.91,1.56,18.44.11,36.88.05,55.33.1a25.29,25.29,0,0,1,4.49.83c-6.22,1.91-12.46,3.8-18.67,5.76-1.85.58-3.63,1.39-5.44,2.1l-33.54,9.29-27.84,7.7v-1l8.05-11.08,8-10.45Z" transform="translate(-295 -295)"/><path class="cls-29" d="M419.53,627.94l24-34.31a28.38,28.38,0,0,0,4.61.75c17.34,0,34.68,0,52,0q0,17.16,0,34.34-37.81,0-75.63,0A32.39,32.39,0,0,1,419.53,627.94Z" transform="translate(-295 -295)"/><path class="cls-13" d="M500.17,594.41c-17.34,0-34.68,0-52,0a28.38,28.38,0,0,1-4.61-.75l3.25-5.58,22.26-31.17c1.53.54,3,1.51,4.57,1.53,8.84.15,17.68.07,26.53.07l.09,21.56Q500.19,587.23,500.17,594.41Z" transform="translate(-295 -295)"/><path class="cls-30" d="M500.24,580l-.09-21.56c0-.54.07-1.07.11-1.6a25.78,25.78,0,0,1,4,3c10.39,11.47,20.7,23,31,34.52a6.88,6.88,0,0,0,.7,1.81c4,5.2,8.23,10.29,12.16,15.57,2.31,3.1,4.22,6.5,6.3,9.77-3.44-2.28-7-4.37-10.31-6.87-9.93-7.6-19.72-15.38-29.63-23a12.19,12.19,0,0,0-3.17-1.25c-2.54-2.67-5-5.4-7.65-8A23.18,23.18,0,0,0,500.24,580Z" transform="translate(-295 -295)"/><path class="cls-23" d="M535.23,561.72q6,9.16,12,18.32c-1.06-.41-2.39-.56-3.15-1.29-5.1-4.94-10.08-10-15.1-15-8.33-8.33-16.63-16.68-25-24.93-.94-.93-2.45-1.27-3.7-1.88l0-23.94H501v0l.82.83h0c2.8,4.29,5.49,8.65,8.41,12.85,7.9,11.38,15.9,22.7,23.87,34A7,7,0,0,0,535.23,561.72Z" transform="translate(-295 -295)"/><path class="cls-26" d="M554.49,621.56c-2.08-3.27-4-6.67-6.3-9.77-3.93-5.28-8.12-10.37-12.16-15.57a6.88,6.88,0,0,1-.7-1.81,84.26,84.26,0,0,1,9.32,3.74c1.75.94,2.7,3.46,4.45,4.22,8.44,3.69,14.51,10.21,20.74,16.57a17.67,17.67,0,0,0,2.84,2.77c1.84,1.16,3.86,2,5.8,3l13,18c.7,1,1.45,1.87,2.18,2.8L616,678.22c-1.24-.29-2.8-.2-3.66-.94-5.41-4.64-10.76-9.36-15.94-14.25-8-7.55-15.92-15.15-23.68-22.93-3.44-3.44-6.24-7.52-9.62-11C560.47,626.34,557.38,624.05,554.49,621.56Z" transform="translate(-295 -295)"/><path class="cls-2" d="M509.82,499.49q-4,5.53-8.05,11.08l-1.6.81q0-15.58-.05-31.15,0-14.78,0-29.55,0-15.17,0-30.33l.21-25.53c.49.52,1.35,1,1.4,1.59.63,6.83,1.09,13.69,1.7,20.53,1,11,2.11,22.07,3,33.11.69,8.3,1.17,16.61,1.73,24.92S509.27,491.32,509.82,499.49Z" transform="translate(-295 -295)"/><path class="cls-10" d="M418,544.12l-3.2.79c-.61-1.84-.88-3.89-1.9-5.47-5.76-8.88-11.74-17.61-17.55-26.45-5.44-8.29-10.86-16.59-16.09-25-2.5-4-4.53-8.35-6.77-12.54l24.75,7.19c2,3.48,3.86,7.11,6.13,10.43,2.87,4.21,6.33,8,9.14,12.29,4.16,6.3,7.81,12.94,12,19.22,2.16,3.26,5.09,6,7.44,9.14.79,1,.84,2.66,1.23,4Z" transform="translate(-295 -295)"/><path class="cls-17" d="M432.33,492.21l20.77,6.41c.14.77,0,1.76.48,2.26,6.45,7.27,13,14.46,19.48,21.68l-10.39,4.79c-7.11,4.57-11.47.44-15.54-4.85-7.38-9.56-14.85-19.05-22.18-28.66-.82-1.07-.95-2.66-1.4-4Z" transform="translate(-295 -295)"/><path class="cls-10" d="M462.67,527.35l10.39-4.79,8.76-2.42a28.29,28.29,0,0,1-2.63,3.81c-5.82,6.19-11.66,12.35-17.61,18.42-6.95,7.09-14.08,14-21,21.11-4.21,4.33-8.17,8.9-12.24,13.37l-4.79,2.39c.85-7.82,6.8-12.49,11.3-18,5.89-7.24,12.08-14.25,18.06-21.42a8.82,8.82,0,0,0,1-2.88c2.07-1.94,4.22-3.81,6.19-5.85A28.12,28.12,0,0,0,462.67,527.35Z" transform="translate(-295 -295)"/><path class="cls-18" d="M481.82,520.14l-8.76,2.42c-6.51-7.22-13-14.41-19.48-21.68-.45-.5-.34-1.49-.48-2.26q21.6,6.21,43.22,12.4a16.33,16.33,0,0,0,2.33.32h0l.79,0h.77l1.6-.81v1c-.26.49-.52,1-.79,1.45h-1.59l-.79.82,0,0-7.21,2.4Z" transform="translate(-295 -295)"/><path class="cls-7" d="M501.79,513.79,501,513Z" transform="translate(-295 -295)"/><path class="cls-24" d="M578.48,624.74c-1.94-1-4-1.87-5.8-3a17.67,17.67,0,0,1-2.84-2.77c-6.23-6.36-12.3-12.88-20.74-16.57-1.75-.76-2.7-3.28-4.45-4.22a84.26,84.26,0,0,0-9.32-3.74c-10.34-11.51-20.65-23-31-34.52a25.78,25.78,0,0,0-4-3q0-10,0-20c1.25.61,2.76,1,3.7,1.88,8.39,8.25,16.69,16.6,25,24.93,5,5,10,10.08,15.1,15,.76.73,2.09.88,3.15,1.29q2.44,3.19,4.9,6.38L572.88,616Z" transform="translate(-295 -295)"/><path class="cls-27" d="M500.11,450.68q0,14.77,0,29.55l-24.71,0L471.52,477a40.24,40.24,0,0,0-2.67-4.6c-4.14-5.42-8.39-10.75-12.6-16.12-1.32-1.86-2.65-3.72-4-5.59Z" transform="translate(-295 -295)"/><path class="cls-12" d="M372.45,475.44c2.24,4.19,4.27,8.51,6.77,12.54,5.23,8.42,10.65,16.72,16.09,25,5.81,8.84,11.79,17.57,17.55,26.45,1,1.58,1.29,3.63,1.9,5.47l-15.17,5.58c-1.65-3.56-3-7.26-5-10.65-8-13.94-15.63-28.19-24.6-41.51-5.49-8.15-10.07-16.68-14.73-25.23a22.37,22.37,0,0,1-1.19-3.24Z" transform="translate(-295 -295)"/><path class="cls-28" d="M475.41,480.26l24.71,0q0,15.57.05,31.15h-.77a2.32,2.32,0,0,0-.79,0h0l-4-5.57-6.36-8L481,488.22Z" transform="translate(-295 -295)"/><path class="cls-15" d="M317.13,459.17c0-.1.07-.28.11-.28a1.18,1.18,0,0,1,.34.1c0,.1-.07.28-.11.28A.88.88,0,0,1,317.13,459.17Z" transform="translate(-295 -295)"/><path class="cls-15" d="M314.39,458.19c0,.1-.07.28-.11.28a1.18,1.18,0,0,1-.34-.1c0-.1.07-.28.11-.28A.93.93,0,0,1,314.39,458.19Z" transform="translate(-295 -295)"/><path class="cls-15" d="M312.08,457.55l-.45.13-.08-.3Z" transform="translate(-295 -295)"/><path class="cls-15" d="M308.35,456.78c0-.1.07-.28.1-.29a1,1,0,0,1,.34.11c0,.1-.06.28-.1.28A1.46,1.46,0,0,1,308.35,456.78Z" transform="translate(-295 -295)"/><path class="cls-7" d="M500.28,536.92q0,10,0,20c0,.53-.08,1.06-.11,1.6-8.85,0-17.69.08-26.53-.07-1.53,0-3-1-4.57-1.53q3.21-4.77,6.41-9.56c2.57-3.52,5.23-7,7.69-10.56,5.22-7.62,10.33-15.31,15.48-23l0,0,.79-.82h.84Q500.26,525,500.28,536.92Z" transform="translate(-295 -295)"/><path class="cls-2" d="M498.63,513.78c-5.15,7.67-10.26,15.36-15.48,23-2.46,3.59-5.12,7-7.69,10.56-1.13.45-2.57.61-3.33,1.4-9.31,9.7-18.51,19.5-27.77,29.25-1,1-2.16,1.92-3.24,2.87-2.73,1.75-5.42,3.58-8.21,5.21a38,38,0,0,1-4.57,2c3.06-3.46,6.08-6.95,9.18-10.37,6-6.64,12.19-13.19,18.18-19.88q15.29-17.1,30.42-34.37c2-2.24,3.54-4.81,5.3-7.23Z" transform="translate(-295 -295)"/><path class="cls-30" d="M491.42,516.18c-1.76,2.42-3.34,5-5.3,7.23Q471,540.67,455.7,557.78c-6,6.69-12.14,13.24-18.18,19.88-3.1,3.42-6.12,6.91-9.18,10.37L418,597.61c.77-7.12,5.11-12.47,8.91-18.09.56-.84,1-1.78,1.47-2.67,4.07-4.47,8-9,12.24-13.37,6.92-7.12,14.05-14,21-21.11,5.95-6.07,11.79-12.23,17.61-18.42a28.29,28.29,0,0,0,2.63-3.81Z" transform="translate(-295 -295)"/><path class="cls-2" d="M499.39,513l-.79.82Z" transform="translate(-295 -295)"/><path class="cls-2" d="M498.61,511.34a2.32,2.32,0,0,1,.79,0Z" transform="translate(-295 -295)"/></svg>