<svg id="Layer_1" data-name="Layer 1" xmlns="http://www.w3.org/2000/svg" viewBox="0 0 409.6 409.6"><defs><style>.cls-1{fill:#fefefe;}</style></defs><path class="cls-1" d="M753,474.73V335h409.6V744.6H753V484.31a32.2,32.2,0,0,1,1.49,3.85c7.9,32.59,44,49,73.52,33.13,5.28-2.85,9.88-6.95,15-10.58,10.11,10.69,22.75,16.71,37.92,16.67s27.74-6.11,38.2-17.22c10.54,11.17,23.16,17.21,38.31,17.22s27.94-6.2,38.4-17.2c10.67,11.32,23.34,17.26,38.51,17.2s27.71-6.2,38.06-17.17c.76.71,1.24,1.15,1.71,1.6,14.42,14.08,31.48,19.08,50.85,13.4,19.17-5.61,30.88-18.86,35.72-38.2a25.82,25.82,0,0,0-4.4-22.87c-19.85-27.29-39.39-54.8-58.9-82.34-3.81-5.38-8.5-7.76-15.12-7.75q-124.92.17-249.83,0c-6.46,0-11.08,2.3-14.8,7.56-17.82,25.15-35.87,50.15-53.66,75.32C759.93,462.61,756.63,468.78,753,474.73Zm383.25,73.86a18,18,0,0,0-2,.36c-20.67,6.79-40.55,4.7-59.81-5.16a6,6,0,0,0-4.63.2c-23.8,11.53-47.56,11.64-71.3,0a5.83,5.83,0,0,0-5.83.11q-35.22,17.14-70.52,0a6.24,6.24,0,0,0-6.2,0c-23.47,11.47-47,11.45-70.5,0a6.07,6.07,0,0,0-6.19.07c-14.5,7.59-29.95,9.66-46,7.27-4.89-.73-9.7-2-14.6-3.06-.06.58-.13,1-.13,1.37,0,43.38-.08,86.76,0,130.14,0,15.62,11.06,26.36,26.88,26.37q100.2.07,200.4,0a28.5,28.5,0,0,0,2.89-.32V578.82h76.66V706.27h22.67c17.72,0,28.15-10.51,28.16-28.34q0-47.1,0-94.21Z" transform="translate(-753 -335)"/><path d="M753,474.73c3.63-6,6.93-12.12,10.94-17.79,17.79-25.17,35.84-50.17,53.66-75.32,3.72-5.26,8.34-7.57,14.8-7.56q124.92.15,249.83,0c6.62,0,11.31,2.37,15.12,7.75,19.51,27.54,39.05,55.05,58.9,82.34a25.82,25.82,0,0,1,4.4,22.87c-4.84,19.34-16.55,32.59-35.72,38.2-19.37,5.68-36.43.68-50.85-13.4-.47-.45-.95-.89-1.71-1.6-10.35,11-22.93,17.11-38.06,17.17s-27.84-5.88-38.51-17.2c-10.46,11-23.13,17.22-38.4,17.2s-27.77-6-38.31-17.22c-10.46,11.11-23.06,17.18-38.2,17.22s-27.81-6-37.92-16.67c-5.08,3.63-9.68,7.73-15,10.58-29.49,15.87-65.62-.54-73.52-33.13a32.2,32.2,0,0,0-1.49-3.85Z" transform="translate(-753 -335)"/><path d="M1136.25,548.59v35.13q0,47.12,0,94.21c0,17.83-10.44,28.32-28.16,28.34h-22.67V578.82h-76.66V705.94a28.5,28.5,0,0,1-2.89.32q-100.2,0-200.4,0c-15.82,0-26.85-10.75-26.88-26.37-.11-43.38,0-86.76,0-130.14,0-.39.07-.79.13-1.37,4.9,1,9.71,2.33,14.6,3.06,16.07,2.39,31.52.32,46-7.27a6.07,6.07,0,0,1,6.19-.07c23.47,11.45,47,11.47,70.5,0a6.24,6.24,0,0,1,6.2,0q35.24,17.18,70.52,0a5.83,5.83,0,0,1,5.83-.11c23.74,11.66,47.5,11.55,71.3,0a6,6,0,0,1,4.63-.2c19.26,9.86,39.14,12,59.81,5.16A18,18,0,0,1,1136.25,548.59ZM829.74,655H931.62v-76.2H829.74Z" transform="translate(-753 -335)"/><path class="cls-1" d="M829.74,655v-76.2H931.62V655Z" transform="translate(-753 -335)"/></svg>