<?xml version="1.0" encoding="utf-8"?>
<!-- Generator: Adobe Illustrator 25.2.2, SVG Export Plug-In . SVG Version: 6.00 Build 0)  -->
<svg version="1.1" id="Layer_1" xmlns="http://www.w3.org/2000/svg" xmlns:xlink="http://www.w3.org/1999/xlink" x="0px" y="0px"
	 viewBox="0 0 1000 1000" style="enable-background:new 0 0 1000 1000;" xml:space="preserve">
<style type="text/css">
	.st0{fill:#EEFCF3;}
	.st1{display:none;}
	.st2{display:inline;fill:#198842;}
	.st3{display:inline;fill:#1A8842;}
	.st4{display:inline;fill:#1B8842;}
	.st5{display:inline;}
	.st6{fill:#1A8842;}
	.st7{fill:#F8FAF9;}
	.st8{fill:#F9F9F9;}
	.st9{fill:#F8F9FB;}
	.st10{fill:#F9FAF9;}
	.st11{fill:#1C8745;}
	.st12{fill:#1B8944;}
	.st13{fill:#1A8742;}
	.st14{fill:#1A8843;}
	.st15{fill:#A4828E;}
	.st16{fill:#F8FAF8;}
	.st17{fill:#EDF3F0;}
	.st18{fill:#198842;}
	.st19{fill:#1A8942;}
	.st20{fill:#1D8B45;}
	.st21{fill:#1E8844;}
	.st22{fill:#1C8944;}
	.st23{fill:#1C8843;}
	.st24{fill:#1C8842;}
	.st25{fill:#1A8743;}
</style>
<g id="backgrounds">
	<rect y="0" class="st0" width="1000" height="1000"/>
</g>
<g id="Layer_2_1_" class="st1">
	<path class="st2" d="M588.3,670.1c-0.1,1.1-0.3,2.1-0.3,3c0.9,15.8-7.8,26-20.3,33.3c-20.7,12.1-43.7,17.2-67,21.4
		c-26.5,4.7-53.1,6.2-79.8,6.5c-16.5,0.2-33-1.1-49.5-2.6c-14.9-1.4-29.9-3.5-44.6-6.2c-21.4-3.9-42-10.1-60-22.9
		c-9.5-6.8-14.8-15.8-14.8-28.1c0.2-54.9,0.5-109.8-0.1-164.6c-0.2-18.2,9.2-29,23.7-36.6c24.3-12.6,50.6-18.6,77.6-21.3
		c20.3-2,40.8-3.5,61.2-4.2c16.4-0.5,32.9,0.7,49.4,1.2c3.9,0.1,7.8,0.8,12.4,1.2c0-2.3,0-4.2,0-6.1c0-53.4,0.2-106.8-0.2-160.1
		c-0.1-11.5,5.4-18.6,14.5-23.7c15.7-8.9,33-12.6,50.6-14.8c17.2-2.1,34.4-4.4,51.7-5.1c17-0.7,34.2-0.1,51.3,1.1
		c17.4,1.2,34.8,3.2,52,6.1c13.4,2.3,26.5,6.1,38.4,13.1c9.2,5.5,13.8,13,13.8,24.2c-0.2,113.9-0.1,227.8-0.1,341.8
		c0,9.4-3.8,16-12,21.3c-12.7,8.2-26.7,12.4-41.1,14.5c-21.8,3.2-43.7,5.6-65.6,7.3c-12.9,1-25.9,0-38.8-0.1
		C589.8,669.8,589.1,670,588.3,670.1z M492.2,363.5c0,30.2,0,59.8,0,88.7c14.1,2.9,27.9,5.6,41.8,8.4c14.8-50.6,61-70.6,102.9-57
		c39.4,12.8,61.5,51.4,53,92.4c-4.3,21-16.1,37.9-34.2,49.6c-20.8,13.5-43.4,16.8-67.5,9.5c0,6.5,0,12.7,0,18.9c1.1,0.2,2,0.6,3,0.6
		c32.6,1,65.1,0.3,97.3-5.9c12.7-2.4,25.1-5.5,36.7-11.4c3.7-1.9,7-3.7,6.9-9c-0.2-60.2-0.1-120.4-0.1-180.6c0-1.4-0.2-2.8-0.3-4.2
		c-2.5,1.3-4.5,2.4-6.6,3.3c-23.1,9.2-47.5,12.8-72.1,14.5c-17.9,1.2-35.9,1.6-53.8,1.3c-16.4-0.3-32.8-1.2-49-3.4
		C530.5,376.4,510.7,373.1,492.2,363.5z M531.8,593.7c-74.6,17.3-149.1,17.1-223.5,0.1c0,37,0,74.2,0,112
		c74.7,17.2,149.1,17.8,223.5-0.3C531.8,667.6,531.8,630.6,531.8,593.7z M431.3,462.4c-10.5-0.4-17.3-0.2-21.5-0.1
		c-5.9,0.2-13.5,0.5-28.5,2.1c-17.8,1.8-26.7,2.5-39,4.8c-13.8,2.6-27.7,5.6-41,10.1c-9.4,3.1-18.3,8.3-26.8,13.6
		c-7.1,4.4-8.6,10.9-4.6,15.8c2.6,3.2,5.9,6.3,9.5,8.4c11.7,7,24.4,11.2,37.6,14.7c26.8,7.1,54.2,10.3,81.7,10.9
		c23,0.5,46.1-0.5,69.1-1.8c23.6-1.3,46.8-5.8,69.4-13.2c11.3-3.7,22.4-8,31.2-16.5c5.2-5.1,5.5-11.6-0.3-15.9
		c-13.4-9.8-21.8-13.3-21.8-13.3c-38.5-11.8-65.7-15.5-65.7-15.5C477.2,466,456.7,463.2,431.3,462.4z M548,699.4
		c4.3-2.2,7.9-3.8,11.2-5.8c7.8-4.6,13.2-9.9,13-20.5c-0.6-46.4-0.2-92.8-0.2-139.2c0-1.7,0-3.5,0-5.3c-1.2,0.2-2,0.2-2.5,0.5
		c-14.8,10.5-32,15.5-49.4,19.1c-17.7,3.7-35.8,5.8-53.8,8.2c-9.3,1.2-18.7,2-28.1,2.3c-9.4,0.3-18.8-0.3-28.2-0.6
		c-8.1-0.2-16.2,0.1-24.2-0.7c-17.5-1.8-34.9-4-52.3-6.4c-16.2-2.2-31.9-6.8-47-13.2c-6.2-2.7-12.2-6-18.5-9.1
		c0,50.1,0,99.8,0,149.5c0,1.5,0.2,3.1,0.9,4.3c5,8.9,14,12.1,23,16.6c0-2.2,0-3.5,0-4.8c0-35.8,0-71.5,0-107.3
		c0-2.1,0.2-4.3,0.8-6.3c1.3-4.7,5.6-7,10-5.5c15.1,5.3,30.6,8.8,46.5,10.5c15.9,1.8,31.9,3.8,47.9,4.5c34.2,1.6,68.4,0.5,102.2-5.8
		c11.6-2.2,23.2-4.8,34.6-7.9c10.1-2.8,13.8-0.5,13.9,9.8c0,10,0,20,0,29.9C548,643.6,548,670.9,548,699.4z M492,299.7
		c0,14,0.1,27.4-0.1,40.9c0,3.8,1.2,6.5,4.7,7.9c8.5,3.4,16.8,7.2,25.6,9.6c9.3,2.6,19,4.2,28.5,5.4c13.9,1.7,27.8,3.1,41.7,3.5
		c27.6,0.8,55.2,0.4,82.7-3.8c16.2-2.5,32-5.8,47.2-11.9c8.3-3.4,9.7-5.5,9.7-14.3c0-11.1,0-22.3,0-33.4c0-1.4-0.2-2.7-0.3-3.4
		c-6.4,2.3-12.2,5.1-18.3,6.5c-15.2,3.3-30.5,6.7-45.9,8.7c-16.7,2.2-33.6,3.9-50.5,3.8c-20.3-0.1-40.6-2-60.8-3.6
		C534.2,313.7,512.8,309.5,492,299.7z M588.2,590.3c0,21.3,0,42.4,0,63.7c1.7,0.2,3.1,0.4,4.6,0.5c27.5,0.6,54.9,0.4,82.2-3.8
		c15.9-2.5,31.6-5.5,46.5-11.8c9.3-3.9,10.4-5.3,10.4-15.1c0-16,0-31.9,0-47.8c0-1.6-0.2-3.1-0.2-4.1
		C685.5,590.4,637.2,590.8,588.2,590.3z M613.3,304c14.5-0.8,27.7-1.2,40.8-2.5c13.2-1.3,26.5-2.8,39.4-5.7
		c11.5-2.6,22.7-6.7,33.5-11.2c6.9-2.8,6.4-6.6,0.1-10.4c-13.3-7.9-28.4-10.9-43.2-13.5c-15.8-2.7-31.9-3.5-47.9-4.6
		c-26.8-1.8-53.6-1.2-80.2,2.4c-19.6,2.6-39.3,5.3-57.2,14.6c-2.5,1.3-4.4,3.9-6.6,5.8c1.8,2,3.6,4,5.5,5.9c0.5,0.5,1.2,0.9,1.9,1.2
		c19.4,9.2,40.3,12.5,61.3,14.7C578.5,302.8,596.5,303.1,613.3,304z M549.1,465.9c4.5,2.2,8.8,4.4,13.1,6.3c0.8,0.4,2.3-0.1,3.2-0.7
		c7.5-5,15.7-7,24.8-7.8c13.7-1.2,26.4,0.6,37.5,8.6c15.3,11.1,32,7.9,45.6-3.4c0.8-0.7,1.7-2.5,1.4-3.3c-2.6-7-4.7-14.4-8.5-20.7
		c-8.4-13.8-20.9-23.1-36.7-27.2c-22.7-6-43.1-1.3-60.8,14C558.3,440.5,552.2,452.2,549.1,465.9z M675.5,486.8
		c-0.9,0.1-1.4,0-1.8,0.2c-17.9,10.6-35.8,10.6-52.9-1c-10.7-7.3-22.2-7.8-34.2-6.6c-3,0.3-5.8,1.7-9.9,2.9
		c10.9,9,11.6,20.2,11.2,31.8c-0.2,7-0.2,14,0.1,20.9c0.1,1.5,1.4,3.8,2.7,4.3c10.2,4.2,20.9,4.5,31.6,2.8
		c19.1-3.1,33.8-13.3,44.2-29.5C671.6,505,674.6,496.3,675.5,486.8z"/>
	<path class="st3" d="M390.9,674.8c-7.7,10.6-17.2,18.2-30.5,19.1c-3.5,0.2-7.8-0.4-10.4-2.4c-3.7-2.8-1.7-7.2-0.3-11
		c2-5.5,4.4-11,5.2-16.7c0.5-3.4-1.6-7.1-2.7-10.7c-1.2-4.1-2.5-8.2-3.6-12.4c-1.5-5.9,2.5-9.4,8.6-9.3c11.7,0.2,20.9,5.2,28.7,13.3
		c1.7,1.7,3,3.8,4.3,5.3c7.8-4.7,15-10.3,23.2-13.8c20.9-8.8,40.6-5.8,58.7,8.1c4.9,3.8,10,7.3,15,10.9c5,3.6,5.7,10.6,0.7,14.2
		c-8.8,6.5-17.8,12.7-27,18.6c-9.3,6-19.8,6.8-30.5,6c-11.9-0.9-22.1-5.8-31.2-13.3C396.8,678.6,394,676.9,390.9,674.8z
		 M401.4,662.7c24.5,22.8,47.5,20,69.1,0C449.2,642.8,425.6,640,401.4,662.7z M367.5,650.9c4.9,8.1,4.8,15.7,0.2,23.4
		c4.3-0.3,11.9-7.7,12.1-11.2C379.9,659.4,372.7,651.6,367.5,650.9z"/>
	<path class="st4" d="M368,482.4c1.3,0.4,3.2,1,5.2,2.1c1.6,0.8,13.4,6.9,14.4,16.9c0.9,9.3-5.3,15.2-12.9,19.5
		c-8,4.4-16.8,6-25.7,5.9c-10.2-0.1-20.1-1.3-29.2-6.9c-7.1-4.3-12.1-9.9-11.5-18.1c0.7-9.4,10.6-15,13.6-16.7
		c1.5-0.9,6.6-3.6,16.9-4.9C345.1,479.5,355.4,479.1,368,482.4z M349.1,512c0,0,8.8-0.3,18.6-4.8c1.5-0.7,3.8-1.9,3.9-3.5
		c0.1-1.3-1-2.8-3.2-3.9c-4.1-2.1-8.6-3.8-13.1-4.4c-6.8-1-17.7-1.7-25.8,2.9c-1.2,0.7-4.5,2.6-4.3,4.7c0.1,1,0.9,1.8,1.7,2.7
		c0,0,1.3,1.4,2.8,2.3C337.2,512.4,349.1,512,349.1,512z"/>
</g>
<g id="Layer_3" class="st1">
	<g class="st5">
		<path class="st6" d="M612.6,226.9c6.5,4.2,12.9,8.4,19.3,12.6c3.6,2.3,6.8,1.8,10.1-0.7c3-2.3,6.2-4.3,9.4-6.4
			c7.4-4.9,15.3-2.1,17,6.6c3.7,18.7,7,37.4,10.1,56.2c3.2,19.7,6,39.5,8.6,59.2c1.4,10.6,2.2,21.2,3.4,31.8
			c1.4,12.8,3.3,25.5,4.3,38.3c1.6,19.5,2.7,39,3.7,58.5c0.8,15.3,1.8,30.6,1.9,45.9c0.1,18.6,0.2,37.2-1.2,55.7
			c-1.6,21.7-3.9,43.5-7.7,64.9c-3,16.8-7.9,33.4-13.3,49.6c-4.3,13.1-13,23.6-25,31.1c-4.1,2.5-8.2,5.7-12.7,6.9
			c-7.5,2.1-14.2-1.2-20.3-5.6c-11.9-8.4-10.9-11.4-25.5-0.7c-12.9,9.5-20.5,9.8-33.9-0.4c-2.2-1.7-4.8-3-7-4.6
			c-3.6-2.7-6.7-2.2-10.3,0.2c-5.5,3.7-11.1,7.2-17,10.2c-6.5,3.2-12.8,1.8-18.7-2.1c-4.5-2.9-9-5.9-13.5-8.9
			c-2.8-1.9-5.5-1.5-8.2,0.3c-4.5,3-9.2,5.7-13.7,8.6c-8.1,5.4-16.1,4.3-23.8-0.7c-3.9-2.5-7.5-5.3-11.4-7.9
			c-3.6-2.4-7-2.2-10.7,0.6c-5,3.7-10.2,7.5-15.8,10c-8.1,3.7-15.8,0.7-22.8-3.8c-2.9-1.9-5.6-4-8.3-6.2c-3.6-3.1-7.2-2.8-10.9-0.2
			c-3.5,2.4-7,4.8-10.5,7.1c-12.4,8.2-21.8,5-32.3-4.2c-13.8-12.2-21.3-27.7-24.2-45.7c-2.6-16.2-6.2-32.3-8.1-48.5
			c-2.3-19.5-3.9-39.2-4.7-58.8c-1.1-29.4-2.1-58.8-1.5-88.2c0.7-31.4,3-62.8,5.4-94.2c1.7-22.8,4.2-45.5,7.2-68.2
			c3-23.3,7.1-46.4,10.7-69.6c0.8-5.3,1.4-10.6,2.1-16c1-7.8,9.2-11.9,16-7.7c3.5,2.1,6.5,4.8,9.9,7.1c3.1,2.1,6.5,3.2,10,1
			c6.7-4.2,13.4-8.6,20.1-12.8c0.6-0.4,2-1.1,4-1.1c2,0,3.5,0.8,4,1.1c8,4.8,14.4,8.7,19.1,11.5c4.1,2.5,8,3.6,12.5,0.5
			c6.2-4.3,12.9-8,19.3-12c0.6-0.4,2.1-1.3,4.3-1.4c2.4-0.1,4.1,1,4.7,1.4c7.7,4.6,13.5,8.2,17.8,11.3c4.9,3.6,9,3.1,13.8-0.1
			c5.9-4,12.2-7.4,18.3-11.1c0.7-0.4,2.5-1.3,4.9-1.2c2,0.1,3.4,0.8,4.1,1.2c9.9,6.4,17.3,10.9,20.1,12.7c1.3,0.8,2.5,1.2,3.7,1.3
			c2.6,0.1,4.6-1.2,5.4-1.8c3.4-2.3,10.8-6.5,20.7-12.2c0.5-0.3,1.7-0.9,3.3-0.9c1.8-0.1,3.1,0.6,3.7,0.9c9,5.2,15.8,9.2,19.8,11.9
			c1,0.6,3.2,2.1,6.1,2c1.5-0.1,3.1-0.6,4.8-1.7c6.3-4.2,12.8-8.1,19.3-12.1c0.7-0.4,2.4-1.4,4.8-1.5
			C610.1,225.3,611.9,226.4,612.6,226.9z M667,687.2c-2.3,0-3.8,0-5.3,0c-91,0-182,0-273,0c-1.5,0-3.2,0.5-4.4,0
			c-2.1-0.9-5-2.1-5.8-3.9c-0.8-2-0.2-5.2,0.9-7.3c2-4,6.1-3.2,9.7-3.2c92.2,0,184.4,0,276.5,0c1.3,0,2.8,0.3,4-0.1
			c1.1-0.4,2.6-1.5,2.8-2.5c1.9-7.7,3.8-15.4,5-23.1c1.7-10.8,3-21.7,4.3-32.6c1.4-12.2,3.1-24.3,3.5-36.5
			c0.6-22.8,0.5-45.6,0.3-68.3c-0.1-13.5-0.4-26.9-1.2-40.3c-0.9-14.3-2.4-28.5-3.8-42.8c-1.5-15.4-3-30.7-4.8-46
			c-1.8-14.6-3.9-29.1-5.9-43.6c-2-14.9-4.1-29.9-6.1-45c-8.2,0-15.8,0.1-23.4,0c-4.4-0.1-7.9-3.7-7.8-7.4c0.2-4,3.8-7,8.4-6.9
			c6.6,0,13.1,0,20.1,0c-1.9-10.3-3.6-19.9-5.4-30c-2.8,1.7-5.2,3.1-7.5,4.6c-7.6,4.9-15.5,4.9-23-0.1c-4.1-2.8-8.2-5.6-12.2-8.4
			c-3.3-2.2-6.5-2.7-10-0.1c-4,3-8.2,5.6-12.3,8.3c-7.2,4.9-17.1,5-24.2,0.1c-3.8-2.6-7.6-5.2-11.3-7.9c-4.1-3-7.9-2.9-12,0.4
			c-3.7,3-7.8,5.3-11.8,7.8c-7.7,4.9-15.3,4.3-22.8-0.3c-3.5-2.1-6.8-4.6-10.1-7c-5.9-4.3-9.4-4.2-15.1,0.1c-3.2,2.5-6.5,4.9-10,7
			c-6.5,4-13.5,5.1-20.5,1.4c-4.6-2.5-9-5.5-13.2-8.6c-5.4-3.9-8.1-4.1-13.4-0.4c-3.3,2.3-6.5,4.8-9.9,6.9c-8,4.9-16.3,5.8-24.6,0.7
			c-4.2-2.6-8.2-5.5-12.2-8.4c-3.1-2.2-6.2-2.9-9.5-0.5c-2.6,1.9-5.4,3.6-7.9,5.5c-8.3,6.1-17,9.6-27.1,4.3
			c-2.8-1.5-5.3-3.5-8.3-5.6c-1.7,10.3-3.2,19.9-4.8,30c2.7,0,4.6,0,6.6,0c92,0,184,0,276,0c2,0,4.2-0.5,5.9,0.3
			c2.3,1,5.2,2.6,6,4.6c0.7,1.9-0.2,5.7-1.8,6.9c-2.2,1.7-5.6,2.5-8.5,2.5c-85.7,0.1-171.4,0.1-257.1,0.2c-9.6,0-19.2,0-29.2,0
			c-0.3,1.7-0.7,3.4-0.9,5.1c-2.2,17.7-4.8,35.3-6.5,53c-2.9,30.3-5.7,60.6-7.9,90.9c-1.6,22.6-2.4,45.3-3,68
			c-0.3,11.8,0.4,23.5,0.9,35.3c0.8,18.7,1.8,37.4,3,56c0.7,10.2,1.8,20.4,3.1,30.5c1.8,13.9,3.9,27.8,6,41.8c1.6,0,2.4,0,3.3,0
			c12,0,24-0.1,35.9,0c5.3,0,8.9,3.5,8.7,8c-0.1,3.6-4,6.4-8.9,6.3c-10,0-20,0-30,0c-1.6,0-3.1,0.2-4.7,0.3c-0.1,1.1-0.2,1.6-0.1,2
			c3.2,12.7,10.5,22.8,20.3,31c3.6,3,8,3.5,12.3,0.1c3.5-2.8,7.2-5.4,11-7.8c7.8-4.8,15.6-5.5,23.6-0.2c4.2,2.8,8.5,5.4,12.6,8.2
			c3.5,2.4,6.8,2.8,10.4,0c3.4-2.6,6.9-5,10.4-7.3c6.2-4,12.8-6.8,19.9-3.2c5.4,2.7,10.6,6,15.6,9.5c5.2,3.6,8.9,3.8,13.8,0
			c3.2-2.5,6.5-5,10-7.1c4.5-2.7,9.2-4.2,14.9-3.5c8.1,1,13.4,6.3,19.5,10.5c5.1,3.5,8.3,3.8,13.4,0.3c4.2-2.8,8.1-6.2,12.7-8.1
			c4-1.7,8.8-2.6,13.1-2.4c6.6,0.2,11.9,4.1,16.7,8.4c6.4,5.7,10.8,6.4,17,2c2.3-1.6,4.3-3.7,6.6-5.2c7.5-5,15.2-8.9,24.2-3.1
			c4.5,2.9,9.2,5.6,13.7,8.6c3.7,2.5,7.2,3.8,11.1,0.6c3.2-2.5,6.9-4.6,9.8-7.3C658.6,706.7,664.1,698.3,667,687.2z"/>
		<path class="st7" d="M545.7,226.9c-6.9,4.1-14,7.9-20.7,12.2c-3.2,2.1-6,2.4-9.1,0.5c-6.7-4.2-13.4-8.5-20.1-12.7
			C512.5,226.9,529.1,226.9,545.7,226.9z"/>
		<path class="st8" d="M427.9,226.9c-6.5,4-13.1,7.7-19.3,12c-4.6,3.2-8.4,2-12.5-0.5c-6.4-3.9-12.7-7.7-19.1-11.5
			C394,226.9,411,226.9,427.9,226.9z"/>
		<path class="st9" d="M486.8,226.9c-6.1,3.7-12.4,7.1-18.3,11.1c-4.8,3.3-8.9,3.7-13.8,0.1c-5.7-4.1-11.8-7.6-17.8-11.3
			C453.5,226.9,470.2,226.9,486.8,226.9z"/>
		<path class="st10" d="M602.6,226.9c-6.4,4-13,7.9-19.3,12.1c-3.9,2.6-7.2,2.1-10.9-0.2c-6.5-4.1-13.2-7.9-19.8-11.9
			C569.4,226.9,586,226.9,602.6,226.9z"/>
		<path class="st6" d="M668.6,445.2c7.5,1.8,9.2,5.8,5.5,12.4c-4.3,7.8-8.5,15.7-12.4,23.7c-0.8,1.6-0.4,4.3,0.5,5.9
			c4,7.1,8.4,13.9,12.6,20.9c3.2,5.4,0.4,11.1-5.9,11.5c-7.9,0.5-15.9,0.3-23.9,0.4c-4.8,0-9.6,0-15.2,0c0,5.2-0.3,10.2,0.1,15
			c0.6,8.8-4,12.6-10.7,14.7c-1.6-0.1-3.3-0.4-4.9-0.4c-80.3,0-160.6,0-240.9,0c-1.6,0-3.3,0.2-4.9,0.4c-8-2.2-11-6.2-11.4-15.2
			c-0.1-2.3,0-4.7,0-7c0-2.3,0-4.6,0-7.6c-3.6,0-7,0-10.5,0c-9.1-0.1-18.3,0.1-27.4-0.3c-6.7-0.3-9.1-5-6.1-10.9
			c3.9-7.7,7.9-15.4,12-23c1.7-3.1,2.2-5.7,0-8.9c-4-5.9-8-12-11.3-18.3c-1.4-2.6-2-6.4-1.3-9.3c0.8-3.6,4.6-4.3,8.1-4.3
			c6,0,12,0,18,0c6,0,12,0,18,0c0.5-6.8,0.6-13.3,1.4-19.8c0.7-5.8,6-9.9,11.8-9.7c5.1,0.1,10.3,0.1,15.5,0.2c4.4,0,8.2,2.9,8.3,6.4
			c0.2,3.9-3.4,7.5-8,7.7c-4.3,0.2-8.6,0-13.1,0c0,35.3,0,70.1,0,105.2c80.8,0,161.6,0,242.7,0c0-34.9,0-69.7,0-105
			c-1.7-0.1-3.3-0.2-4.9-0.2c-64,0-128.1,0-192.1,0.1c-4,0-7.2-1.1-8.5-4.5c-0.8-2-0.2-5.4,1.1-7.2c1.1-1.6,4.1-2,6.2-2.9
			c1.6,0.1,3.3,0.4,4.9,0.4c63.7,0,127.4,0,191.1,0c1.7,0,3.3-0.1,5-0.2c9.2,2.2,11.7,5.3,11.7,14.3c0,4.9,0.1,9.9,0.2,14.8
			c0.7,0.4,1.3,1,2,1C644.1,445.4,656.3,445.3,668.6,445.2z M357.1,504.4c0.3-0.7,0.8-1.4,0.8-2.1c0-13.2,0.1-26.5,0-39.7
			c0-0.9-0.8-1.8-1.2-2.8c-8,0-15.9,0-24.9,0c2.4,4.2,4.4,8,6.8,11.5c4,5.9,6.5,11.2,1,18c-3.6,4.4-5.5,10.1-8.7,16.3
			C340.5,505.2,348.8,504.8,357.1,504.4z M629.8,459.9c0,14.3,0,28.4,0.1,42.4c0,1,1.3,2.7,2,2.7c7.7,0.2,15.4,0.1,24.2,0.1
			c-2.2-3.5-3.6-6-5.4-8.3c-6.1-8-8-15.8-0.9-24.5c2.8-3.4,4-8,6.1-12.5C647,459.9,638.8,459.9,629.8,459.9z"/>
		<path class="st6" d="M568.3,451.7c0.5-1.5,2.6-2.1,4.3-2.5c10.4-2.1,21.4,0.2,21.4,0.2c7.5,0.8,11.4,4.1,13.7,10.8
			c2.1,6-0.5,15.5-4.8,19c-1.4,1.1-2.7,2.2-4.3,3.5c2.9,5.5,5.5,11.2,8.8,16.5c3,4.7-0.8,6.1-3.3,8c-2.8,2.1-5.5,1.8-7.3-1.8
			c-2.6-5.3-5.4-10.5-8-15.9c-1.8-3.8-3.9-6.6-9.3-4.5c0,5.2-0.1,10.8,0,16.5c0.1,5.4-3.1,7.7-8.3,5.8c-0.5-0.2-0.8-0.5-0.8-0.5
			c0,0-1.2-0.9-2-2.5c-0.7-1.6-0.9-22.7-0.4-51.6C568.2,452.5,568.2,452.1,568.3,451.7z M580,475.1c5.4-0.3,11.6,2.3,15-3.3
			c1.5-2.4,1.2-8.9-0.3-9.7c-4.1-2.2-9.3-2.4-14.7-3.5C580,464.9,580,469.7,580,475.1z"/>
		<path class="st11" d="M485.4,478.4c0,4-0.4,8,0.2,11.9c0.4,2.3,1.9,5.6,3.7,6.3c2.4,0.9,6.2,0.5,8.3-0.9c1.8-1.3,2-4.8,2.6-7.5
			c0.1-0.3-2.2-1.5-3.4-1.6c-2.8-0.2-4.8-1-5-4.3c-0.2-3.4,1.7-4.9,4.6-5.4c2-0.3,4-0.2,6-0.2c10.2,0,10.5-0.3,10.3,10.7
			c-0.1,7.2-1.3,14.4-8.7,18.4c-7.8,4.2-25.4,3.7-29.1-7.5c-0.6-1.7-1.2-3.5-1.2-5.2c0-10.5-0.4-21.1,0.4-31.6
			c0.6-7.6,8.3-12.8,16-12.2c3.5,0.3,7.1,0.4,10.6,1c6.8,1.1,12.5,8.7,11.8,15.3c-0.3,3.3-1.7,5.2-5.4,5c-3.2-0.2-6.2,0.3-6.9-4.3
			c-0.9-5.7-3.4-7.3-9.2-6.5c-4.8,0.6-5.6,4.2-5.6,8.2C485.5,471.4,485.5,474.9,485.4,478.4C485.5,478.4,485.4,478.4,485.4,478.4z"
			/>
		<path class="st12" d="M452.8,472.4c0-6,0.2-12-0.1-18c-0.2-4.9,3.1-5.4,6.4-5.5c3.1,0,5.8,1.1,5.8,5.2
			c-0.1,12.1,0.4,24.3-0.2,36.4c-0.7,13.1-8.1,17.9-23.1,17.5c-11.3-0.3-17.5-8.3-17-19.8c0.5-11.1,0.4-22.3,0-33.4
			c-0.1-3.8,0.7-5.7,4.5-5.9c5.2-0.3,7.5,1.5,7.6,5.9c0.1,7,0.1,14,0,21c-0.1,4.8-0.6,9.5-0.7,14.3c-0.1,3.8,3.7,7.2,7.9,7.3
			c3.3,0.1,5.7-0.7,7.1-2.3c1.3-1.5,1.4-3.2,1.5-4.3c0.5-6.4,0.4-13,0.3-16.5C452.8,473.6,452.8,473,452.8,472.4z"/>
		<path class="st13" d="M553.7,507.6c-1.2-0.6-1.8-1.9-3.1-4.6c-2.1-4.5-1.5-5.5-3-6.6c-1.3-0.9-3.2-1-7.2-1c-1,0-2,0.1-3,0
			c-5.1-0.8-7.8,0.6-8.3,6.4c-0.4,5.4-2.8,6.7-7.2,5.6c-4.7-1.1-6.2-3.4-4.7-8.4c3.3-11,6.8-22,10.3-33c1.2-3.8,2.3-7.5,3.3-11.4
			c1.1-4.3,3.5-6.4,8-6.4c4.4,0,8,1.2,9.5,5.8c3.2,10.6,6.5,21.1,9.7,31.7c1.3,4.3,2.6,8.7,3.9,13c0.7,2.3,0.8,4.2-0.2,6
			C560,507.4,556.1,508.8,553.7,507.6z M540.2,465.1c-0.4-0.1-0.8-0.2-1.3-0.3c-1.9,7.1-3.8,14.2-5.6,21.3c4.2,0,8.1,0,12.5,0
			C543.9,478.8,542.1,471.9,540.2,465.1z"/>
		<path class="st14" d="M381.9,503.6c-0.2-0.2-0.6-0.5-1-1.1c-1.9-2.6-2.5-7.1-0.1-9.4c3.1-2.9,5.5-1,7.7,1.1
			c4,3.9,8.7,3.7,13.4,2.6c4.1-1,5.2-5.6,1.9-8.5c-2.5-2.2-6-3.3-8.8-5.3c-4.5-3.2-10-5.9-12.7-10.2c-6.2-9.9,0.1-21.9,11.7-23.7
			c7-1.1,13.5-1.2,19.8,2.4c3.3,1.9,3.1,4.8,1.7,7.5c-1.4,2.8-3.8,2.9-6.8,1.8c-3.3-1.2-7-2-10.5-1.9c-1.9,0.1-5,2.3-5.2,3.9
			c-0.2,1.9,1.5,4.9,3.3,6c4,2.5,8.9,3.5,12.8,6.1c7.8,5.2,10.8,14,7.7,22.2c-0.9,2.5-2.2,4.5-3.9,6.2c-5,4.8-11.7,5.1-14.9,5.2
			c-1.6,0-2.8-0.1-3.7-0.1C391.1,507.9,385.3,506.6,381.9,503.6z"/>
		<path class="st15" d="M668.6,445.2c-12.3,0.1-24.5,0.2-36.8,0.2c-0.7,0-1.3-0.7-2-1c11.4,0,22.7,0,34.1,0.1
			C665.5,444.5,667,445,668.6,445.2z"/>
		<path class="st16" d="M580,475.1c0-5.4,0-10.1,0-16.5c1.4-0.5,6.9-2.1,11.6,0.7c0.7,0.4,2,1.2,3.1,2.8c2,3,1.9,7.1,0.3,9.7
			C591.6,477.3,585.4,474.8,580,475.1z"/>
		<path class="st17" d="M540.2,465.1c1.8,6.9,3.7,13.7,5.6,20.9c-4.4,0-8.3,0-12.5,0c1.9-7.1,3.8-14.2,5.6-21.3
			C539.4,464.8,539.8,465,540.2,465.1z"/>
		<path class="st6" d="M583.7,459.3"/>
	</g>
</g>
<g id="Layer_5" class="st1">
	<g class="st5">
		<path class="st6" d="M754.1,519.6c0,0.9-0.1,3.5-0.7,6.9c0,0-0.2,0.7-0.2,1.3c-2.5,28-10.5,54.5-22.3,79.8
			c-14.4,30.8-34.2,57.9-59.3,80.8c-21.2,19.2-44.7,35-71.2,46.4c-29,12.5-59,19.3-90.5,20.8c-43.6,2-84.8-7.1-123.9-26.2
			c-24.7-12.1-46.7-28.1-66.3-47.5c-21-20.8-38-44.4-50.5-71c-11.7-24.9-19.6-51-22.9-78.7c-2.8-24.1-2.4-48,1.2-71.9
			c3.9-26.7,12.8-51.7,24.4-75.7c4.6-9.5,10.2-18.5,16.6-26.9c10-13.3,20.5-26.4,31.8-38.6c13.1-14.2,28.5-26.1,45.3-35.6
			c14.6-8.2,29.9-15.6,45.4-22c17.7-7.3,31-9.8,34.3-10.5c7.4-1.6,13-2.4,20.5-3.6c11.9-1.8,20.6-3,32.1-3.2
			c8.8-0.1,15.4,0.5,19.4,0.9c10.1,1,23.9,3,40,7.9c1.2,0.3,3.5,0.9,5.4,2.9c1.3,1.3,1.9,2.6,2.3,3.5c2.6,5.7,1,11.2-3.2,15.8
			c-9.8,10.6-14,23.1-11.2,37.2c2.9,14.5,10.7,25.9,25.1,31.5c8.1,3.2,12,10.2,9.8,18.8c-3.1,12.6-0.9,24.4,6.3,34.9
			c12.1,17.9,35.3,23.3,55,13.1c7.1-3.7,13.2-3.3,19.5,2.5c7.8,7.3,17.1,11,27.5,11.2c10.1,0.3,19.5-2.8,27.5-9.2
			c6.2-4.8,18.6-2.5,20.8,6.4c3.2,12.5,6.4,24.9,9.2,37.4c0.2,1,0.6,2.9,1.1,5.7c0.1,0.6,1.8,9.7,2.6,16.8
			C756.5,496.5,754.7,506,754.1,519.6z M654.9,425.4c-12.8,6.2-26.5,8.6-40.9,5.3c-30.2-6.8-51.4-36.5-45.1-67.5
			c0.5-2.5-0.2-4.6-2.8-5.8c-10.2-4.8-17.9-12.3-23.7-21.8c-8.2-13.4-11-28.1-7.1-43.3c2.3-8.8,6.5-17.1,9.8-25.5
			c-87-19.5-207.6,16.8-262.6,134.2c-40.5,86.4-29.8,211,73,290.1c79.3,61,197.1,69.3,289.2-1.7c89.7-69.2,108.3-180.6,82.5-257.9
			C701.9,445.7,677.8,443.8,654.9,425.4z"/>
		<path class="st6" d="M567.8,304.8c-0.2-14.1,11.3-26,25.7-25.5c13.1,0.5,24.1,10.2,24.7,24.6c0.7,14.6-11.1,26.2-25.5,26.1
			C578.5,329.9,567.5,318.3,567.8,304.8z M584.3,304.7c0,4.3,4.4,9.3,8.3,9.3c3.9,0,9.1-5,9.2-8.9c0.2-4.6-4-9-8.7-9
			C588.2,295.9,584.3,299.7,584.3,304.7z"/>
		<path class="st6" d="M719.9,382.1c1.1,14.9-13.4,24.6-24.2,24.5c-14.7,0-25.6-10.4-25.8-25.6c-0.2-13.2,10.9-25,25.5-25.1
			C707.5,355.8,722.3,368.3,719.9,382.1z M694.7,389.9c5.6,0.1,9-3,9.2-8.4c0.1-4.6-3.9-8.5-8.8-8.6c-4.1-0.1-8.7,3.7-8.9,7.3
			C685.8,385.5,689.6,389.8,694.7,389.9z"/>
		<path class="st18" d="M627.8,347.6c14.8,0.6,25,12.2,24.4,26.8c-0.5,13.3-11.1,24.1-26.5,23.6c-12.5-0.4-24.6-10.9-23.9-26.1
			C602.5,358.1,613.8,347.3,627.8,347.6z M635.8,373.1c0.1-4.4-3.9-9-8.1-9.2c-4.5-0.2-9.1,4.2-9.3,9c-0.2,4.2,4.2,8.6,8.7,8.7
			C631.7,381.6,635.6,377.9,635.8,373.1z"/>
		<path class="st14" d="M532.8,501c1.3-3.7,1.7-7.4,3.7-9.6c6.8-7.5,13.8-15,21.6-21.5c6-5,15.9-3,21.4,2.6
			c5.4,5.4,10.8,10.8,16.3,16.1c7.1,6.8,7.4,17,0.4,24.1c-6,6.1-11.9,12.3-18.4,17.9c-6.6,5.7-14.5,5.8-21,0.3
			c-6.7-5.7-13-11.8-18.8-18.3C535.5,509.4,534.5,504.8,532.8,501z M567.6,483.2c-0.9,0.3-1.6,0.4-2,0.8c-4.9,4.9-9.8,9.7-14.5,14.8
			c-0.6,0.7-0.3,3.2,0.5,4.1c4.2,4.6,8.6,9,13.1,13.3c0.7,0.7,3,0.8,3.7,0.2c4.9-4.5,9.7-9.2,14.3-14.1c0.8-0.8,0.8-3.5,0.1-4.3
			c-3.8-4.4-7.9-8.5-12-12.6C569.9,484.5,568.7,484,567.6,483.2z"/>
		<path class="st6" d="M438.9,433c-3.6-1.7-7.8-2.7-10.7-5.3c-6.5-5.8-12.4-12.4-18.5-18.6c-5.3-5.5-5.1-18.4,1.6-23.4
			c5.1-3.8,9-9.2,13.5-13.8c9.5-9.9,19.2-9.4,29.2-0.5c5.4,4.8,10.5,10.1,15.4,15.4c6.2,6.8,5.3,17.5-1.5,24
			c-5.3,5-10.5,10.2-15.4,15.5c-3.6,3.9-7.7,6.1-13.1,5.5C439.2,432.3,439,432.7,438.9,433z M439.8,379.6
			c-5.6,5.8-10,10.7-14.9,15.2c-3.1,2.9-2.5,5.2,0,7.8c3.6,3.6,7.1,7.3,10.9,10.7c1,0.9,3.6,1.8,4.2,1.3c5.9-5.4,11.4-11,16.8-16.2
			C451,392.1,445.8,386.3,439.8,379.6z"/>
		<path class="st18" d="M440.1,680c-0.4-5.1,1.2-9.4,4.9-13c5.6-5.6,11.1-11.5,16.9-17c6.5-6.2,18.2-5.2,24.4,1.4
			c5,5.3,10.2,10.5,15.5,15.5c7.1,6.7,7.9,17.2,1.2,24.5c-5.3,5.8-10.8,11.3-16.5,16.6c-7.6,7.1-18.8,6.8-26.2-0.6
			c-5.3-5.3-10.7-10.3-15.5-16c-2.6-3.1-3.9-7.2-5.8-10.8C439.3,680.4,439.7,680.2,440.1,680z M491.1,678.3
			c-4.4-4.1-9.7-8.9-14.7-14c-2.4-2.5-4.2-1.9-6.2,0c-4.1,4-8.4,7.8-12.2,12c-1,1-1.3,4.1-0.6,5c4.8,5.6,10.1,10.8,15.9,16.9
			C479.4,691.5,484.7,685.5,491.1,678.3z"/>
		<path class="st19" d="M413.7,595.1c-3.9-1.9-8.1-2.9-10.8-5.5c-7.3-6.9-14.4-14.1-20.6-21.9c-4.4-5.6-2.2-15.3,3-20.2
			c4.8-4.5,9.9-8.9,14.2-13.9c7-8.1,20.3-10.1,28.6-0.1c4.5,5.4,10.1,10,15.1,15c6,6.1,6.4,17.7-0.3,24.4
			c-5.5,5.5-10.7,11.5-16.7,16.4C423,592,418.4,593,413.7,595.1z M413.7,577.9c5.7-5.4,11.1-10.2,16.2-15.4c0.7-0.7,0.6-3.3-0.2-4.2
			c-4.3-4.7-8.9-9.2-13.5-13.6c-0.8-0.7-2.9-1.4-3.4-0.9c-5.7,5.3-11.3,10.8-16.4,15.8C402.6,566.2,407.9,571.8,413.7,577.9z"/>
		<path class="st19" d="M566.5,637.2c2.1-4.5,3.1-9.2,5.9-12.3c5.5-6.3,11.7-12.2,18.2-17.6c8.1-6.8,17.3-5.4,24.5,2.4
			c4.8,5.2,10.2,10,15.1,15.2c7.7,8.1,6.6,16.6,0.6,23.7c-5.6,6.6-12.2,12.3-18.6,18.1c-6.5,5.9-16.9,5-23-1.2
			c-5.4-5.6-11.4-10.6-16.5-16.5C569.9,645.9,568.6,641.4,566.5,637.2z M601.5,655.5c5.7-6.6,10.9-12.7,16.7-19.5
			c-4.8-4.9-10.8-11-16.6-17c-5.7,5.6-10.4,10.5-15.4,15.1c-2.3,2.1-2.2,3.5-0.1,5.6C591,644.4,595.6,649.4,601.5,655.5z"/>
		<path class="st20" d="M644.5,551.2c0-4.2,3.4-7.7,7.4-7.8c4.9,0,9.2,4.2,9,8.8c-0.1,3.6-4.9,8.1-8.6,8.1
			C648.4,560.4,644.5,555.8,644.5,551.2z"/>
		<path class="st21" d="M380.1,364.2c-4.1,0.1-8.5-4-8.6-8c-0.1-4.2,4.2-8.7,8.3-8.7c4.7,0.1,8.4,3.9,8.4,8.7
			C388.2,360.1,384.1,364.2,380.1,364.2z"/>
		<path class="st12" d="M337.4,491.9c-4.5,0-8.3-3.7-8.4-8.1c0-4.6,3.7-8.3,8.5-8.3c4.2,0,8.1,3.9,8.1,8.2
			C345.7,488,341.8,491.9,337.4,491.9z"/>
		<path class="st22" d="M363.4,611.8c4.9,0.4,7.8,3.7,7.5,8.4c-0.4,5.3-3.7,8-9.1,7.7c-4.2-0.3-7.6-4.5-7.3-8.9
			C354.9,614.8,359,611.5,363.4,611.8z"/>
		<path class="st22" d="M550.1,671.2c4.7-0.4,8.5,4.6,8.5,8.2c0.1,4.5-3.6,8.1-8.2,8.2c-4.4,0.1-8.3-3.8-8.3-8.1
			C542.1,674.8,545.4,671.3,550.1,671.2z"/>
		<path class="st23" d="M516.2,594.5c0.1,3.7-4.1,7.9-8,8c-5,0.1-8.9-3.5-9-8.4c-0.1-3.9,3.9-7.8,7.9-7.9
			C511.9,586.1,516.1,590,516.2,594.5z"/>
		<path class="st24" d="M524.5,373c-0.1,3.9-4.7,8.5-8.4,8.4c-4.3-0.1-8.1-4.2-8-8.5c0.2-4.8,4.1-8.7,8.6-8.5
			C520.9,364.6,524.5,368.6,524.5,373z"/>
		<path class="st25" d="M457.1,491.7c-0.1-4.2,3.5-7.9,7.7-8c4.1,0,8.5,4,8.7,7.9c0.1,4.5-3.4,8.5-7.7,8.5
			C460.1,500.1,457.2,497.2,457.1,491.7z"/>
	</g>
</g>
<g id="Layer_1_1_">
</g>
<g>
	<path class="st6" d="M216.1,685.2c3.9-6.3,9.6-7.9,16.8-7.9c44.3,0.3,88.7,0.1,133,0.1c2,0,4.1,0,7.5,0c-2.3-2-3.7-3.2-5.2-4.4
		c-53.1-45.3-80-103-81.2-172.7c-0.1-7.9-0.1-15.9,0-23.8c0.2-19.9,15.1-35,35-35.4c11.5-0.2,22.9-0.1,34.4-0.1
		c98.3,0,196.6,0,294.9,0c23,0,37.8,14.7,37.9,37.7c0,3.7,0,7.4,0,11.1c0,1.4,0.2,2.9,0.3,3.9c10.6-1.8,20.8-4,31.2-5.2
		c12.5-1.4,24.8,0,36.1,5.9c19,9.9,25.4,27.2,26.8,47.2c1.6,22.6-8,40.5-23.9,55.5c-19.5,18.3-42.8,30.2-67.7,38.9
		c-19.5,6.8-39.6,11.6-59.4,17.5c-3,0.9-6,2.6-8.4,4.7c-6.9,6-13.5,12.3-21,19.3c2.7,0,4.7,0,6.6,0c45.1,0,90.2,0.1,135.3-0.1
		c6.2,0,11.5,1.2,14.1,7.5c2.6,6.3-0.5,10.9-4.9,15.2c-8.1,7.9-15.9,15.9-23.9,23.9c-16.4,16.2-36.2,24.5-59.3,24.5
		c-122,0-243.9,0-365.9,0c-22.2,0-41.6-7.5-57.7-22.9c-9.2-8.8-18.1-17.9-27.1-27c-1.6-1.7-2.9-3.7-4.4-5.5
		C216.1,690.4,216.1,687.8,216.1,685.2z M488.4,464.5c-54.5,0-109,0-163.5,0c-9.3,0-14.3,4.3-14.2,13.1c0.3,15.9-0.2,31.9,1.9,47.5
		c8.9,66.4,43.1,116.2,100.7,150.1c2.2,1.3,5.2,2.1,7.8,2.1c44.7,0.1,89.4,0.1,134.1,0c2.4,0,5.1-0.7,7.3-1.9
		c43.9-24.8,74.3-61,91.6-108.4c10.3-28.3,12.1-57.6,11.4-87.3c-0.3-11.5-3.9-15.3-15.3-15.3C596.2,464.5,542.3,464.5,488.4,464.5z
		 M719.1,701.4c-154.3,0-307.6,0-461.7,0c1,1.2,1.4,2,2,2.6c12.9,14.2,29,21,48.2,20.9c31.8-0.1,63.6,0,95.3,0
		c88.3,0,176.6-0.1,265,0.1C688.4,724.9,705.3,717.8,719.1,701.4z M653.2,623.9c0.1,0,0.6,0.2,1.1,0c22.5-6.5,44.5-14.5,65-26.1
		c11.1-6.3,21.4-13.7,29.9-23.5c10-11.6,13-25,9.8-39.8c-3-14.4-11.5-21.5-26.1-22.5c-13.3-0.9-26,2.2-38.6,5.8
		c-4.6,1.3-6.4,3.7-6.8,8.4c-2,21.1-7.3,41.4-15.8,60.7C666.1,599.6,659.4,611.7,653.2,623.9z"/>
	<path class="st6" d="M476.4,369.5c0-15.4,4.6-29.3,13.8-41.8c12.8-17.4,13.1-38.4,1-56.3c-4.4-6.6-3.7-13.6,2-17.6
		c5.8-4.1,12.4-2.6,17.3,3.9c17.7,23.6,17.6,58.2-0.4,82.8c-11.4,15.6-12.9,32.1-5.5,49.6c1.1,2.7,2.9,5.1,4.5,7.6
		c4.1,6.3,3.2,13.2-2.3,17.2c-5.4,3.9-12.4,2.6-17-3.5C480.4,399,476.3,384.9,476.4,369.5z"/>
	<path class="st6" d="M594.5,298.9c0,15.4-4.4,29.4-13.6,41.9c-13,17.7-13.3,38.4-1.1,56.7c4.4,6.5,3.4,13.6-2.3,17.5
		c-5.5,3.8-12.3,2.2-16.9-3.8c-17.6-23-17.9-58.3-0.2-82.3c11.4-15.5,13.5-31.9,6.3-49.6c-1.3-3.2-3.5-6-5.3-9
		c-3.6-5.8-2.5-12.5,2.5-16.3c5.4-4,12.3-3,16.7,2.6C590.2,269.1,594.6,283.3,594.5,298.9z"/>
	<path class="st6" d="M405.5,370.1c0-15.2,4.1-29.1,13.1-41.5c13.5-18.6,13.9-38.5,1.4-57.7c-4.1-6.3-3.2-13.3,2.3-17.1
		c5.7-4,12.2-2.6,16.9,3.5c17.9,23.3,18,58.6-0.1,83.2c-9.8,13.3-12.5,27.8-7.8,43.4c1.4,4.8,4.2,9.4,6.9,13.7
		c3.9,6.4,3.2,13.2-2.3,17.2c-5.4,3.9-12.4,2.6-17-3.5C409.7,399.2,405.5,385.3,405.5,370.1z"/>
</g>
<g class="st1">
	<path class="st3" d="M282.9-812c10.7,2.2,21.6,3.6,32,6.8c40.2,12.3,70.4,37.2,90.8,74c0.7,1.3,1.4,2.6,2.2,3.9
		c0.2,0.3,0.5,0.6,1,1.2c6.6-3.5,13-7.4,19.8-10.6c40.7-18.9,81.9-20.2,123.7-3.9c7.8,3.1,11.1,8.5,8.9,14.9
		c-2.1,6.4-8.4,8.5-16.1,6.3c-11.7-3.3-23.4-7.6-35.5-9c-42.3-5-79.2,8-108.8,38.5c-39.9,41.2-48.6,97.5-24.5,149.4
		c23.6,50.8,82.3,82,137.6,72.3c56.3-9.9,92.6-42.9,108.1-97.8c8-28.3,4.9-56.3-6.4-83.4c-1.1-2.6-2.4-5-3.3-7.7
		c-2.4-6.5,0-12.5,5.8-14.9c5.5-2.3,11.9-0.2,14.3,6c4.7,12.1,8.8,24.3,12.6,36.7c1.9,6.1,2.3,12.7,3.5,19.1c0,8.2,0,16.4,0,24.5
		c-2.1,10.3-3.3,20.9-6.5,30.9c-19.9,60.9-61.3,97.7-124.6,108.5c-38,6.5-73.4-1.9-106-22.3c-2.8-1.8-7-2.5-10.4-2.1
		c-30.7,3.5-60.2-1.1-87.5-15.4c-50-26.1-78.1-67.5-84.3-123.7c-1.7-15.5-0.2-30.7,2.7-46c1.4-7.5,5.2-12.1,13.1-12.8
		c2.4-0.2,4.7-1,8-1.7c-1.5-2.3-2.7-4.2-4-6.1c-24.6-36.5-32.4-76.3-23.8-119.4c1.7-8.7,4.3-11.2,13-12.9c6.7-1.3,13.5-2.3,20.2-3.5
		C266.6-812,274.7-812,282.9-812z M366-683.5c7.4-8.5,14.3-16.8,21.6-24.6c2.5-2.7,2.6-4.6,1.1-7.7c-14.1-28.4-35.7-49.2-64.3-62.3
		c-24.7-11.2-50.8-14.5-78-9.1c-0.7,5.1-1.4,10-2,15c-0.2,1.5-0.2,3-0.2,4.4c-0.8,35.6,10.6,66.7,34.6,93c1.6,1.8,4.6,3,7.1,3.2
		c20.2,1.5,39.6,6.1,57.8,14.9c2.3,1.1,4.6,2.2,6.9,3.2c5.5-8.5,5.5-8.5-1-15.1c-22.1-22.1-44.1-44.1-66.2-66.2
		c-1.7-1.7-3.4-3.5-4.7-5.5c-2.8-4.2-2.2-9.8,1.1-13.3c3.5-3.8,9.2-4.6,13.7-1.8c2,1.3,3.8,3,5.5,4.6
		C321.2-728.3,343.5-706,366-683.5z M342.2-574.4c0.2-1.2,0.4-1.7,0.3-2.2c-2.3-17.1-1.8-34,1.3-51c0.3-1.6-1.4-4.5-2.9-5.4
		c-15.8-9.1-33-14.6-51.1-15.9c-12.1-0.8-24.3,0.2-36.1,0.3c-17,93.6,62.3,160.8,127.8,155.7c-6.1-8.6-12.4-17.5-18.8-26.4
		c-3-4.2-5.9-8.6-9.5-12.2c-21.3-21.5-42.8-42.9-64.2-64.3c-6.4-6.4-7.2-13.1-2.2-18c5-4.9,11.5-4.1,18,2.4
		c11.1,11,22.1,22.1,33.1,33.1C339.2-577,340.5-575.9,342.2-574.4z"/>
	<path class="st3" d="M648.7-281.2c-0.4,1-0.8,2.1-1.1,3.1c-5.3,24.3-26.1,39.3-50.8,36.7c-27.3-2.9-47.7-17.3-63.4-39
		c-7.8-10.8-12.7-23-14.4-36.3c-4.6-35.8,24.7-62.1,59.6-52.9c37.8,9.9,60.9,34.2,69.3,72.5c0.1,0.5,0.5,1,0.8,1.4
		C648.7-290.9,648.7-286,648.7-281.2z M608.4-327.3c-11-12.7-26.6-20.6-41.2-21.6c-13.7-0.9-24.1,7-25.7,20.6
		c-2.2,19,7.3,33.2,19.9,46c-5-14.7-8.8-29.7,3.7-42.2C577.5-337,592.4-333.6,608.4-327.3z M620.9-278.6c-0.6-6.8-5.5-14.2-12-20.4
		c-6.2-6-13.2-10.9-22.3-11.3c-5.6-0.2-8.2,1.9-7,7.2c1.2,5.8,3.4,11.8,6.7,16.7c6.4,9.4,15.1,16.4,27,17.6
		C619.2-268.2,621.1-270.2,620.9-278.6z"/>
	<path class="st3" d="M127.9-629c17.8-0.7,32.9,2.2,46.9,10c16.6,9.2,27.5,23.1,35.7,40c18.2,37.7,37,75.2,55.6,112.8
		c2.3,4.7,4.4,9.8,0.6,14c-2.4,2.6-6.8,4.3-10.5,4.6c-5,0.4-7.7-3.9-9.7-8c-16.8-33.5-34.2-66.7-49.9-100.7
		c-4.6-10.1-11.3-12.6-20.3-13.3c-8.7-0.7-16.7,2.3-21.1,9.9c-5.2,9-12.3,10.2-21.3,8.2c-11-2.5-21.5-2-30,6.7
		c-1.4,1.5-2.6,4.1-2.4,6.1c10.9,125.5,102,233.4,222.5,263.5c10.1,2.5,20.3,4.3,30.6,6.1c6.7,1.2,13.6,1.7,21.7,2.7
		c-1.8-2.4-3-4-4.2-5.5c-24.8-33.4-49.6-66.8-74.3-100.2c-1-1.3-2-2.7-2.8-4.2c-3.3-5.8-2.1-11.8,2.9-15.3c5-3.5,10.9-2.4,15.3,2.7
		c0.7,0.8,1.4,1.8,2,2.7c28.6,42.6,60.3,82.9,92.3,123c1.2,1.5,2.4,2.9,3.4,4.4c2.6,3.9,3.4,8.5,0.4,11.9c-2.4,2.7-6.7,5.7-10,5.5
		C295.4-247,206.3-286,142-372.7c-43-58-64.3-123.6-64.3-196c0-21.2,8.3-38,25.5-50.6c2-1.5,3.1-5.3,3.2-8
		c1.3-29.1,12.1-54,31.9-75.2c4.8-5.1,10-6.3,14.9-3.7c6.9,3.8,7.9,11.7,1.8,18.4c-8.9,9.7-16.4,20.3-20.5,32.8
		C131.8-646.8,130.2-638.3,127.9-629z M174.1-592.2c-12.6-10.6-25.8-15.2-40.6-14.4c-19.1,1-34,17.6-33,36.7
		c9.5-4.4,19.4-6.5,29.7-4.5c5.1,1,8.3-0.4,11.9-4.2C150.3-587.3,161-591.2,174.1-592.2z"/>
	<path class="st3" d="M496.9-358.9c-0.4,20-5.3,38.6-18.2,54.3c-22.5,27.2-60.1,24.7-78.2-5.6c-19.4-32.2-19.5-65.1-0.2-97.4
		c19.4-32.5,61.8-32.6,82.3-0.8C492.4-393.3,496.6-376.7,496.9-358.9z M474.2-356c1.3-15.9-4.1-33.1-13.4-44.1
		c-10.3-12-24.7-13.1-36-2.1c-3.9,3.8-7,8.7-9.6,13.5c-5.3,9.7-7.5,24-5.5,31.3c6.2-14.4,14-27.5,31.9-27.5
		C459.7-385.1,467.5-371.7,474.2-356z M428.8-335.6c0,8.3,1.5,16.3,6.5,23.2c4.2,5.6,8.2,5.5,12.5,0c8.8-11.2,8.8-35.1,0.1-46.3
		c-4.4-5.6-8.8-5.5-12.9,0.4C430.2-351.5,428.7-343.7,428.8-335.6z"/>
	<path class="st3" d="M282.5-404.8c-6.3-0.1-11-5.1-10.8-11.6c0.1-6.1,5-10.8,11.1-10.7c6.1,0.1,11.2,5.6,11,11.6
		C293.5-409.5,288.5-404.8,282.5-404.8z"/>
	<path class="st3" d="M608.8-431.8c-5.8,0.2-11.1-4.9-11.3-10.8c-0.2-5.8,4.9-11.1,10.8-11.3c5.8-0.2,11.2,4.9,11.4,10.8
		C619.8-437.5,614.6-432,608.8-431.8z"/>
	<path class="st3" d="M572.7-407.3c0-6.1,4.9-11.1,10.9-11.1c5.9,0,11,5.1,11,11.1c0,6-5.1,11.1-11,11.1
		C577.6-396.2,572.7-401.2,572.7-407.3z"/>
	<path class="st3" d="M539.5-410.3c-6.1,0-11.1-4.8-11.1-10.8c-0.1-6,4.9-11,11-11c6,0,11.1,4.9,11.2,10.8
		C550.5-415.3,545.5-410.3,539.5-410.3z"/>
	<path class="st3" d="M494.7-711.6c62.6-0.1,114,51.3,113.8,113.9c-0.2,62.4-51.3,113.4-113.7,113.5
		c-62.5,0.1-113.9-51.4-113.8-113.9C381.2-660.7,432.2-711.6,494.7-711.6z M410.6-633.7c-9.5,24-9.6,47.4,0,71.4
		c20.6-11.9,40.8-23.6,61.8-35.7C451.3-610.2,431.3-621.7,410.6-633.7z M578.9-562.3c9.6-24.2,9.6-47.5-0.1-71.3
		c-20.7,12-40.8,23.6-61.7,35.7C538.2-585.8,558.2-574.2,578.9-562.3z M483.4-578.5c-20.9,12-41,23.7-61.6,35.6
		c16.3,20.3,36.3,32.1,61.6,35.5C483.4-531.2,483.4-554.4,483.4-578.5z M483.4-688.5c-25.4,3.5-45.5,15.3-61.6,35.6
		c20.6,11.9,40.9,23.6,61.6,35.5C483.4-641.7,483.4-664.8,483.4-688.5z M506.3-578.4c0,24.2,0,47.4,0,71
		c25.4-3.6,45.5-15.4,61.5-35.6C547.2-554.8,527-566.4,506.3-578.4z M567.8-653c-16-20.1-36.1-32.1-61.5-35.5c0,23.7,0,46.9,0,71
		C527-629.5,547.2-641.1,567.8-653z"/>
	<path class="st3" d="M608.4-697.5c0.2,5.7-5,11.2-10.9,11.3c-6.1,0.2-12.6-6.2-12.8-12.4c-0.1-6,4.8-11.1,10.8-11.2
		C601.7-710,608.2-703.8,608.4-697.5z"/>
</g>
<g class="st1">
	<path class="st3" d="M1085-69.3c-5.3-3.5-11.6-6.2-15.7-10.8c-3.3-3.7-4.8-9.6-5.4-14.7c-0.9-7.5-0.6-15.2-0.2-22.8
		c0.2-4-1.6-6-4.6-8c-24.6-16.5-45.9-36.4-63.7-60.1c-26.4-35.2-43.4-74.6-51.9-117.7c-2.1-10.7-3.8-21.6-5.4-32.4
		c-1.5-9.9,4.4-16.6,14.5-16.8c4.6-0.1,9.3,0,14.2,0c0.7-4.1,1.3-7.9,2.1-11.7c8.3-37.3,30.4-62.8,66-76.6c3.7-1.4,5.5-3.4,6.5-7.1
		c11.8-44.5,52-75.5,98.4-76.2c45-0.6,86.1,29.6,99.2,73c0.4,1.3,0.9,2.7,1.6,4.9c1.3-2.6,2.2-4.4,3-6.2c27-58.5,53.8-117,81-175.3
		c2-4.3,5.5-8.7,9.5-10.9c9.1-5,32.6,6.1,34.6,16.4c0.9,4.5-0.3,10.1-2.4,14.3c-22.8,46.7-45.9,93.3-68.9,139.8
		c-7,14.1-13.9,28.2-20.9,42.3c0.4,0.4,0.8,0.8,1.3,1.2c3.6-3.4,7.8-6.2,10.5-10.2c39-56.8,77.8-113.8,116.6-170.7
		c9.7-14.2,16.4-15.4,30.7-5.4c1.7,1.2,3.3,2.3,5,3.5c10.2,7.3,11.7,15.5,4.4,25.7c-17.5,24.3-35,48.5-52.6,72.7
		c-13.7,19-27.4,37.9-41.1,56.9c-1,1.4-2,3-2.8,4.2c9.6,2.4,18.9,4.6,28.1,7.3c4.4,1.3,8.6,3.5,12.7,5.6c5.2,2.6,7,7,5,11.4
		c-2,4.5-6.9,6.2-12.3,3.5c-11.6-5.8-23.8-9.5-36.8-10c-21-0.9-39.9,5-56.9,18.1c3.1,4.1,6.1,8.1,9.3,12.3
		c22-15.3,45.6-19.7,70.4-9.4c24.7,10.3,38.7,29.7,43.4,56.3c5.1,0,10.2,0,15.4,0c-1.5-14.8-6.4-28-14.6-40
		c-5.2-7.5-5.1-12.3-0.1-15.5c4.8-3.1,8.9-1.1,13.9,6.1c9.3,13.6,15.2,28.4,17.1,44.8c0.2,1.5,0.6,2.9,1.1,5c4.6,0,9.1,0,13.7,0
		c10.6,0.1,16.3,6.4,15.1,16.8c-5.7,49.6-20.7,96-48.5,137.8c-19,28.5-42.7,52.4-71.1,71.4c-4.1,2.8-6.1,5.7-5.8,10.8
		c0.5,6.7,0.3,13.4,0,20.1c-0.8,13.2-7.1,21.2-19.6,25.4c-0.7,0.2-1.3,0.7-1.9,1C1245.6-69.3,1165.3-69.3,1085-69.3z M1330.8-118.5
		c-2.9,0-5.1,0-7.3,0c-59.8,0-119.7,0-179.5,0c-1.7,0-3.4,0.1-5,0c-5.7-0.4-9.3-3.7-9.2-8.5c0-4.7,3.7-7.9,9.4-8.2
		c1.7-0.1,3.3,0,5,0c62.5,0,124.9,0,187.4-0.1c2.5,0,5.5-0.2,7.3-1.6c11.1-8.1,22.4-16.1,32.6-25.2c29.5-26.3,50.7-58.5,65.2-95.1
		c10-25.1,16.4-51.1,19.3-78.2c-167,0-333.8,0-500.9,0c0.6,4.8,1,9.2,1.8,13.6c1.3,7.5,2.7,15,4.4,22.4
		c14.3,61.7,45.1,112.9,95.4,152c10.8,8.4,21.7,14.8,35.9,12.2c1.3-0.2,2.6,0,3.9,0c7,0.1,10.9,3.2,10.7,8.4
		c-0.1,5.1-3.8,8.1-10.5,8.3c-5.3,0.1-10.7,0-15.7,0c-0.4,1-0.6,1.3-0.6,1.7c-0.1,5.6-0.1,11.1-0.1,16.7c0,11.3,2.9,14.1,14.2,14.1
		c74,0,148,0,221.9,0c1.3,0,2.6,0.1,3.9,0c6.4-0.4,10.1-3.6,10.4-10C1331-103.2,1330.8-110.5,1330.8-118.5z M999.3-352.8
		c7-40.7,39.5-61.3,68.7-61.8c14.7-0.2,28.3,3.5,40.5,11.8c17.8,12.1,28.1,29,31.3,49.9c5.5,0,10.4,0,15.3,0
		c-2.9-38.9-37.5-78.1-86.9-77.3c-53.5,0.9-83,45.7-83.8,77.4C989.4-352.8,994.4-352.8,999.3-352.8z M1058.8-446.5
		c2.7-0.2,5.3-0.8,7.8-0.5c6.5,0.9,9.5-2.2,12.4-7.9c13.3-26.5,46.6-41.6,75.3-35.2c23.1,5.2,39.8,18.2,50.2,39.4
		c0.7,1.4,2.3,3.1,3.7,3.3c4.6,0.6,9.2,0.6,13.9,0.8c-5.7-26-34.8-59.6-79.3-60.7C1098.4-508.5,1066.4-476.6,1058.8-446.5z
		 M1160.1-393.8c0.8-0.3,1-0.4,1.1-0.5c1-0.9,1.9-1.7,2.9-2.6c19.6-16.6,42-22.2,66.5-14.8c27.2,8.2,43.6,27,49.7,54.8
		c0.3,1.6,1.9,3.9,3.1,4.1c4.3,0.5,8.7,0.2,13.7,0.2c-6.3-36.3-24.9-61.9-59.6-73.4c-31.9-10.6-60.6-2.9-85.9,19
		C1154.6-402.3,1157.3-398.1,1160.1-393.8z M1261.8-433.7c30.4-61.5,60.5-122.5,90.8-183.8c-4.1-1.9-7.8-3.6-11.9-5.5
		c-28.7,62.3-57.1,124-85.6,185.8C1257.6-435.9,1259.4-435,1261.8-433.7z M1122.4-352.9c-3.4-25.2-26.2-45.7-53.6-44.9
		c-27,0.7-49.9,21.2-51.6,45.1c5,0,10,0,15.2,0c0.6-1.6,1.1-3.2,1.7-4.7c6.3-15.1,17.6-23.8,34.1-24.5c15.5-0.7,28.6,5.7,34.4,20
		c4,9.9,9.9,10,17.7,9.4C1120.9-352.6,1121.7-352.8,1122.4-352.9z M1315.5-444.6c8.5,0.6,12.8-3.7,16.9-9.5
		c32-44.7,64.3-89.1,96.5-133.7c1.1-1.6,2.2-3.2,3.4-5c-3.8-2.7-7.1-5-10.7-7.4C1386.2-548.1,1350.9-496.5,1315.5-444.6z
		 M1263.2-352.8c0.1-0.6,0.3-0.9,0.3-1.3c-2.4-19.6-18.9-36.7-40.6-42.4c-19-4.9-42.2,2.9-53.4,18.2c-0.7,1-1.5,2.4-1.3,3.4
		c1.5,7.3,3.2,14.6,5,22.8c6.7-19.3,19.1-30.6,39.3-29.8c18.7,0.7,30.1,11.7,35.7,29.1C1253.3-352.8,1258.3-352.8,1263.2-352.8z
		 M1394.3-352.7c-4.2-20.6-15.5-34.8-34.5-41.7c-19.6-7.1-37.8-3.4-54,10c1.9,5.6,3.6,10.8,5.6,16.6c10.7-11.7,23.4-16.5,38.4-13.2
		c15.3,3.4,24.3,13.9,28.7,28.3C1383.9-352.7,1388.7-352.7,1394.3-352.7z M1188.8-445c-11.2-19.7-27.5-30.1-49.4-29.7
		c-21.1,0.4-36.7,10.8-47,29.8c4.6,1.5,8.5,3,12.6,3.9c1.3,0.3,3.4-0.8,4.3-2c17.3-21.7,45-21.7,62.3-0.1c0.9,1.1,3.1,2.2,4.3,1.9
		C1180.1-442,1184.1-443.5,1188.8-445z M1140.3-419.5c6-4.6,11.8-9,17.6-13.4c-9.4-12.8-26.9-12.4-34.7,0.4
		C1128.7-428.2,1134.3-424,1140.3-419.5z M1088.4-352.8c-3.5-8.1-10.4-12.8-18.8-12.5c-8.5,0.3-15,4.1-19.1,12.5
		C1063.4-352.8,1075.7-352.8,1088.4-352.8z M1229.6-352.7c-3.4-8.4-10.9-13.1-19.7-12.5c-8.7,0.5-15.6,5.5-17.4,12.7
		c11.7,0,23.4,0,35,0C1228.1-352.6,1228.8-352.7,1229.6-352.7z M1360.4-352.8c-4.9-9.2-12.1-13.3-21.1-12.4
		c-8.4,0.9-14.4,5.3-16.5,12.4C1335.2-352.8,1347.5-352.8,1360.4-352.8z"/>
</g>
<g class="st1">
	<path class="st3" d="M-56.7,1488.2c0-2.6,0-4.6,0-6.6c0-117.1,0-234.2,0-351.4c0-15.5,10.7-26.9,25.2-26.8
		c13.1,0.1,24.1,10.4,24.9,23.4c0.1,2.1,0.1,4.2,0.1,6.3c0,116.1,0,232.1,0,348.2c0,2.1,0,4.1,0,6.5c11.2,0,22.1,0,33.8,0
		c-2.6-24.8-5.2-49.4-7.7-74c-8.7-3.5-9.3-4.4-9.3-13.8c0-8.9,0-17.8,0-26.7c0-7.8,2.9-10.6,10.8-10.6c10.1,0,20.2,0,31,0
		c0-10.3-0.4-20.3,0.1-30.4c0.4-8.7,0.9-17.5,3-25.8c10.7-43.1,50.5-71.8,94.9-69.2c43.7,2.6,79.7,36.5,85.2,80.2
		c0.8,6.7,0.9,13.5,1.3,20.5c12.8,3.7,21.3,11.7,24.1,25.2c0.4,1.9,0.6,3.8,0.6,5.7c0,19.9,0,39.7,0,59.6c0,9-3.7,16.1-10.7,21.6
		c-1.3,1-2.6,2.9-2.8,4.5c-3.9,35.7-7.9,71.3-11.3,107c-1,10.9-0.2,21.9-0.3,32.9c-0.1,7.8-2.9,10.7-10.8,10.7
		c-129.5,0-258.9,0-388.4,0c-8.6,0-11.9-4.2-9.8-12.8c3.6-14.5,6.8-29.2,10.9-43.5c3.9-13.5,5.5-27.2,5-41.2
		c-0.4-13.1,6.3-19.6,19.4-19.6c24.9,0,49.8,0,74.8,0C-60.9,1488.2-59.1,1488.2-56.7,1488.2z M185.9,1448.6
		c-12.5,8.1-19.9,8.1-33.7,0.1c-8.7,6.6-18.3,8.4-28.2,2.9c-10.3-5.7-13.9-15-13.4-26.3c0.2-4,0-7.9,0-12.1c-25,0-49.4,0-74.3,0
		c2.7,25.1,5.3,50,7.9,75c11.4,0,22.2-0.1,33,0c9.4,0.1,16.4,7.2,16.7,16.6c0.2,5.4-0.5,10.9,0.2,16.2c1.5,11.4,3.7,22.7,5.5,33.8
		c41.1,0,80.7,0,120.7,0c3.5-33.7,7.1-67.2,10.5-100.1c-4.4-2.3-8.1-4.1-11.7-6C207.1,1456.8,198.3,1456.8,185.9,1448.6z
		 M111,1362.5c6-17.7,16.1-24.9,34.4-24.9c22.6,0,45.3,0,67.9,0c1.9,0,3.7,0,6,0c0-3.5,0-6.4,0-9.3c-0.4-35.8-26.5-66.7-61.4-73.1
		c-35.6-6.5-70.6,13-83.9,46.4c-7.9,19.8-4.3,40.4-5.3,60.9C83.2,1362.5,96.9,1362.5,111,1362.5z M160.8,1396.4c0,1.9,0,3.6,0,5.3
		c0,8.9-0.1,17.8,0,26.7c0.1,5.8,3.3,9.4,8.2,9.6c5.1,0.1,8.4-3.7,8.5-9.7c0-1.9,0-3.8,0-5.8c0-8.6,0-17.3,0-25.9
		c5.9,0,11.2,0,16.7,0c0,11-0.1,21.6,0,32.2c0.1,6.9,5.8,11,11.5,8.4c3.8-1.7,5.2-4.8,5.2-8.9c0-10.6,0-21.2,0-31.9
		c5.8,0,11.1,0,16.3,0c0.2,0.7,0.4,1,0.4,1.3c0,9.8,0,19.5,0.1,29.3c0,7,3.2,11,8.4,10.9c5.2-0.1,8.3-4.2,8.3-11.1
		c0-18.6,0-37.3,0-55.9c0-10.7-5.8-16.5-16.5-16.5c-28.1,0-56.1,0-84.2,0c-10.7,0-16.4,5.8-16.5,16.5c-0.1,16,0,32.1,0,48.1
		c0,3.7-0.2,7.3,0.1,11c0.4,4.8,4.4,8.2,8.7,8c4.3-0.2,7.5-3.5,7.8-8.3c0.2-2.3,0-4.5,0.1-6.8c0-8.8,0-17.6,0-26.5
		C149.9,1396.4,155.1,1396.4,160.8,1396.4z M-23.2,1488c0-1.8,0-3,0-4.2c0-117.6,0-235.2,0-352.8c0-1.2,0.1-2.5-0.1-3.6
		c-0.9-4.5-3.7-7.2-8.3-7.2c-4.6,0-7.4,2.8-8.2,7.3c-0.3,1.5-0.1,3.1-0.1,4.7c0,116.7,0,233.4,0,350.2c0,1.8,0,3.7,0,5.7
		C-34.2,1488-29,1488-23.2,1488z M-140.1,1521.3c72.6,0,144.7,0,216.8,0c0-5.6,0-10.9,0-16.1c-72.5,0-144.5,0-216.8,0
		C-140.1,1510.6-140.1,1515.8-140.1,1521.3z M108.7,1588.2c37,0,73.7,0,110.2,0c0-5.7,0-10.9,0-16.2c-38.2,0-75.9,0-114.2,0
		C106.1,1577.7,107.4,1583,108.7,1588.2z M110.4,1379.8c-28,0-55.6,0-83,0c0,5.7,0,10.9,0,16.1c27.9,0,55.3,0,83,0
		C110.4,1390.5,110.4,1385.3,110.4,1379.8z M-41,1538.6c-2.1,16.7-4.1,33.2-6.2,49.6c10.7,0,20.8,0,31.1,0
		c-2.1-16.8-4.2-33.1-6.2-49.6C-28.6,1538.6-34.4,1538.6-41,1538.6z M-57.8,1538.6c-6.2,0-11.7,0-17.5,0c-4.1,16.6-8.2,33-12.4,49.7
		c8.2,0,15.8,0,23.6,0C-62,1571.8-59.9,1555.4-57.8,1538.6z M12.1,1538.7c-6.2,0-11.7,0-17.5,0c2.1,16.8,4.2,33.2,6.2,49.6
		c8.1,0,15.7,0,23.6,0C20.3,1571.5,16.2,1555.1,12.1,1538.7z M-142.2,1538.6c-4.1,16.6-8.2,33.1-12.4,49.8c5.8,0,10.8,0,16.2,0
		c4.1-16.5,8.2-33,12.4-49.8C-131.6,1538.6-136.6,1538.6-142.2,1538.6z M-105,1588.4c4.1-16.6,8.2-33,12.4-49.8
		c-5.7,0-10.7,0-16.2,0c-4.1,16.5-8.2,33-12.4,49.8C-115.7,1588.4-110.7,1588.4-105,1588.4z M58,1588.4
		c-4.3-17.1-8.4-33.5-12.5-49.8c-5.7,0-10.7,0-16.2,0c4.2,16.8,8.3,33.3,12.4,49.8C47.2,1588.4,52.2,1588.4,58,1588.4z M79,1538.8
		c-5.6,0-10.7,0-16.2,0c4.2,16.9,8.3,33.3,12.4,49.6c5.7,0,10.7,0,16.2,0C87.2,1571.6,83.1,1555.1,79,1538.8z"/>
	<path class="st3" d="M252.7,1280.9c-3.3-3.1-6.5-4.9-7.5-7.5c-5.4-13.8-14.9-23.2-28.6-28.7c-2.4-1-5.2-4.9-5.1-7.4
		c0.1-2.8,2.7-6.8,5.3-7.8c13.6-5.5,22.8-14.7,28.4-28.3c1-2.6,5.1-5.4,7.7-5.4c2.7,0,6.7,2.8,7.7,5.4c5.5,13.6,14.8,22.8,28.3,28.3
		c2.5,1,5.4,5.1,5.3,7.8c0,2.7-2.9,6.6-5.5,7.7c-13.6,5.5-22.8,14.8-28.2,28.4C259.4,1276.1,255.9,1277.9,252.7,1280.9z M240,1237
		c4.2,4.2,9,9.1,12.8,12.8c4.2-4.1,9-8.8,12.7-12.5c-4.1-4.2-8.7-9-12.6-13C248.7,1228.5,243.9,1233.1,240,1237z"/>
	<path class="st3" d="M-71.5,1337.6c-3.2,3.3-4.9,6.6-7.5,7.7c-13.8,5.5-23.2,14.8-28.7,28.6c-1,2.4-4.9,5.2-7.4,5.1
		c-2.8-0.1-6.8-2.7-7.8-5.2c-5.5-13.5-14.7-22.9-28.3-28.4c-2.6-1-5.4-5-5.5-7.7c0-2.6,2.8-6.7,5.3-7.8
		c13.6-5.5,22.8-14.8,28.3-28.3c1-2.6,5.1-5.4,7.7-5.4c2.7,0,6.7,2.9,7.7,5.5c5.5,13.4,14.5,22.6,27.9,28
		C-76.7,1330.8-74.7,1334.3-71.5,1337.6z M-114.9,1325.1c-4.4,4-9.3,8.5-13.2,12c4.3,4.5,9,9.3,12.6,13.1c4.2-4,9-8.7,12.8-12.4
		C-106.6,1333.8-111.2,1328.9-114.9,1325.1z"/>
	<path class="st3" d="M-121.7,1437.9c-3,3.2-4.8,6.7-7.5,7.8c-13.8,5.5-23.1,14.9-28.6,28.7c-1,2.4-5,5.2-7.4,5
		c-2.8-0.1-6.8-2.8-7.8-5.4c-5.5-13.6-14.7-22.8-28.3-28.3c-2.6-1-5.4-5.1-5.4-7.7c0-2.7,2.9-6.7,5.4-7.7
		c13.6-5.5,22.7-14.8,28.3-28.4c1-2.5,5.1-5.2,7.8-5.3c2.5-0.1,6.4,2.7,7.4,5.1c5.5,13.8,14.9,23.2,28.7,28.6
		C-126.6,1431.4-124.8,1434.6-121.7,1437.9z M-152.7,1438c-4-4.1-8.7-8.9-12.7-12.9c-4.1,4.1-8.9,8.8-13,12.9
		c4.2,4.1,9.1,8.9,13,12.7C-161.4,1446.6-156.7,1442-152.7,1438z"/>
	<path class="st3" d="M186.3,1496.8c5.4,0,10.6,0,16,0c0,13.8,0,27.5,0,41.4c-5.3,0-10.5,0-16,0
		C186.3,1524.5,186.3,1510.9,186.3,1496.8z"/>
	<path class="st3" d="M186.1,1479.5c0-5.6,0-10.7,0-16.1c5.4,0,10.5,0,16.1,0c0,5.2,0,10.5,0,16.1
		C197,1479.5,191.7,1479.5,186.1,1479.5z"/>
</g>
<g class="st1">
	<path class="st3" d="M-496.5,919.3c7.3,2.7,14.3,5.3,21.3,7.9c26.6,9.9,40.9,30.4,40.9,58.7c0,87.8,0,175.7,0,263.5
		c0,18.2-10,28.3-28,28.3c-59.4,0-118.8,0-178.2,0c-17.8,0-28-10.1-28-27.8c0-99.5,0-199,0-298.5c0-36.2,22.2-62.6,57.9-69.1
		c1.6-0.3,3.5-2.1,4.1-3.6c2.8-6.9,5.2-14,7.8-21c2.6-6.9,6.2-8.6,12.9-6.3c8.3,2.8,8.3,2.8,13.4-4.3c11.5-16.2,23.1-32.3,34.6-48.5
		c4.8-6.7,6.9-7.3,14.5-4.5c5.7,2.1,11.5,4.1,17.2,6.2c8.3,3.1,9.4,5.1,8.6,14.1c-1.7,20-3,40-5,59.9c-0.5,5.6,0.7,8.8,6.5,10
		c2.1,0.4,5,1.5,5.8,3.1c1.3,2.9,2.3,6.7,1.5,9.6C-490.6,904.3-493.7,911.5-496.5,919.3z M-651.4,1018.4c0,53.1,0,105.8,0,158.3
		c67,0,133.6,0,200.1,0c0-53,0-105.5,0-158.3C-518,1018.4-584.5,1018.4-651.4,1018.4z M-451,1001.3c0-5.8,0-11.2,0-16.6
		c-0.1-19.9-10.3-34.7-29-41.5c-39.7-14.5-79.4-28.9-119.1-43.2c-2.4-0.9-5.1-1.3-7.6-1.1c-24.6,2-44.5,23.1-45,48.1
		c-0.3,17.4-0.1,34.8-0.1,52.2c0,0.6,0.2,1.3,0.4,2.1C-584.7,1001.3-518.2,1001.3-451,1001.3z M-651.8,1194.1c0,19.1,0,37.7,0,56.3
		c0,7.5,3,10.4,10.5,10.4c59.9,0,119.8,0,179.7,0c7.7,0,10.6-2.9,10.6-10.9c0-17.2,0-34.5,0-51.7c0-1.3-0.2-2.7-0.3-4.2
		C-518.1,1194.1-584.6,1194.1-651.8,1194.1z M-519,875.5c1.5-19.7,3-38.7,4.4-57.8c0.4-5.5-5.2-3.9-7.8-5.7c-2.4-1.7-4-0.6-5.5,1.6
		c-7.8,11.1-15.7,22.1-23.6,33.1c-3.1,4.3-6.2,8.7-9.5,13.4C-546.9,865.3-533.3,870.3-519,875.5z M-506.6,897.9
		c-26.3-9.6-52.2-19-78.5-28.6c-2,5.4-3.8,10.4-5.7,15.7c26.4,9.6,52.2,19,78.5,28.6C-510.4,908.3-508.5,903.3-506.6,897.9z"/>
</g>
<g class="st1">
	<path class="st3" d="M-705.6-6.3c2.1,0.7,4.3,1.3,6.3,2.2c11.7,5.1,18.6,14,19.6,26.8c1,12.7-4.5,22.6-15.4,29.4
		c-1.6,1-3.4,1.8-5.4,2.8c0,22.4,0.4,44.8-0.2,67.3c-0.3,10.4,2.2,19,7.9,27.7c11.1,17.2,22.1,34.7,31.6,52.8
		c15.7,29.9,22.9,62.2,23.4,96c0,2.6,0,5.2,0,8.6c2.2,0,4.2,0,6.2,0c58.9,0,117.8,0,176.6,0c24.1,0,38.8,14.7,38.8,38.7
		c0,48.1,0,96.2,0,144.2c0,24-14.7,38.7-38.8,38.7c-36.6,0-73.2,0-109.7,0c-14.1,0-18.9-7.6-12.8-20.2c3.8-7.9,1.9-16.8-4.7-22.2
		c-6.4-5.2-15.8-5.2-22.2-0.1c-6.9,5.4-8.7,14.4-4.7,22.6c3.8,7.6,3.5,13.2-1.6,16.8c-2.4,1.7-5.7,2.8-8.6,2.9
		c-13.9,0.3-27.9,0.9-41.8-0.2c-9.4-0.7-18.5,0-27.8,0.1c-56.3,0.4-112.5,0.4-168.8,0.2c-28.8-0.1-51.4-23.1-51.8-52.1
		c-0.2-13.9-0.1-27.9,0-41.8c0-7.5,4.3-12.2,10.6-12.1c6.2,0.1,10.2,4.8,10.2,12c0.1,13.9-0.1,27.9,0.1,41.8
		c0.2,17.5,13.7,31.2,31.2,31.3c53.7,0.1,107.3,0.1,161,0c0.9,0,1.7-0.1,2.5-0.2c-4.5-18.8-1.7-37.9-2.2-56.8
		c-0.2-6,4.3-9.4,11.2-10c12.1-1,21.2-9.7,22.1-21.2c0.9-12.6-8.4-23.5-21.1-24.7c-9.3-0.9-12.3-4.1-12.3-13.2c0-12.2,0-24.4,0-36.6
		c0-22.3,13.4-36.5,35.7-38.1c0.5,0,1-0.2,1.8-0.4c0.6-19.6-1.7-38.7-6.6-56.7c-11.3,3.5-22,7.9-33.1,10.1
		c-29.4,5.7-56.3-0.8-80.6-18.2c-27.2-19.5-56.1-22.7-86.9-9.9c-9.1,3.8-14.6,9.4-16.7,19.7c-3.9,18.9-6.3,37.7-6,57
		c0.2,10.1,0.2,20.2,0,30.3c-0.1,6.1-4.4,10.3-10.2,10.3c-5.8,0.1-10.6-4-10.5-10c0.2-24.5-1.3-49.1,2.7-73.5
		c4.9-29.4,15.2-56.7,30.9-82c9-14.5,18-29,26.9-43.6c1.1-1.8,2-4.1,2-6.2c0.1-25.8,0.1-51.6,0.1-77.3c0-0.7-0.1-1.4-0.2-2.1
		c-10.2-4.4-17.3-11.6-19.8-22.7c-3.6-15.5,4.9-30.9,19.9-36.4c1.8-0.6,3.6-1.3,5.4-1.9C-796.2-6.3-750.9-6.3-705.6-6.3z
		 M-594.7,328.2c-22.5,0-44.5-0.1-66.4,0.1c-8.1,0.1-13.9,6.3-14.1,14.5c-0.2,9.7-0.2,19.5,0.1,29.3c0,1.5,1.7,3.6,3.1,4.2
		c18.7,7.2,30.1,22.9,30.1,41.6c0.1,19-11.2,34.5-30.3,42c-1.3,0.5-3,2.5-3,3.8c-0.2,10.1-0.3,20.2,0,30.3
		c0.2,7.2,5.6,13.3,12.6,13.7c10.2,0.5,20.5,0.1,30.7,0.1c-1.5-26,13.3-44.8,35.7-46c11.2-0.6,21,2.6,29.2,10.3
		c10.2,9.6,13.7,21.7,12,35.5c0.8,0.2,1.3,0.4,1.8,0.4c33.8,0,67.6,0.1,101.3,0c8.9,0,14.8-6.3,14.8-15.5c0.1-49.5,0.1-98.9,0-148.4
		c0-10-6-15.8-16.1-15.8c-12.4-0.1-24.7,0-37.1,0c-12.9,0-25.7,0-39,0c5.6,18.7,2.2,34.4-14.7,44.9c-12.9,8-26.5,7.4-38.7-1.6
		C-597.3,360.8-600.4,345.9-594.7,328.2z M-825.8,56.6c0,2.3,0,4.2,0,6.1c0,24.6,0.2,49.1-0.2,73.7c-0.1,4.1-1.3,8.6-3.4,12.2
		c-10.5,17.7-21.4,35-32.2,52.5c-1.5,2.4-2.7,4.9-4.5,8.2c1.8-0.4,2.4-0.6,3.1-0.8c34.5-10.2,66.4-5.2,95.5,16
		c13.7,10,29.1,15.7,46,16.5c17.5,0.9,33.7-3.2,49.2-13c-2.9-6.3-5.3-12.7-8.7-18.5c-12.2-20.7-24.9-41-37.1-61.7
		c-1.8-3.1-3-7.1-3-10.7c-0.3-24.9-0.1-49.8-0.1-74.7c0-1.9,0-3.7,0-5.8C-756.3,56.6-790.7,56.6-825.8,56.6z M-774.1,35.5
		c9.9,0,19.8,0,29.7,0c11.1,0,22.3,0.1,33.4-0.1c6.2-0.1,10.7-4.8,10.5-10.6c-0.1-5.6-4.5-9.8-10.5-10.2c-1.6-0.1-3.1,0-4.7,0
		c-35.3,0-70.6,0-105.9,0c-5,0-10.1-0.1-15.1,0.1c-4.6,0.2-7.8,2.7-9.4,7c-1.5,4-0.8,8,2.5,10.4c2.6,1.9,6.2,3.2,9.4,3.2
		C-814.1,35.6-794.1,35.5-774.1,35.5z M-562,357.4c8,0,14.5-6.6,14.4-14.7c0-8.1-6.5-14.6-14.5-14.6c-8,0-14.6,6.7-14.5,14.6
		C-576.5,350.9-569.9,357.5-562,357.4z"/>
	<path class="st3" d="M-899.1,396.5c-5.7-0.1-10.3-4.6-10.3-10.3c0-5.6,4.6-10.3,10.3-10.4c5.9-0.1,10.7,4.8,10.5,10.6
		C-888.7,392.1-893.4,396.5-899.1,396.5z"/>
	<path class="st3" d="M-499.5,461c-19.6,0-35.6-15.9-35.6-35.4c0-19.5,16-35.6,35.5-35.6c19.5,0,35.5,15.9,35.6,35.5
		C-464.1,445.1-479.9,461-499.5,461z M-498.9,410.9c-7.9-0.4-14.9,6-15.3,13.9c-0.4,7.9,6,14.9,13.9,15.2c8,0.3,14.9-5.9,15.2-13.9
		C-484.7,418.2-490.9,411.3-498.9,410.9z"/>
</g>
<g class="st1">
	<path class="st3" d="M1775.7,802.1c0,5.3,0,10.7,0,16.8c-1.9,0-3.6,0-5.4,0c-20.2,0-40.3,0-60.5,0c-10,0-11.9,1.9-12.8,11.9
		c-0.8,8.7-1.9,17.3-2.9,26.8c30.7,1.8,56.9,13.3,77.2,36.8c20.4,23.7,25.2,52,22.9,82.7c6.6,0,12.2-0.1,17.9,0
		c8.1,0.1,11,2.9,11,10.9c0,13.9,0.1,27.9,0,41.8c0,7.8-3.1,10.8-11.1,11c-5.5,0.1-11.1,0.1-16.6,0.1c-0.3,0-0.6,0.2-1.6,0.5
		c-0.9,8-1.9,16.3-2.7,24.6c-4.7,44.6-9.3,89.2-14,133.7c-2.7,26-5.3,52.1-8.2,78.1c-2.6,23.8-20.3,40.2-44.3,40.4
		c-35.4,0.3-70.9,0.3-106.3,0c-23.7-0.2-42.7-19.1-45-43.3c-4.5-47.1-9.3-94.2-13.9-141.4c-2.8-28.9-5.6-57.8-8.4-86.7
		c-0.2-1.8-0.5-3.6-0.8-6c-6.2,0-12.2,0.1-18.2,0c-7.9-0.1-11-3.2-11-11.1c0-13.9,0-27.9,0-41.8c0-7.9,3.1-11,10.9-11.1
		c5.7-0.1,11.3,0,18,0c0-8.4-0.4-16.2,0.1-24.1c2.9-52.7,43.8-92.8,96.7-94.9c10.1-0.4,20.1-0.1,30.8-0.1c1-8.5,2.5-16.6,2.6-24.7
		c0.2-15.4,6.4-26,21.4-30.9C1726,802.1,1750.9,802.1,1775.7,802.1z M1567,1041.1c2,20.2,4,39.9,6,59.6
		c5.7,58,11.4,115.9,17.2,173.9c1.5,15.4,12.8,26.9,28.1,27c35.4,0.4,70.9,0.4,106.3,0c16.1-0.2,25.9-9.8,27.7-25.7
		c2.6-23.3,4.9-46.7,7.3-70.1c4.9-46.9,9.8-93.8,14.8-140.7c0.8-7.9,1.6-15.9,2.4-24C1706.6,1041.1,1637.2,1041.1,1567,1041.1z
		 M1675.3,875.2c-72.6-8.7-116.3,37.4-108.6,101.5c0.4,0.1,0.9,0.4,1.4,0.4c31.1,0,62.1,0,93.2,0.1c3.6,0,3.4-2.1,3.7-4.5
		c2.5-23.7,5.1-47.4,7.7-71C1673.6,892.7,1674.4,883.9,1675.3,875.2z M1537.8,1023.8c89.7,0,178.8,0,267.9,0c0-10.2,0-19.9,0-29.7
		c-89.5,0-178.6,0-267.9,0C1537.8,1004.1,1537.8,1013.7,1537.8,1023.8z M1777.3,976.7c2.7-29.3-2.1-56-24-77.2
		c-16.9-16.4-37.3-24.3-61.1-24.9c-3.7,34.3-7.3,68.1-11,102.2C1713.7,976.7,1745.5,976.7,1777.3,976.7z"/>
	<path class="st3" d="M1640.8,1282.3c-3.5,0-7.1,0.1-10.6,0c-12.6-0.3-21.6-7.9-23.8-20.3c-2.4-13.5-4.6-27.1-6.8-40.7
		c-0.9-5.7,1.6-9.9,6.4-10.9c5-1,9.1,2,10.1,8c2.2,12.7,4.3,25.5,6.3,38.2c1.2,7.5,2.9,9,10.6,9c6.9,0,13.8-0.1,20.6,0
		c5.8,0.1,9.3,3.4,9.2,8.4c-0.1,4.8-3.4,7.8-9,8.1c-0.3,0-0.7,0-1,0C1648.8,1282.3,1644.8,1282.3,1640.8,1282.3z"/>
</g>
<g class="st1">
	<path class="st3" d="M1456.5,96.4c2.6,0.8,5.3,1.6,7.9,2.5c17.8,6.4,29,24.2,27.1,43.1c-1.1,10.9-2.1,21.8-3.2,32.7
		c-0.6,6.1-0.4,6.4,6,6.5c18,0.2,31.6,10.7,34.1,26.9c0.8,5.4,0.1,11,0.1,17.1c3.4,0,5.8-0.1,8.2,0c10.5,0.6,17.9,8,18.1,18.5
		c0.2,11.8,0.1,23.7,0,35.5c-0.1,7.6-3.8,13.2-10.7,17.2c9.7,9,16.7,19.4,19.4,32.2c1,4.9,1.7,10,1.7,15
		c0.1,46.2,0.1,92.3,0.1,138.5c0,1.6,0.1,3.2-0.3,4.7c-1.1,4-3.8,6.3-8.1,6c-4.2-0.3-6.7-2.7-7.2-6.9c-0.2-1.7-0.1-3.5-0.1-5.2
		c0-45.6,0.1-91.3,0-136.9c0-23.4-15-41.3-37.6-45.2c-3.2-0.6-6.6-0.6-9.9-0.6c-34.5,0-69-0.1-103.5,0c-29,0-47.5,18.7-47.5,47.9
		c0,12.4,0,24.7,0,37.1c0,6.2-2.9,9.6-7.8,9.6c-4.9,0-7.8-3.6-7.8-9.7c0-13.8-0.2-27.5,0-41.3c0.3-17.8,7.6-32.6,21.2-45.2
		c-10.5-5.3-11.3-14.5-10.9-24.5c0.3-8.5,0-17.1,0.1-25.6c0-13.8,7.1-21,20.8-21.2c1.5,0,3.1-0.2,5.2-0.3c0-3.5,0-6.8,0-10
		c0.2-19.6,13.5-33.2,33-33.6c8.2-0.2,8-0.2,7.2-8.6c-1.2-12.8-3.3-25.7-2.7-38.5c1-18.9,13.9-32.4,32.3-36.9c0.8-0.2,1.6-0.6,2.3-1
		C1448.1,96.4,1452.3,96.4,1456.5,96.4z M1513.1,225.3c0-2.9,0-5.3,0-7.7c0-14.7-5.8-20.5-20.6-20.6c-14.1-0.1-21.6-8.9-20-23
		c1.3-11.4,2.5-22.9,3.4-34.3c1.2-14.8-10.9-27.5-25.8-27.5c-14.9,0-26.9,12.9-25.7,27.6c1,11.3,2.1,22.5,3.4,33.8
		c1.7,14.8-5.7,23.3-20.6,23.4c-1.7,0-3.5,0-5.2,0.2c-7.3,1-13.5,6.4-14.4,13.2c-0.6,4.7-0.1,9.6-0.1,14.8c2.3,0,4.2,0,6.1,0
		c18.8,0,37.6,0,56.4,0c1.6,0,3.2-0.1,4.7,0.2c4.3,0.9,6.9,3.5,6.7,8c-0.2,4.4-2.8,7-7.3,7.4c-1.7,0.1-3.5,0.1-5.2,0.1
		c-27.2,0-54.4,0.1-81.5-0.1c-4.4,0-6.3,1.3-6.1,6c0.3,10.1,0.2,20.2,0,30.3c-0.1,3.7,1.2,5.3,5.1,5.3c55.7-0.1,111.5-0.1,167.2,0
		c3.8,0,5.4-1.2,5.3-5.1c-0.2-10.5-0.2-20.9,0-31.4c0.1-4-1.8-5.1-5.4-5.1c-8.2,0.1-16.4,0-24.6,0c-7.3,0-14.6,0.1-21.9-0.1
		c-4.5-0.1-7.1-2.7-7.6-7.1c-0.5-4.2,2.5-7.6,7-8.3c1.7-0.3,3.5-0.2,5.2-0.2C1498.6,225.2,1505.6,225.3,1513.1,225.3z"/>
	<path class="st3" d="M1335.3,497.8c0-25.1,0-50.2,0-75.3c0-2.1,0.1-4.2,0.8-6.1c1.3-3.5,4.5-5.6,7.8-4.4c2.7,1,5,3.7,6.7,6.1
		c0.9,1.3,0.3,3.7,0.3,5.6c0,48.1,0,96.2,0,144.2c0,29.3,18.6,47.9,48,47.9c34.3,0,68.6,0,103,0c28.6,0,47.4-18.8,47.5-47.4
		c0-15.2,0-30.3,0-45.5c0-6.6,2.9-10.1,8-10c4.8,0.1,7.7,3.6,7.7,9.8c0,16.2,0.1,32.4,0,48.6c-0.3,33.5-26.8,60-60.3,60.1
		c-36.1,0.1-72.1,0.1-108.2,0c-34.5-0.1-61-26.1-61.3-60.7C1335.1,546.6,1335.3,522.2,1335.3,497.8z"/>
	<path class="st3" d="M1400.5,347.5c-5.2,0-10.4,0.1-15.6,0c-4.8-0.1-7.7-2.9-8-7.2c-0.3-4.5,2.6-8.2,7.4-8.3
		c10.9-0.3,21.9-0.3,32.8,0c4.6,0.1,7.3,3.7,7.2,8c-0.1,4.3-3,7.3-7.7,7.4C1411.2,347.6,1405.9,347.5,1400.5,347.5z"/>
	<path class="st3" d="M1400.2,406.1c-5,0-10.1,0.1-15.1,0c-5.1-0.1-8.1-3-8.2-7.5c-0.1-4.5,2.8-7.9,7.8-8c10.6-0.3,21.2-0.3,31.7,0
		c5,0.1,7.9,3.4,7.9,7.9c0,4.8-3,7.5-8.6,7.7C1410.6,406.2,1405.4,406.1,1400.2,406.1z"/>
	<path class="st3" d="M1400.9,566.5c5,0,10.1-0.1,15.1,0c5.2,0.2,8.1,2.9,8.3,7.4c0.2,4.7-2.8,8-8.2,8.1c-10.4,0.2-20.8,0.2-31.2,0
		c-5.1-0.1-8-3.2-8.1-7.7c-0.1-4.7,2.9-7.7,8.4-7.8C1390.5,566.4,1395.7,566.5,1400.9,566.5z"/>
	<path class="st3" d="M1400.6,464.8c-5.2,0-10.4,0.2-15.6,0c-5.2-0.2-8.1-3.1-8.1-7.6c-0.1-4.7,2.9-7.8,8.3-7.9
		c10.2-0.2,20.5-0.2,30.7,0c5.4,0.1,8.5,3.2,8.4,7.9c0,4.7-3,7.5-8.6,7.7C1410.7,464.9,1405.7,464.8,1400.6,464.8
		C1400.6,464.8,1400.6,464.8,1400.6,464.8z"/>
	<path class="st3" d="M1400.1,523.5c-4.7,0-9.4,0.1-14,0c-5.9-0.2-9.1-2.9-9.1-7.7c-0.1-4.9,3-7.8,8.9-7.9c9.9-0.1,19.8-0.1,29.7,0
		c5.8,0.1,9,3,8.9,7.9c-0.1,4.6-3.1,7.5-8.6,7.7C1410.5,523.6,1405.3,523.5,1400.1,523.5z"/>
</g>
</svg>
